<?xml version="1.0" encoding="UTF-8" standalone="no"?>
<!-- Generator: Adobe Illustrator 19.0.0, SVG Export Plug-In . SVG Version: 6.00 Build 0)  -->

<svg
   xmlns:dc="http://purl.org/dc/elements/1.1/"
   xmlns:cc="http://creativecommons.org/ns#"
   xmlns:rdf="http://www.w3.org/1999/02/22-rdf-syntax-ns#"
   xmlns:svg="http://www.w3.org/2000/svg"
   xmlns="http://www.w3.org/2000/svg"
   xmlns:sodipodi="http://sodipodi.sourceforge.net/DTD/sodipodi-0.dtd"
   xmlns:inkscape="http://www.inkscape.org/namespaces/inkscape"
   version="1.1"
   x="0px"
   y="0px"
   viewBox="0 0 512 512"
   style="enable-background:new 0 0 512 512;"
   xml:space="preserve"
   id="svg71"
   sodipodi:docname="black_and_white_wally_on_coin.svg"
   inkscape:version="0.92.5 (2060ec1f9f, 2020-04-08)"><metadata
   id="metadata77"><rdf:RDF><cc:Work
       rdf:about=""><dc:format>image/svg+xml</dc:format><dc:type
         rdf:resource="http://purl.org/dc/dcmitype/StillImage" /><dc:title></dc:title></cc:Work></rdf:RDF></metadata><defs
   id="defs75" /><sodipodi:namedview
   pagecolor="#ffffff"
   bordercolor="#666666"
   borderopacity="1"
   objecttolerance="10"
   gridtolerance="10"
   guidetolerance="10"
   inkscape:pageopacity="0"
   inkscape:pageshadow="2"
   inkscape:window-width="2375"
   inkscape:window-height="1693"
   id="namedview73"
   showgrid="false"
   inkscape:zoom="2.7441406"
   inkscape:cx="181.11317"
   inkscape:cy="256"
   inkscape:window-x="8128"
   inkscape:window-y="62"
   inkscape:window-maximized="0"
   inkscape:current-layer="ombre" />
<style
   type="text/css"
   id="style2">
	.st0{fill:#C4A6FF;}
	.st1{fill:#C4A6FF;stroke:#070707;stroke-width:14;stroke-linecap:round;stroke-linejoin:round;stroke-miterlimit:10;}
	.st2{fill:#FFFFFF;stroke:#070707;stroke-width:8;stroke-miterlimit:10;}
	.st3{fill:#FFCE00;}
	.st4{opacity:0.05;fill:#FF0000;}
	.st5{fill:#FFFFFF;stroke:#000000;stroke-width:7;stroke-linecap:round;stroke-linejoin:round;stroke-miterlimit:10;}
	.st6{fill:#0C0A00;stroke:#070707;stroke-width:14;stroke-linecap:round;stroke-linejoin:round;stroke-miterlimit:10;}
	.st7{opacity:0.3;}
	.st8{opacity:0.05;}
	.st9{fill:none;stroke:#070707;stroke-width:3;stroke-linecap:round;stroke-linejoin:round;stroke-miterlimit:10;}
	.st10{fill:#FFFFFF;}
	.st11{opacity:0.2;}
	.st12{opacity:0.1;}
	.st13{opacity:0.15;}
</style>


<g
   id="ombre"
   inkscape:label="coin">
	<polygon
   id="XMLID_297_"
   class="st0"
   points="395.5,328.72 368.33,238.15 365,195.15 153.31,195.15 150.96,233.48 120.5,301.4 303.5,332.28 "
   style="fill:#c4a6ff" />
	
	
	<path
   id="XMLID_294_"
   class="st1"
   d="M 96.946726,272.24502 C 103.89673,247.57502 150.66,238.15 150.66,238.15 l 0.3,-4.67 c 0,0 3.59,-78.6 33.07,-108.53 l 5.02,-20.2 c 2.03,-11.11 5.73,-21.85 10.97,-31.85 v 0 c 6.33,-12.09 16.8,-18.88 30.31,-16.96 l 14.71,2.26 c 6.81,0.97 13.71,1.06 20.55,0.26 l 23.48,-3.29 c 12.72,-1.48 25.1,4.71 31.56,15.76 l 0.03,0.05 c 6.58,11.26 11.15,23.58 13.49,36.4 l 4.54,17.57 c 29.48,29.93 27.76,108.53 27.76,108.53 l -0.29,4.67 c 0,0 53.02,7 53.02,53.55 0,33.57 -66.95692,35.5594 -47.63836,33.55178 C 386.57,323.69 433.47,306.6 432.94,343.37 c -0.54,36.77 -64.22,33.78 -64.22,33.78 0,0 -24.72,0.5 -99.22,2 -74.5,1.5 -160.23,-9.5 -160.23,-9.5 0,0 -32.93,-10.4 -32.5,-41.6 -5.197378,-34.23004 44.10911,-29.16029 44.10911,-29.16029 l 18.22064,4.19075 c 0,0 -49.103024,-6.16544 -42.153024,-30.83544 z"
   inkscape:connector-curvature="0"
   style="fill:#c4a6ff;stroke:#070707;stroke-width:14;stroke-linecap:round;stroke-linejoin:round;stroke-miterlimit:10;fill-opacity:1"
   sodipodi:nodetypes="sccccccccccccccccssccsccscs" />
	
	
	<path
   style="color:#000000;font-style:normal;font-variant:normal;font-weight:normal;font-stretch:normal;font-size:medium;line-height:normal;font-family:sans-serif;font-variant-ligatures:normal;font-variant-position:normal;font-variant-caps:normal;font-variant-numeric:normal;font-variant-alternates:normal;font-feature-settings:normal;text-indent:0;text-align:start;text-decoration:none;text-decoration-line:none;text-decoration-style:solid;text-decoration-color:#000000;letter-spacing:normal;word-spacing:normal;text-transform:none;writing-mode:lr-tb;direction:ltr;text-orientation:mixed;dominant-baseline:auto;baseline-shift:baseline;text-anchor:start;white-space:normal;shape-padding:0;clip-rule:nonzero;display:inline;overflow:visible;visibility:visible;opacity:1;isolation:auto;mix-blend-mode:normal;color-interpolation:sRGB;color-interpolation-filters:linearRGB;solid-color:#000000;solid-opacity:1;vector-effect:none;fill:#070707;fill-opacity:1;fill-rule:nonzero;stroke:none;stroke-width:8;stroke-linecap:butt;stroke-linejoin:miter;stroke-miterlimit:10;stroke-dasharray:none;stroke-dashoffset:0;stroke-opacity:1;color-rendering:auto;image-rendering:auto;shape-rendering:auto;text-rendering:auto;enable-background:accumulate"
   d="m 280.78906,86.5 c -1.81593,0 -3.6204,0.369494 -5.29883,1.107422 l -0.0117,0.0059 -0.36133,0.16211 c -6.72237,2.940143 -9.76046,10.95253 -6.67578,17.607418 v 0.002 c 4.17437,8.98733 13.33372,15.125 23.86914,15.125 10.8723,0 20.22894,-6.57223 24.1875,-16.01368 C 319.22697,97.987434 316.00958,90.587188 309.75,87.701172 308.00522,86.889014 306.11053,86.485594 304.20898,86.5 Z m 0,8 h 23.4668 0.0137 c 0.73435,-0.0056 1.45728,0.150764 2.10938,0.455078 l 0.01,0.0039 0.01,0.0039 c 2.49902,1.149892 3.71477,3.995433 2.73828,6.394532 a 9.1199999,8.2799997 0 0 0 -7.77734,-3.966798 9.1199999,8.2799997 0 0 0 -9.11915,8.279298 9.1199999,8.2799997 0 0 0 3.50586,6.51367 c -1.11071,0.20663 -2.25621,0.32618 -3.43554,0.32618 -7.44359,0 -13.72519,-4.28086 -16.61133,-10.49219 -1.23533,-2.665115 -0.0746,-5.732258 2.62305,-6.912114 l 0.0156,-0.0078 0.37695,-0.167968 C 279.35451,94.649152 280.06708,94.5 280.78906,94.5 Z"
   id="XMLID_291_"
   inkscape:connector-curvature="0" />
	<g
   id="XMLID_210_"
   inkscape:label="coin">
		<g
   id="XMLID_219_">
			<path
   id="XMLID_330_"
   class="st3"
   d="m 59.85,446.96 c -6.7,0 -12.14,-5.45 -12.14,-12.14 v -51.27 c 0,-6.7 5.45,-12.14 12.14,-12.14 h 390.29 c 6.7,0 12.14,5.45 12.14,12.14 v 51.27 c 0,6.7 -5.45,12.14 -12.14,12.14 z"
   inkscape:connector-curvature="0"
   style="fill:#ffce00" />
			<path
   id="XMLID_327_"
   d="m 450.15,378.41 c 2.84,0 5.14,2.3 5.14,5.14 v 51.27 c 0,2.84 -2.3,5.14 -5.14,5.14 H 59.85 c -2.84,0 -5.14,-2.3 -5.14,-5.14 v -51.27 c 0,-2.84 2.3,-5.14 5.14,-5.14 h 390.3 m 0,-14 H 59.85 c -10.56,0 -19.14,8.59 -19.14,19.14 v 51.27 c 0,10.56 8.59,19.14 19.14,19.14 h 390.29 c 10.56,0 19.14,-8.59 19.14,-19.14 v -51.27 c 0.01,-10.56 -8.58,-19.14 -19.13,-19.14 z"
   inkscape:connector-curvature="0" />
		</g>
		
		
		
		
		
		
		
	</g>
	<path
   id="XMLID_209_"
   class="st5"
   d="m 193.56441,212.79413 10.03,94.8 c 1.3,12.3 15.35,12.51 16.88,0.25 l 11.83,-95.04 z"
   inkscape:connector-curvature="0"
   style="fill:#ffffff;stroke:#000000;stroke-width:7;stroke-linecap:round;stroke-linejoin:round;stroke-miterlimit:10"
   sodipodi:nodetypes="ccccc" />
	<path
   id="XMLID_208_"
   class="st5"
   d="m 290.47972,212.79413 10.03,94.8 c 1.3,12.3 15.35,12.51 16.88,0.25 l 11.83,-95.04 z"
   inkscape:connector-curvature="0"
   style="fill:#ffffff;stroke:#000000;stroke-width:7;stroke-linecap:round;stroke-linejoin:round;stroke-miterlimit:10"
   sodipodi:nodetypes="ccccc" />
	
	<path
   style="color:#000000;font-style:normal;font-variant:normal;font-weight:normal;font-stretch:normal;font-size:medium;line-height:normal;font-family:sans-serif;font-variant-ligatures:normal;font-variant-position:normal;font-variant-caps:normal;font-variant-numeric:normal;font-variant-alternates:normal;font-feature-settings:normal;text-indent:0;text-align:start;text-decoration:none;text-decoration-line:none;text-decoration-style:solid;text-decoration-color:#000000;letter-spacing:normal;word-spacing:normal;text-transform:none;writing-mode:lr-tb;direction:ltr;text-orientation:mixed;dominant-baseline:auto;baseline-shift:baseline;text-anchor:start;white-space:normal;shape-padding:0;clip-rule:nonzero;display:inline;overflow:visible;visibility:visible;opacity:1;isolation:auto;mix-blend-mode:normal;color-interpolation:sRGB;color-interpolation-filters:linearRGB;solid-color:#000000;solid-opacity:1;vector-effect:none;fill:#070707;fill-opacity:1;fill-rule:nonzero;stroke:none;stroke-width:14;stroke-linecap:round;stroke-linejoin:round;stroke-miterlimit:10;stroke-dasharray:none;stroke-dashoffset:0;stroke-opacity:1;color-rendering:auto;image-rendering:auto;shape-rendering:auto;text-rendering:auto;enable-background:accumulate"
   d="m 298.75195,130.52344 a 7.0007,7.0007 0 0 0 -2.40039,13.66211 c 6.66804,2.23835 13.65151,5.29271 20.39258,9.4375 a 7.0007,7.0007 0 0 0 0.004,0.002 c 13.21935,8.11715 18.41035,15.8957 20.6289,21.26953 2.21856,5.37383 1.62305,7.64453 1.62305,7.64453 a 7.0007,7.0007 0 0 0 -0.0703,1.65039 c 0,0 0.37987,6.39018 -2.94336,12.60938 -3.32324,6.21919 -9.41101,12.58729 -27.48828,12.36133 -18.34088,-0.22926 -28.21561,-6.57207 -34.06836,-12.5918 -5.85275,-6.01973 -7.2793,-11.3457 -7.2793,-11.3457 a 7.0007,7.0007 0 0 0 -13.48047,0 c 0,0 -1.42654,5.32597 -7.2793,11.3457 -5.85275,6.01973 -15.72748,12.36254 -34.06835,12.5918 -18.07728,0.22596 -24.16505,-6.14214 -27.48829,-12.36133 -3.32323,-6.2192 -2.94336,-12.60938 -2.94336,-12.60938 a 7.0007,7.0007 0 0 0 -0.0703,-1.65039 c 0,0 -0.5955,-2.2707 1.62305,-7.64453 2.21855,-5.37383 7.40955,-13.15238 20.62891,-21.26953 a 7.0007,7.0007 0 0 0 0.004,-0.002 c 6.20626,-3.81639 12.63954,-6.70696 18.85938,-8.88672 a 7.0007,7.0007 0 1 0 -4.63086,-13.21289 c -7.02016,2.46023 -14.36681,5.75021 -21.56055,10.17383 -15.27796,9.38217 -22.83604,19.60306 -26.24219,27.85351 C 167.09551,177.80195 168,184.78125 168,184.78125 l -0.0703,-1.65039 c 0,0 -0.87013,10.10982 4.55664,20.26562 5.42676,10.15581 18.08899,20.03771 40.01172,19.76368 21.65912,-0.27074 35.78439,-8.45235 43.93164,-16.83204 1.58621,-1.63146 2.79462,-3.25699 3.98047,-4.86132 1.18585,1.60433 2.39425,3.22986 3.98046,4.86132 8.14725,8.37969 22.27252,16.5613 43.93165,16.83204 21.92272,0.27403 34.58495,-9.60787 40.01171,-19.76368 5.42677,-10.1558 4.55664,-20.26562 4.55664,-20.26562 l -0.0703,1.65039 c 0,0 0.9045,-6.9793 -2.50195,-15.23047 -3.40615,-8.25045 -10.96423,-18.47134 -26.24219,-27.85351 l -0.004,-0.002 c -7.7977,-4.79399 -15.75295,-8.26002 -23.26368,-10.78125 a 7.0007,7.0007 0 0 0 -2.05664,-0.39062 z"
   id="XMLID_206_"
   inkscape:connector-curvature="0" />
	<path
   style="color:#000000;font-style:normal;font-variant:normal;font-weight:normal;font-stretch:normal;font-size:medium;line-height:normal;font-family:sans-serif;font-variant-ligatures:normal;font-variant-position:normal;font-variant-caps:normal;font-variant-numeric:normal;font-variant-alternates:normal;font-feature-settings:normal;text-indent:0;text-align:start;text-decoration:none;text-decoration-line:none;text-decoration-style:solid;text-decoration-color:#000000;letter-spacing:normal;word-spacing:normal;text-transform:none;writing-mode:lr-tb;direction:ltr;text-orientation:mixed;dominant-baseline:auto;baseline-shift:baseline;text-anchor:start;white-space:normal;shape-padding:0;clip-rule:nonzero;display:inline;overflow:visible;visibility:visible;opacity:1;isolation:auto;mix-blend-mode:normal;color-interpolation:sRGB;color-interpolation-filters:linearRGB;solid-color:#000000;solid-opacity:1;vector-effect:none;fill:#070707;fill-opacity:1;fill-rule:nonzero;stroke:none;stroke-width:14;stroke-linecap:round;stroke-linejoin:round;stroke-miterlimit:10;stroke-dasharray:none;stroke-dashoffset:0;stroke-opacity:1;color-rendering:auto;image-rendering:auto;shape-rendering:auto;text-rendering:auto;enable-background:accumulate"
   d="m 260.00586,126.70703 a 7.0007,7.0007 0 0 0 -2.09961,0.42578 l -10.21094,3.77149 a 7.0007,7.0007 0 0 0 -2.52539,11.51562 l 10.21094,10.20899 a 7.0007,7.0007 0 0 0 9.89844,0 l 10.21093,-10.20899 a 7.0007,7.0007 0 0 0 -2.52539,-11.51562 l -10.21093,-3.77149 a 7.0007,7.0007 0 0 0 -2.74805,-0.42578 z"
   id="XMLID_205_"
   inkscape:connector-curvature="0" />
	
	
	<path
   style="color:#000000;font-style:normal;font-variant:normal;font-weight:normal;font-stretch:normal;font-size:medium;line-height:normal;font-family:sans-serif;font-variant-ligatures:normal;font-variant-position:normal;font-variant-caps:normal;font-variant-numeric:normal;font-variant-alternates:normal;font-feature-settings:normal;text-indent:0;text-align:start;text-decoration:none;text-decoration-line:none;text-decoration-style:solid;text-decoration-color:#000000;letter-spacing:normal;word-spacing:normal;text-transform:none;writing-mode:lr-tb;direction:ltr;text-orientation:mixed;dominant-baseline:auto;baseline-shift:baseline;text-anchor:start;white-space:normal;shape-padding:0;clip-rule:nonzero;display:inline;overflow:visible;visibility:visible;opacity:1;isolation:auto;mix-blend-mode:normal;color-interpolation:sRGB;color-interpolation-filters:linearRGB;solid-color:#000000;solid-opacity:1;vector-effect:none;fill-opacity:1;fill-rule:nonzero;stroke:none;stroke-width:1;stroke-linecap:butt;stroke-linejoin:miter;stroke-miterlimit:4;stroke-dasharray:none;stroke-dashoffset:0;stroke-opacity:1;color-rendering:auto;image-rendering:auto;shape-rendering:auto;text-rendering:auto;enable-background:accumulate"
   d="m 189.08008,185.41016 c -1.97126,0 -3.58008,1.60882 -3.58008,3.58007 0,1.97126 1.60882,3.58008 3.58008,3.58008 1.97126,0 3.58008,-1.60882 3.58008,-3.58008 0,-1.97125 -1.60882,-3.58007 -3.58008,-3.58007 z m 0,1 c 1.43082,0 2.58008,1.14926 2.58008,2.58007 0,1.43082 -1.14926,2.58008 -2.58008,2.58008 -1.43082,0 -2.58008,-1.14926 -2.58008,-2.58008 0,-1.43081 1.14926,-2.58007 2.58008,-2.58007 z"
   id="XMLID_202_"
   inkscape:connector-curvature="0" />
	<path
   style="color:#000000;font-style:normal;font-variant:normal;font-weight:normal;font-stretch:normal;font-size:medium;line-height:normal;font-family:sans-serif;font-variant-ligatures:normal;font-variant-position:normal;font-variant-caps:normal;font-variant-numeric:normal;font-variant-alternates:normal;font-feature-settings:normal;text-indent:0;text-align:start;text-decoration:none;text-decoration-line:none;text-decoration-style:solid;text-decoration-color:#000000;letter-spacing:normal;word-spacing:normal;text-transform:none;writing-mode:lr-tb;direction:ltr;text-orientation:mixed;dominant-baseline:auto;baseline-shift:baseline;text-anchor:start;white-space:normal;shape-padding:0;clip-rule:nonzero;display:inline;overflow:visible;visibility:visible;opacity:1;isolation:auto;mix-blend-mode:normal;color-interpolation:sRGB;color-interpolation-filters:linearRGB;solid-color:#000000;solid-opacity:1;vector-effect:none;fill-opacity:1;fill-rule:nonzero;stroke:none;stroke-width:1;stroke-linecap:butt;stroke-linejoin:miter;stroke-miterlimit:4;stroke-dasharray:none;stroke-dashoffset:0;stroke-opacity:1;color-rendering:auto;image-rendering:auto;shape-rendering:auto;text-rendering:auto;enable-background:accumulate"
   d="m 200.53906,180.32031 c -1.97125,0 -3.57812,1.60882 -3.57812,3.58008 0,1.97126 1.60687,3.58008 3.57812,3.58008 1.97126,0 3.58008,-1.60882 3.58008,-3.58008 0,-1.97126 -1.60882,-3.58008 -3.58008,-3.58008 z m 0,1 c 1.43082,0 2.58008,1.14926 2.58008,2.58008 0,1.43082 -1.14926,2.58008 -2.58008,2.58008 -1.43081,0 -2.57812,-1.14926 -2.57812,-2.58008 0,-1.43082 1.14731,-2.58008 2.57812,-2.58008 z"
   id="XMLID_201_"
   inkscape:connector-curvature="0" />
	<path
   style="color:#000000;font-style:normal;font-variant:normal;font-weight:normal;font-stretch:normal;font-size:medium;line-height:normal;font-family:sans-serif;font-variant-ligatures:normal;font-variant-position:normal;font-variant-caps:normal;font-variant-numeric:normal;font-variant-alternates:normal;font-feature-settings:normal;text-indent:0;text-align:start;text-decoration:none;text-decoration-line:none;text-decoration-style:solid;text-decoration-color:#000000;letter-spacing:normal;word-spacing:normal;text-transform:none;writing-mode:lr-tb;direction:ltr;text-orientation:mixed;dominant-baseline:auto;baseline-shift:baseline;text-anchor:start;white-space:normal;shape-padding:0;clip-rule:nonzero;display:inline;overflow:visible;visibility:visible;opacity:1;isolation:auto;mix-blend-mode:normal;color-interpolation:sRGB;color-interpolation-filters:linearRGB;solid-color:#000000;solid-opacity:1;vector-effect:none;fill-opacity:1;fill-rule:nonzero;stroke:none;stroke-width:1;stroke-linecap:butt;stroke-linejoin:miter;stroke-miterlimit:4;stroke-dasharray:none;stroke-dashoffset:0;stroke-opacity:1;color-rendering:auto;image-rendering:auto;shape-rendering:auto;text-rendering:auto;enable-background:accumulate"
   d="m 197.99023,194.33008 c -1.97125,0 -3.58007,1.60882 -3.58007,3.58008 0,1.97125 1.60882,3.58007 3.58007,3.58007 1.97126,0 3.58008,-1.60882 3.58008,-3.58007 0,-1.97126 -1.60882,-3.58008 -3.58008,-3.58008 z m 0,1 c 1.43082,0 2.58008,1.14926 2.58008,2.58008 0,1.43081 -1.14926,2.58007 -2.58008,2.58007 -1.43081,0 -2.58007,-1.14926 -2.58007,-2.58007 0,-1.43082 1.14926,-2.58008 2.58007,-2.58008 z"
   id="XMLID_200_"
   inkscape:connector-curvature="0" />
	<path
   style="color:#000000;font-style:normal;font-variant:normal;font-weight:normal;font-stretch:normal;font-size:medium;line-height:normal;font-family:sans-serif;font-variant-ligatures:normal;font-variant-position:normal;font-variant-caps:normal;font-variant-numeric:normal;font-variant-alternates:normal;font-feature-settings:normal;text-indent:0;text-align:start;text-decoration:none;text-decoration-line:none;text-decoration-style:solid;text-decoration-color:#000000;letter-spacing:normal;word-spacing:normal;text-transform:none;writing-mode:lr-tb;direction:ltr;text-orientation:mixed;dominant-baseline:auto;baseline-shift:baseline;text-anchor:start;white-space:normal;shape-padding:0;clip-rule:nonzero;display:inline;overflow:visible;visibility:visible;opacity:1;isolation:auto;mix-blend-mode:normal;color-interpolation:sRGB;color-interpolation-filters:linearRGB;solid-color:#000000;solid-opacity:1;vector-effect:none;fill-opacity:1;fill-rule:nonzero;stroke:none;stroke-width:1;stroke-linecap:butt;stroke-linejoin:miter;stroke-miterlimit:4;stroke-dasharray:none;stroke-dashoffset:0;stroke-opacity:1;color-rendering:auto;image-rendering:auto;shape-rendering:auto;text-rendering:auto;enable-background:accumulate"
   d="m 331.08008,181.36914 c -1.97126,0 -3.58008,1.60882 -3.58008,3.58008 0,1.97126 1.60882,3.58008 3.58008,3.58008 1.97126,0 3.58008,-1.60882 3.58008,-3.58008 0,-1.97126 -1.60882,-3.58008 -3.58008,-3.58008 z m 0,1 c 1.43082,0 2.58008,1.14926 2.58008,2.58008 0,1.43082 -1.14926,2.58008 -2.58008,2.58008 -1.43082,0 -2.58008,-1.14926 -2.58008,-2.58008 0,-1.43082 1.14926,-2.58008 2.58008,-2.58008 z"
   id="XMLID_199_"
   inkscape:connector-curvature="0" />
	<path
   style="color:#000000;font-style:normal;font-variant:normal;font-weight:normal;font-stretch:normal;font-size:medium;line-height:normal;font-family:sans-serif;font-variant-ligatures:normal;font-variant-position:normal;font-variant-caps:normal;font-variant-numeric:normal;font-variant-alternates:normal;font-feature-settings:normal;text-indent:0;text-align:start;text-decoration:none;text-decoration-line:none;text-decoration-style:solid;text-decoration-color:#000000;letter-spacing:normal;word-spacing:normal;text-transform:none;writing-mode:lr-tb;direction:ltr;text-orientation:mixed;dominant-baseline:auto;baseline-shift:baseline;text-anchor:start;white-space:normal;shape-padding:0;clip-rule:nonzero;display:inline;overflow:visible;visibility:visible;opacity:1;isolation:auto;mix-blend-mode:normal;color-interpolation:sRGB;color-interpolation-filters:linearRGB;solid-color:#000000;solid-opacity:1;vector-effect:none;fill-opacity:1;fill-rule:nonzero;stroke:none;stroke-width:1;stroke-linecap:butt;stroke-linejoin:miter;stroke-miterlimit:4;stroke-dasharray:none;stroke-dashoffset:0;stroke-opacity:1;color-rendering:auto;image-rendering:auto;shape-rendering:auto;text-rendering:auto;enable-background:accumulate"
   d="m 327.13086,193.2793 c -1.97126,0 -3.58008,1.60882 -3.58008,3.58008 0,1.97125 1.60882,3.58007 3.58008,3.58007 1.97126,0 3.58008,-1.60882 3.58008,-3.58007 0,-1.97126 -1.60882,-3.58008 -3.58008,-3.58008 z m 0,1 c 1.43082,0 2.58008,1.14926 2.58008,2.58008 0,1.43081 -1.14926,2.58007 -2.58008,2.58007 -1.43082,0 -2.58008,-1.14926 -2.58008,-2.58007 0,-1.43082 1.14926,-2.58008 2.58008,-2.58008 z"
   id="XMLID_198_"
   inkscape:connector-curvature="0" />
	<path
   style="color:#000000;font-style:normal;font-variant:normal;font-weight:normal;font-stretch:normal;font-size:medium;line-height:normal;font-family:sans-serif;font-variant-ligatures:normal;font-variant-position:normal;font-variant-caps:normal;font-variant-numeric:normal;font-variant-alternates:normal;font-feature-settings:normal;text-indent:0;text-align:start;text-decoration:none;text-decoration-line:none;text-decoration-style:solid;text-decoration-color:#000000;letter-spacing:normal;word-spacing:normal;text-transform:none;writing-mode:lr-tb;direction:ltr;text-orientation:mixed;dominant-baseline:auto;baseline-shift:baseline;text-anchor:start;white-space:normal;shape-padding:0;clip-rule:nonzero;display:inline;overflow:visible;visibility:visible;opacity:1;isolation:auto;mix-blend-mode:normal;color-interpolation:sRGB;color-interpolation-filters:linearRGB;solid-color:#000000;solid-opacity:1;vector-effect:none;fill-opacity:1;fill-rule:nonzero;stroke:none;stroke-width:1;stroke-linecap:butt;stroke-linejoin:miter;stroke-miterlimit:4;stroke-dasharray:none;stroke-dashoffset:0;stroke-opacity:1;color-rendering:auto;image-rendering:auto;shape-rendering:auto;text-rendering:auto;enable-background:accumulate"
   d="m 318.49023,181.96094 c -1.97125,0 -3.58007,1.60687 -3.58007,3.57812 0,1.97126 1.60882,3.58008 3.58007,3.58008 1.97126,0 3.58008,-1.60882 3.58008,-3.58008 0,-1.97125 -1.60882,-3.57812 -3.58008,-3.57812 z m 0,1 c 1.43082,0 2.58008,1.14731 2.58008,2.57812 0,1.43082 -1.14926,2.58008 -2.58008,2.58008 -1.43081,0 -2.58007,-1.14926 -2.58007,-2.58008 0,-1.43081 1.14926,-2.57812 2.58007,-2.57812 z"
   id="XMLID_197_"
   inkscape:connector-curvature="0" />
	<path
   style="color:#000000;font-style:normal;font-variant:normal;font-weight:normal;font-stretch:normal;font-size:medium;line-height:normal;font-family:sans-serif;font-variant-ligatures:normal;font-variant-position:normal;font-variant-caps:normal;font-variant-numeric:normal;font-variant-alternates:normal;font-feature-settings:normal;text-indent:0;text-align:start;text-decoration:none;text-decoration-line:none;text-decoration-style:solid;text-decoration-color:#000000;letter-spacing:normal;word-spacing:normal;text-transform:none;writing-mode:lr-tb;direction:ltr;text-orientation:mixed;dominant-baseline:auto;baseline-shift:baseline;text-anchor:start;white-space:normal;shape-padding:0;clip-rule:nonzero;display:inline;overflow:visible;visibility:visible;opacity:1;isolation:auto;mix-blend-mode:normal;color-interpolation:sRGB;color-interpolation-filters:linearRGB;solid-color:#000000;solid-opacity:1;vector-effect:none;fill-opacity:1;fill-rule:nonzero;stroke:none;stroke-width:1;stroke-linecap:butt;stroke-linejoin:miter;stroke-miterlimit:4;stroke-dasharray:none;stroke-dashoffset:0;stroke-opacity:1;color-rendering:auto;image-rendering:auto;shape-rendering:auto;text-rendering:auto;enable-background:accumulate"
   d="m 314.49023,193.96094 c -1.97125,0 -3.58007,1.60687 -3.58007,3.57812 0,1.97126 1.60882,3.58008 3.58007,3.58008 1.97126,0 3.58008,-1.60882 3.58008,-3.58008 0,-1.97125 -1.60882,-3.57812 -3.58008,-3.57812 z m 0,1 c 1.43082,0 2.58008,1.14731 2.58008,2.57812 0,1.43082 -1.14926,2.58008 -2.58008,2.58008 -1.43081,0 -2.58007,-1.14926 -2.58007,-2.58008 0,-1.43081 1.14926,-2.57812 2.58007,-2.57812 z"
   id="XMLID_196_"
   inkscape:connector-curvature="0" />
	<path
   style="color:#000000;font-style:normal;font-variant:normal;font-weight:normal;font-stretch:normal;font-size:medium;line-height:normal;font-family:sans-serif;font-variant-ligatures:normal;font-variant-position:normal;font-variant-caps:normal;font-variant-numeric:normal;font-variant-alternates:normal;font-feature-settings:normal;text-indent:0;text-align:start;text-decoration:none;text-decoration-line:none;text-decoration-style:solid;text-decoration-color:#000000;letter-spacing:normal;word-spacing:normal;text-transform:none;writing-mode:lr-tb;direction:ltr;text-orientation:mixed;dominant-baseline:auto;baseline-shift:baseline;text-anchor:start;white-space:normal;shape-padding:0;clip-rule:nonzero;display:inline;overflow:visible;visibility:visible;opacity:1;isolation:auto;mix-blend-mode:normal;color-interpolation:sRGB;color-interpolation-filters:linearRGB;solid-color:#000000;solid-opacity:1;vector-effect:none;fill-opacity:1;fill-rule:nonzero;stroke:none;stroke-width:1;stroke-linecap:butt;stroke-linejoin:miter;stroke-miterlimit:4;stroke-dasharray:none;stroke-dashoffset:0;stroke-opacity:1;color-rendering:auto;image-rendering:auto;shape-rendering:auto;text-rendering:auto;enable-background:accumulate"
   d="m 209.49023,188.96094 c -1.97125,0 -3.58007,1.60687 -3.58007,3.57812 0,1.97126 1.60882,3.58008 3.58007,3.58008 1.97126,0 3.58008,-1.60882 3.58008,-3.58008 0,-1.97125 -1.60882,-3.57812 -3.58008,-3.57812 z m 0,1 c 1.43082,0 2.58008,1.14731 2.58008,2.57812 0,1.43082 -1.14926,2.58008 -2.58008,2.58008 -1.43081,0 -2.58007,-1.14926 -2.58007,-2.58008 0,-1.43081 1.14926,-2.57812 2.58007,-2.57812 z"
   id="XMLID_195_"
   inkscape:connector-curvature="0" />
	
	
	
	
	
	
	<polygon
   id="XMLID_188_"
   class="st8"
   points="458,400.65 458,440.15 449.13,448.65 51,445.65 51,431.01 341.36,409.23 345.35,375.15 357,375.15 353.86,409.19 "
   style="opacity:0.05" />
	<path
   id="XMLID_187_"
   class="st1"
   d="m 341.33,367.23 c 0,0 1.87,66.73 -25.4,63.57 -27.27,-3.16 -27.27,-63.57 -27.27,-63.57 0,0 -1.31,-33.6 26.35,-32.02 27.66,1.58 26.32,32.02 26.32,32.02 z"
   inkscape:connector-curvature="0"
   style="fill:#c4a6ff;stroke:#070707;stroke-width:14;stroke-linecap:round;stroke-linejoin:round;stroke-miterlimit:10" />
	<path
   id="XMLID_186_"
   class="st9"
   d="m 313.57,427.62 c 0,0 -6.82,-18.43 -5.32,-46.46"
   inkscape:connector-curvature="0"
   style="fill:none;stroke:#070707;stroke-width:3;stroke-linecap:round;stroke-linejoin:round;stroke-miterlimit:10" />
	<path
   id="XMLID_185_"
   class="st9"
   d="m 318.25,427.62 c 0,0 6.09,-14.31 3.5,-46.46"
   inkscape:connector-curvature="0"
   style="fill:none;stroke:#070707;stroke-width:3;stroke-linecap:round;stroke-linejoin:round;stroke-miterlimit:10" />
	
	<polygon
   id="XMLID_183_"
   class="st10"
   points="54.71,425.15 54.46,402.05 224.51,378.15 244,378.15 "
   style="fill:#ffffff" />
	<polygon
   id="XMLID_182_"
   class="st10"
   points="54.65,392.12 54.71,396.82 226.67,373.15 199,373.15 "
   style="fill:#ffffff" />
	<path
   id="XMLID_181_"
   class="st1"
   d="m 214.51,344 c -2.64,0.33 -5.3,0.54 -7.97,0.55 -8.25,0.04 -24.44,-0.43 -33.83,-4.38 -13,-5.47 -41.68,6.06 -36,29.31 1.83,7.5 108.05,15.14 109.5,1 2.91,-28.46 -22.99,-27.57 -31.7,-26.48 z"
   inkscape:connector-curvature="0"
   style="fill:#c4a6ff;stroke:#070707;stroke-width:14;stroke-linecap:round;stroke-linejoin:round;stroke-miterlimit:10" />
	<path
   id="XMLID_180_"
   class="st9"
   d="m 240.5,368.15 c 0,0 -5.63,-10 -13.13,-12.5 -4.69,-1.56 -10.37,-1.22 -13.97,-0.74 -2.87,0.38 -5.77,0.57 -8.66,0.49 l -7.41,0.08"
   inkscape:connector-curvature="0"
   style="fill:none;stroke:#070707;stroke-width:3;stroke-linecap:round;stroke-linejoin:round;stroke-miterlimit:10" />
	
	
	
	
	
	
	
	
	
	
	
	
	
	
	
	
<path
   style="color:#000000;font-style:normal;font-variant:normal;font-weight:normal;font-stretch:normal;font-size:medium;line-height:normal;font-family:sans-serif;font-variant-ligatures:normal;font-variant-position:normal;font-variant-caps:normal;font-variant-numeric:normal;font-variant-alternates:normal;font-feature-settings:normal;text-indent:0;text-align:start;text-decoration:none;text-decoration-line:none;text-decoration-style:solid;text-decoration-color:#000000;letter-spacing:normal;word-spacing:normal;text-transform:none;writing-mode:lr-tb;direction:ltr;text-orientation:mixed;dominant-baseline:auto;baseline-shift:baseline;text-anchor:start;white-space:normal;shape-padding:0;clip-rule:nonzero;display:inline;overflow:visible;visibility:visible;opacity:1;isolation:auto;mix-blend-mode:normal;color-interpolation:sRGB;color-interpolation-filters:linearRGB;solid-color:#000000;solid-opacity:1;vector-effect:none;fill:#070707;fill-opacity:1;fill-rule:nonzero;stroke:none;stroke-width:8;stroke-linecap:butt;stroke-linejoin:miter;stroke-miterlimit:10;stroke-dasharray:none;stroke-dashoffset:0;stroke-opacity:1;color-rendering:auto;image-rendering:auto;shape-rendering:auto;text-rendering:auto;enable-background:accumulate"
   d="m 221.65858,85.759671 c -1.81593,0 -3.6204,0.369494 -5.29883,1.107422 l -0.0117,0.0059 -0.36133,0.16211 c -6.72237,2.940143 -9.76046,10.952528 -6.67578,17.607417 v 0.002 c 4.17437,8.98733 13.33372,15.125 23.86914,15.125 10.8723,0 20.22894,-6.57223 24.1875,-16.01368 2.72891,-6.508739 -0.48848,-13.908981 -6.74806,-16.794997 -1.74478,-0.812158 -3.63947,-1.215578 -5.54102,-1.201172 z m 0,8 h 23.4668 0.0137 c 0.73435,-0.0056 1.45728,0.150764 2.10938,0.455078 l 0.01,0.0039 0.01,0.0039 c 2.49902,1.149892 3.71477,3.995432 2.73828,6.394531 a 9.1199999,8.2799997 0 0 0 -7.77734,-3.966799 9.1199999,8.2799997 0 0 0 -9.11915,8.279299 9.1199999,8.2799997 0 0 0 3.50586,6.51367 c -1.11071,0.20663 -2.25621,0.32618 -3.43554,0.32618 -7.44359,0 -13.72519,-4.28086 -16.61133,-10.49219 -1.23533,-2.665119 -0.0746,-5.732259 2.62305,-6.912113 l 0.0156,-0.0078 0.37695,-0.167968 c 0.63919,-0.280536 1.35176,-0.429688 2.07374,-0.429688 z"
   id="XMLID_291_-3"
   inkscape:connector-curvature="0" /></g>
</svg>