<?xml version="1.0" encoding="UTF-8" standalone="no"?>
<!-- Creator: CorelDRAW X6 -->

<svg
   xmlns:dc="http://purl.org/dc/elements/1.1/"
   xmlns:cc="http://creativecommons.org/ns#"
   xmlns:rdf="http://www.w3.org/1999/02/22-rdf-syntax-ns#"
   xmlns:svg="http://www.w3.org/2000/svg"
   xmlns="http://www.w3.org/2000/svg"
   xmlns:sodipodi="http://sodipodi.sourceforge.net/DTD/sodipodi-0.dtd"
   xmlns:inkscape="http://www.inkscape.org/namespaces/inkscape"
   xml:space="preserve"
   width="39.285622mm"
   height="38.838791mm"
   version="1.1"
   style="clip-rule:evenodd;fill-rule:evenodd;image-rendering:optimizeQuality;shape-rendering:geometricPrecision;text-rendering:geometricPrecision"
   viewBox="0 0 3928.6345 3883.9506"
   id="svg72"
   sodipodi:docname="coin_no_w.svg"
   inkscape:version="0.92.5 (2060ec1f9f, 2020-04-08)"
   inkscape:export-filename="/fast/bitcoin/wally/android/media/coin_no_w.png"
   inkscape:export-xdpi="150.00046"
   inkscape:export-ydpi="150.00046"><metadata
   id="metadata76"><rdf:RDF><cc:Work
       rdf:about=""><dc:format>image/svg+xml</dc:format><dc:type
         rdf:resource="http://purl.org/dc/dcmitype/StillImage" /><dc:title></dc:title></cc:Work></rdf:RDF></metadata><sodipodi:namedview
   pagecolor="#ffffff"
   bordercolor="#666666"
   borderopacity="1"
   objecttolerance="10"
   gridtolerance="10"
   guidetolerance="10"
   inkscape:pageopacity="0"
   inkscape:pageshadow="2"
   inkscape:window-width="1677"
   inkscape:window-height="1359"
   id="namedview74"
   showgrid="false"
   inkscape:zoom="5.7617363"
   inkscape:cx="73.723952"
   inkscape:cy="66.588855"
   inkscape:window-x="7731"
   inkscape:window-y="493"
   inkscape:window-maximized="0"
   inkscape:current-layer="Слой_x0020_1"
   fit-margin-top="0"
   fit-margin-left="0"
   fit-margin-right="0"
   fit-margin-bottom="0" />
 <defs
   id="defs46">
  <style
   type="text/css"
   id="style2">
   <![CDATA[
    .str0 {stroke:#FEFEFE;stroke-width:7.05}
    .fil6 {fill:#FEFEFE}
    .fil10 {fill:#F6E1C2}
    .fil0 {fill:#FCFCFC}
    .fil7 {fill:url(#id0)}
    .fil2 {fill:url(#id1)}
    .fil8 {fill:url(#id2)}
    .fil9 {fill:url(#id3)}
    .fil3 {fill:url(#id4)}
    .fil5 {fill:url(#id5)}
    .fil4 {fill:url(#id6)}
    .fil1 {fill:url(#id7)}
   ]]>
  </style>
  <linearGradient
   id="id0"
   gradientUnits="userSpaceOnUse"
   x1="910.20001"
   y1="2761.03"
   x2="2400.3201"
   y2="2761.03">
   <stop
   offset="0"
   style="stop-color:#764B28"
   id="stop4" />
   <stop
   offset="1"
   style="stop-color:#C9AA7C"
   id="stop6" />
  </linearGradient>
  <linearGradient
   id="id1"
   gradientUnits="userSpaceOnUse"
   x1="1665.34"
   y1="2969.6599"
   x2="2943.8799"
   y2="2969.6599">
   <stop
   offset="0"
   style="stop-color:#7D522F"
   id="stop9" />
   <stop
   offset="1"
   style="stop-color:#DBBB80"
   id="stop11" />
  </linearGradient>
  <linearGradient
   id="id2"
   gradientUnits="userSpaceOnUse"
   x1="547.03003"
   y1="2533.01"
   x2="1447.54"
   y2="2533.01">
   <stop
   offset="0"
   style="stop-color:#845529"
   id="stop14" />
   <stop
   offset="1"
   style="stop-color:#E8CFA6"
   id="stop16" />
  </linearGradient>
  <linearGradient
   id="id3"
   gradientUnits="userSpaceOnUse"
   x1="184.88"
   y1="2024.91"
   x2="2446.8999"
   y2="2024.91">
   <stop
   offset="0"
   style="stop-color:#CAAB75"
   id="stop19" />
   <stop
   offset="1"
   style="stop-color:#8F592B"
   id="stop21" />
  </linearGradient>
  <linearGradient
   id="id4"
   gradientUnits="userSpaceOnUse"
   x1="1386.01"
   y1="1541.72"
   x2="2925.76"
   y2="1541.72">
   <stop
   offset="0"
   style="stop-color:#F5EABC"
   id="stop24" />
   <stop
   offset="1"
   style="stop-color:#A3723A"
   id="stop26" />
  </linearGradient>
  <linearGradient
   id="id5"
   gradientUnits="userSpaceOnUse"
   x1="4169.8198"
   y1="3321.52"
   x2="3007.9099"
   y2="883.92999">
   <stop
   offset="0"
   style="stop-color:#D9C391"
   id="stop29" />
   <stop
   offset="1"
   style="stop-color:#C09664"
   id="stop31" />
  </linearGradient>
  <linearGradient
   id="id6"
   gradientUnits="userSpaceOnUse"
   x1="5667.3501"
   y1="2102.9299"
   x2="201.19"
   y2="908.40002">
   <stop
   offset="0"
   style="stop-color:#764F2E"
   id="stop34" />
   <stop
   offset="1"
   style="stop-color:#FFF6CE"
   id="stop36" />
  </linearGradient>
  <linearGradient
   id="id7"
   gradientUnits="userSpaceOnUse"
   x1="2004.35"
   y1="4387.2598"
   x2="2282.25"
   y2="-38.02">
   <stop
   offset="0"
   style="stop-color:#9B6C42"
   id="stop39" />
   <stop
   offset="0.478431"
   style="stop-color:#CCB28C"
   id="stop41" />
   <stop
   offset="1"
   style="stop-color:#FEF8D6"
   id="stop43" />
  </linearGradient>
 </defs>
 <g
   id="Слой_x0020_1"
   transform="translate(-179.18285,-233.02252)">
  <metadata
   id="CorelCorpID_0Corel-Layer" />
  
  
  
  
  
  
  
  
  
  
  
 <g
   id="g913"><path
     style="fill:url(#id7)"
     inkscape:connector-curvature="0"
     id="path51"
     d="M 183,2052 C 250,981 1182,169 2265,237 3348,305 4171,1227 4104,2298 4036,3368 3104,4181 2022,4113 939,4045 116,3122 183,2052 Z"
     class="fil1" /><path
     style="fill:url(#id1)"
     inkscape:connector-curvature="0"
     id="path53"
     d="m 1665,3263 385,-1201 670,1128 c 27,311 165,406 224,452 -311,235 -1068,20 -1279,-379 z"
     class="fil2" /><path
     sodipodi:nodetypes="ccsscc"
     style="fill:url(#id6)"
     inkscape:connector-curvature="0"
     id="path57"
     d="m 2458,279 c 125,13 572.5922,60.22352 861.5922,389.22352 C 3767.5922,1420.2235 3459.108,2805.0505 2888,2732 2379.5422,2666.9631 2788.2352,2191.0868 2788.2352,2191.0868 2809.0416,2096.0074 2745,825 2106,587 2346,537 2417,455 2458,279 Z"
     class="fil4" /><path
     sodipodi:nodetypes="zcccsz"
     style="fill:url(#id5)"
     inkscape:connector-curvature="0"
     id="path59"
     d="m 2888,2732 c 182.0164,-285.8712 796,-751 521,-1865 87,52 167,194 255,251 116,-1 165,161 247,242 515,1304 -1326.032,2341.2568 -1159,1807 0,0 -46.0164,-149.1288 136,-435 z"
     class="fil5" /><path
     style="fill:url(#id0)"
     inkscape:connector-curvature="0"
     id="path63"
     d="m 1213,2091 c 178,-465 1075,-749 837,-29 l -385,1201 c 99,187 294,310 532,404 33,54 53,146 99,161 l 104,232 C 1676,4180 1038,3942 943,3045 c -33,-310 13,-669 270,-954 z"
     class="fil7" /><path
     style="fill:url(#id2)"
     inkscape:connector-curvature="0"
     id="path65"
     d="m 702,2668 c 183,-685 441,-932 746,-875 -387,424 -525,941 -451,1537 -102,-218 -210,-419 -447,-197 -1,0 -2,-1 -3,-2 81,-94 132,-243 155,-463 z"
     class="fil8" /><path
     sodipodi:nodetypes="cccccccccc"
     style="fill:url(#id3)"
     inkscape:connector-curvature="0"
     id="path67"
     d="m 575,1608 c 180,-171 372,-298 570,-396 593,-295 1302,38 1191,553 l -386,-129 c -121,-34 -343,20 -510,162 l -310,63 c -265,227 -379,599 -428,807 -22,161 -63,318 -152,465 -88,-57 -176,-138 -263,-476 -102,-403 4,-749 288,-1049 z"
     class="fil9" /><path
     sodipodi:nodetypes="ccsccc"
     style="fill:url(#id4)"
     inkscape:connector-curvature="0"
     id="path55"
     d="m 1464,584 c 561,-245 1296.447,97.09005 1434.447,785.09 0,0 88.2673,1201.6113 -328,1205 C 2289.6654,2576.3759 2336,1765 2336,1765 c 52.8549,-423.1843 -321,-743 -950,-646 275,-62 349,-326 78,-535 z"
     class="fil3" /></g></g>
</svg>