<?xml version="1.0" encoding="UTF-8" standalone="no"?>
<!-- Generator: Adobe Illustrator 12.0.1, SVG Export Plug-In . SVG Version: 6.00 Build 51448)  -->

<svg
   xmlns:dc="http://purl.org/dc/elements/1.1/"
   xmlns:cc="http://creativecommons.org/ns#"
   xmlns:rdf="http://www.w3.org/1999/02/22-rdf-syntax-ns#"
   xmlns:svg="http://www.w3.org/2000/svg"
   xmlns="http://www.w3.org/2000/svg"
   xmlns:sodipodi="http://sodipodi.sourceforge.net/DTD/sodipodi-0.dtd"
   xmlns:inkscape="http://www.inkscape.org/namespaces/inkscape"
   enable-background="new 0 0 298.392 254.325"
   height="128.00002"
   id="Layer_1"
   overflow="visible"
   space="preserve"
   version="1.0"
   viewBox="0 0 36.293773 43.74929"
   width="128.00006"
   sodipodi:version="0.32"
   inkscape:version="0.92.3 (2405546, 2018-03-11)"
   sodipodi:docname="faucet_drip.svg"
   inkscape:output_extension="org.inkscape.output.svg.inkscape"
   inkscape:export-filename="C:\Documents and Settings\jan.helebrant\Plocha\symboly-monras\kohoutek.png"
   inkscape:export-xdpi="88"
   inkscape:export-ydpi="88"
   style="overflow:visible">
  <title
     id="title9032">faucet icon</title>
  <defs
     id="defs160" />
  <sodipodi:namedview
     inkscape:window-height="2082"
     inkscape:window-width="3840"
     inkscape:pageshadow="2"
     inkscape:pageopacity="0.0"
     guidetolerance="10.0"
     gridtolerance="10.0"
     objecttolerance="10.0"
     borderopacity="1.0"
     bordercolor="#666666"
     pagecolor="#ffffff"
     id="base"
     showgrid="false"
     inkscape:zoom="7.2191095"
     inkscape:cx="150.42427"
     inkscape:cy="40.263496"
     inkscape:window-x="1680"
     inkscape:window-y="26"
     inkscape:current-layer="Layer_1"
     showguides="true"
     inkscape:guide-bbox="true"
     fit-margin-top="0"
     fit-margin-left="0"
     fit-margin-right="0"
     fit-margin-bottom="0"
     inkscape:window-maximized="1" />
  <metadata
     id="metadata3">
    <rdf:RDF>
      <cc:Work
         rdf:about="">
        <dc:title>faucet icon</dc:title>
        <dc:description />
        <dc:subject>
          <rdf:Bag>
            <rdf:li>tap</rdf:li>
            <rdf:li>faucet</rdf:li>
            <rdf:li>plumbing</rdf:li>
          </rdf:Bag>
        </dc:subject>
        <dc:publisher>
          <cc:Agent
             rdf:about="http://www.openclipart.org/">
            <dc:title />
          </cc:Agent>
        </dc:publisher>
        <dc:creator>
          <cc:Agent>
            <dc:title>Andrew Stone</dc:title>
          </cc:Agent>
        </dc:creator>
        <dc:rights>
          <cc:Agent>
            <dc:title />
          </cc:Agent>
        </dc:rights>
        <dc:date />
        <dc:format>image/svg+xml</dc:format>
        <dc:type
           rdf:resource="http://purl.org/dc/dcmitype/StillImage" />
        <cc:license
           rdf:resource="http://creativecommons.org/publicdomain/zero/1.0/" />
        <dc:language>en</dc:language>
        <dc:contributor>
          <cc:Agent>
            <dc:title>John Olsen</dc:title>
          </cc:Agent>
        </dc:contributor>
      </cc:Work>
      <cc:License
         rdf:about="http://creativecommons.org/publicdomain/zero/1.0/">
        <cc:permits
           rdf:resource="http://creativecommons.org/ns#Reproduction" />
        <cc:permits
           rdf:resource="http://creativecommons.org/ns#Distribution" />
        <cc:permits
           rdf:resource="http://creativecommons.org/ns#DerivativeWorks" />
      </cc:License>
    </rdf:RDF>
  </metadata>
  <g
     inkscape:groupmode="layer"
     id="layer2"
     inkscape:label="2"
     transform="translate(-63.074143,-217.33744)">
    <rect
       style="opacity:0.8;fill:#c8c8c8;fill-opacity:1;stroke:#404040;stroke-width:0.50280499;stroke-miterlimit:4;stroke-dasharray:none;stroke-dashoffset:0;stroke-opacity:1"
       id="rect3377"
       width="2.7442875"
       height="1.7284113"
       x="70.135185"
       y="233.35693"
       rx="1.3721437"
       ry="0"
       inkscape:label="r1" />
    <g
       id="g3171"
       transform="matrix(0.9395262,0,0,0.9395262,12.963577,4.0065059)"
       inkscape:label="g1">
      <path
         style="opacity:0.8;fill:#c8c8c8;fill-opacity:1;fill-rule:evenodd;stroke:#404040;stroke-width:0.58517373;stroke-linecap:butt;stroke-linejoin:miter;stroke-miterlimit:4;stroke-dasharray:none;stroke-opacity:1"
         d="m 91.335379,265.43731 c -1.496715,2.96742 -2.065043,7.9628 0.422988,7.895 5.357808,0.11359 3.202331,-3.59896 1.550944,-4.82788 -1.943669,-1.44641 -1.973932,-3.06712 -1.973932,-3.06712 z"
         id="path9036"
         inkscape:connector-curvature="0"
         sodipodi:nodetypes="ccsc"
         inkscape:label="p1" />
      <path
         sodipodi:nodetypes="cccccsscccccccccsscccccssssssssssscc"
         id="path3381"
         d="m 57.576503,244.86478 c 0.790027,0.0489 1.145704,0.85993 1.89622,1.11226 0.725476,0.19169 1.469951,0.12552 2.205801,0.0719 0.246212,-0.1204 1.638413,-1.08278 1.716009,-1.22861 0.622818,-0.47994 1.464845,-1.67898 1.457256,-2.35932 l 0.210478,-0.72131 c 0.05431,-0.18612 -0.844031,-0.8004 -0.979596,-0.94665 -0.164945,-0.17798 0.216233,-1.8929 -0.101223,-1.8599 0,0 -0.537099,0.0139 -1.067528,-0.21887 -0.130679,-0.36719 -0.196071,-1.91576 0.314146,-1.82838 0.860296,0.0483 1.399403,0.14529 2.377436,-0.16452 0.592777,0 2.630731,-1.74621 3.219074,-1.74621 l 5.20721,0.0253 c 0.332834,0 0.970457,0.81396 1.130729,0.96258 0.767836,0.86771 1.792925,1.06773 3.193183,1.49283 0.358184,0.0403 1.600686,-0.16238 1.709364,0.0712 0.246277,0.76046 0.162691,1.52956 0.0962,1.82036 -0.08914,0.38989 -0.923963,-0.007 -0.968267,0.49904 -0.03596,0.40993 -0.01265,1.14472 -0.134403,1.65193 -0.739574,0.70622 -1.635608,1.15074 -1.327995,1.43624 l -0.07595,0.17847 c 0.09501,0.73439 0.340859,1.55422 0.628561,2.0259 0.807545,1.65078 3.390985,2.19992 3.390985,2.19992 4.476015,0.19565 8.350654,1.59632 11.156503,4.23555 0.351648,0.33078 1.157748,0.94365 2.051011,3.48032 0.863158,2.45113 1.338974,7.85719 1.049582,7.96716 -2.462707,0.93583 -5.752676,0.98187 -8.064487,0.25295 -0.494366,-0.15587 -0.281493,-3.00254 -0.604984,-4.43768 -0.331759,-1.47181 -1.381593,-4.02166 -4.816895,-4.58778 -1.431477,-0.23588 -6.060278,0.51267 -9.306946,1.14812 -1.545956,0.30259 -3.637906,0.4915 -4.740551,0.28705 -0.681394,-0.12635 -4.863135,-0.96803 -5.633452,-1.14657 -0.510943,-0.11845 -2.652139,-0.69561 -4.373229,0.42128 -1.096238,0.7114 -5.92657,0.71148 -6.267905,0.69906 -2.71983,-0.0989 -2.880249,-10.56418 0.106959,-10.94821 z"
         style="overflow:visible;opacity:0.8;fill:#c8c8c8;fill-opacity:1;fill-rule:evenodd;stroke:#404040;stroke-width:0.58517373;stroke-linecap:butt;stroke-linejoin:miter;stroke-miterlimit:4;stroke-dasharray:none;stroke-opacity:1"
         inkscape:connector-curvature="0"
         inkscape:label="p3" />
    </g>
  </g>
</svg>
