<?xml version="1.0" encoding="UTF-8" standalone="no"?>
<!-- Generator: Adobe Illustrator 12.0.1, SVG Export Plug-In . SVG Version: 6.00 Build 51448)  -->

<svg
   xmlns:dc="http://purl.org/dc/elements/1.1/"
   xmlns:cc="http://creativecommons.org/ns#"
   xmlns:rdf="http://www.w3.org/1999/02/22-rdf-syntax-ns#"
   xmlns:svg="http://www.w3.org/2000/svg"
   xmlns="http://www.w3.org/2000/svg"
   xmlns:sodipodi="http://sodipodi.sourceforge.net/DTD/sodipodi-0.dtd"
   xmlns:inkscape="http://www.inkscape.org/namespaces/inkscape"
   enable-background="new 0 0 298.392 254.325"
   height="127.99998"
   id="Layer_1"
   overflow="visible"
   space="preserve"
   version="1.0"
   viewBox="0 0 32.861185 43.749277"
   width="115.89409"
   sodipodi:version="0.32"
   inkscape:version="0.92.3 (2405546, 2018-03-11)"
   sodipodi:docname="faucet_drip_plain.svg"
   inkscape:output_extension="org.inkscape.output.svg.inkscape"
   inkscape:export-filename="C:\Documents and Settings\jan.helebrant\Plocha\symboly-monras\kohoutek.png"
   inkscape:export-xdpi="88"
   inkscape:export-ydpi="88"
   style="overflow:visible">
  <title
     id="title9032">faucet icon</title>
  <defs
     id="defs160" />
  <sodipodi:namedview
     inkscape:window-height="2082"
     inkscape:window-width="3840"
     inkscape:pageshadow="2"
     inkscape:pageopacity="0.0"
     guidetolerance="10.0"
     gridtolerance="10.0"
     objecttolerance="10.0"
     borderopacity="1.0"
     bordercolor="#666666"
     pagecolor="#ffffff"
     id="base"
     showgrid="false"
     inkscape:zoom="7.2191095"
     inkscape:cx="150.42704"
     inkscape:cy="40.263442"
     inkscape:window-x="1680"
     inkscape:window-y="26"
     inkscape:current-layer="g3171"
     showguides="true"
     inkscape:guide-bbox="true"
     fit-margin-top="0"
     fit-margin-left="0"
     fit-margin-right="0"
     fit-margin-bottom="0"
     inkscape:window-maximized="1" />
  <metadata
     id="metadata3">
    <rdf:RDF>
      <cc:Work
         rdf:about="">
        <dc:title>faucet icon</dc:title>
        <dc:description />
        <dc:subject>
          <rdf:Bag>
            <rdf:li>tap</rdf:li>
            <rdf:li>faucet</rdf:li>
            <rdf:li>plumbing</rdf:li>
          </rdf:Bag>
        </dc:subject>
        <dc:publisher>
          <cc:Agent
             rdf:about="http://www.openclipart.org/">
            <dc:title />
          </cc:Agent>
        </dc:publisher>
        <dc:creator>
          <cc:Agent>
            <dc:title>Andrew Stone</dc:title>
          </cc:Agent>
        </dc:creator>
        <dc:rights>
          <cc:Agent>
            <dc:title />
          </cc:Agent>
        </dc:rights>
        <dc:date />
        <dc:format>image/svg+xml</dc:format>
        <dc:type
           rdf:resource="http://purl.org/dc/dcmitype/StillImage" />
        <cc:license
           rdf:resource="http://creativecommons.org/publicdomain/zero/1.0/" />
        <dc:language>en</dc:language>
        <dc:contributor>
          <cc:Agent>
            <dc:title>John Olsen</dc:title>
          </cc:Agent>
        </dc:contributor>
      </cc:Work>
      <cc:License
         rdf:about="http://creativecommons.org/publicdomain/zero/1.0/">
        <cc:permits
           rdf:resource="http://creativecommons.org/ns#Reproduction" />
        <cc:permits
           rdf:resource="http://creativecommons.org/ns#Distribution" />
        <cc:permits
           rdf:resource="http://creativecommons.org/ns#DerivativeWorks" />
      </cc:License>
    </rdf:RDF>
  </metadata>
  <g
     inkscape:groupmode="layer"
     id="layer2"
     inkscape:label="2"
     transform="translate(-63.073197,-217.33744)">
    <g
       id="g3171"
       transform="matrix(0.9395262,0,0,0.9395262,12.963577,4.0065059)"
       inkscape:label="g1">
      <rect
         style="opacity:0.8;fill:#c8c8c8;fill-opacity:1;stroke:#404040;stroke-width:0.47843;stroke-miterlimit:4;stroke-dasharray:none;stroke-dashoffset:0;stroke-opacity:1"
         id="rect3377"
         width="2.4831293"
         height="1.7294778"
         x="68.20829"
         y="233.34645"
         rx="1.2415646"
         ry="0"
         inkscape:label="r1" />
      <g
         style="opacity:0.8;fill:#c8c8c8;fill-opacity:1;stroke:#404040;stroke-width:2.73433018;stroke-miterlimit:4;stroke-dasharray:none;stroke-opacity:1"
         transform="matrix(0.20883572,0,0,0.21569025,35.576122,216.41695)"
         id="g3379" />
      <path
         style="opacity:0.8;fill:#c8c8c8;fill-opacity:1;fill-rule:evenodd;stroke:#404040;stroke-width:0.55680567;stroke-linecap:butt;stroke-linejoin:miter;stroke-miterlimit:4;stroke-dasharray:none;stroke-opacity:1"
         d="m 69.561259,227.34072 c -0.801327,-0.009 -2.086805,1.18744 -3.633599,2.33605 -2.040813,1.30597 -4.46893,0.38394 -6.542262,-0.31562 -1.967686,-0.80664 -5.106829,-0.13696 -5.373443,2.40515 0.05322,1.48113 0.457741,0.95879 2.20073,1.05354 2.928889,-0.40955 5.94553,-1.75822 8.895515,-0.77176 1.177776,0.53699 1.389687,1.36966 1.487787,1.35001 h 5.779408 c 0.09809,0.0197 0.310012,-0.81302 1.487791,-1.35001 2.949982,-0.98646 5.966622,0.36221 8.895512,0.77176 1.74299,-0.0947 2.387865,0.42759 2.441088,-1.05354 -0.266615,-2.54211 -3.407989,-3.21179 -5.375676,-2.40515 -2.073332,0.69956 -4.501448,1.62159 -6.542261,0.31562 -1.574672,-1.16932 -2.878111,-2.3881 -3.675978,-2.33375 -0.01443,-9.9e-4 -0.02984,-0.002 -0.04461,-0.002 z"
         id="path3395"
         sodipodi:nodetypes="ccccccccccccccc"
         inkscape:connector-curvature="0"
         inkscape:label="p2" />
      <path
         style="opacity:0.8;fill:#c8c8c8;fill-opacity:1;fill-rule:evenodd;stroke:#404040;stroke-width:0.55680567;stroke-linecap:butt;stroke-linejoin:miter;stroke-miterlimit:4;stroke-dasharray:none;stroke-opacity:1"
         d="m 87.390981,265.44662 c -1.354281,2.96925 -1.868525,7.96772 0.382734,7.89988 4.847936,0.11366 2.897584,-3.60119 1.40335,-4.83086 -1.758701,-1.44731 -1.786084,-3.06902 -1.786084,-3.06902 z"
         id="path9036"
         inkscape:connector-curvature="0"
         sodipodi:nodetypes="ccsc"
         inkscape:label="p1" />
      <path
         sodipodi:nodetypes="cccccsscccccccccsscccccssssssssssscc"
         id="path3381"
         d="m 56.844745,244.8614 c 0.714844,0.0489 1.036674,0.86046 1.715767,1.11295 0.656437,0.1918 1.330064,0.12559 1.995888,0.0719 0.222781,-0.12047 1.482494,-1.08345 1.552706,-1.22937 0.563548,-0.48023 1.325444,-1.68001 1.318577,-2.36077 l 0.190448,-0.72176 c 0.04914,-0.18623 -0.763709,-0.80089 -0.886373,-0.94723 -0.149248,-0.17809 0.195655,-1.89407 -0.09159,-1.86105 0,0 -0.485987,0.0139 -0.965938,-0.21901 -0.118243,-0.36741 -0.177412,-1.91694 0.284251,-1.8295 0.778426,0.0483 1.266229,0.14538 2.151189,-0.16463 0.536365,0 2.380379,-1.74728 2.912733,-1.74728 l 4.711669,0.0253 c 0.30116,0 0.878104,0.81447 1.023124,0.96318 0.694766,0.86824 1.622303,1.06839 2.889306,1.49375 0.324098,0.0403 1.448358,-0.16248 1.546694,0.0712 0.22284,0.76093 0.147208,1.53051 0.08704,1.82149 -0.08066,0.39013 -0.836034,-0.007 -0.876122,0.49934 -0.03254,0.41019 -0.01145,1.14543 -0.121613,1.65295 -0.669193,0.70666 -1.479956,1.15145 -1.201617,1.43713 l -0.06872,0.17858 c 0.08597,0.73484 0.308422,1.55518 0.568745,2.02715 0.730695,1.6518 3.068284,2.20128 3.068284,2.20128 4.050058,0.19577 7.55597,1.5973 10.094802,4.23816 0.318184,0.33098 1.047572,0.94423 1.855828,3.48247 0.781016,2.45264 1.211552,7.86204 0.949699,7.97207 -2.228345,0.93641 -5.205226,0.98248 -7.297035,0.25311 -0.44732,-0.15597 -0.254705,-3.00439 -0.547411,-4.44042 -0.300188,-1.47272 -1.250115,-4.02414 -4.358499,-4.59061 -1.295251,-0.23603 -5.483556,0.51299 -8.421257,1.14883 -1.398836,0.30278 -3.291707,0.4918 -4.28942,0.28723 -0.616549,-0.12643 -4.400338,-0.96863 -5.097348,-1.14728 -0.46232,-0.11852 -2.39975,-0.69604 -3.957054,0.42154 -0.991915,0.71184 -5.362572,0.71192 -5.671424,0.69949 -2.460999,-0.099 -2.606152,-10.5707 0.09678,-10.95497 z"
         style="overflow:visible;opacity:0.8;fill:#c8c8c8;fill-opacity:1;fill-rule:evenodd;stroke:#404040;stroke-width:0.55680567;stroke-linecap:butt;stroke-linejoin:miter;stroke-miterlimit:4;stroke-dasharray:none;stroke-opacity:1"
         inkscape:connector-curvature="0"
         inkscape:label="p3" />
    </g>
  </g>
</svg>
