<?xml version="1.0" encoding="UTF-8" standalone="no"?>
<!--part of the rodentia icon theme by sixsixfive released under CC0 (https://creativecommons.org/publicdomain/zero/1.0/) on openclipart-->

<svg
   xmlns:dc="http://purl.org/dc/elements/1.1/"
   xmlns:cc="http://creativecommons.org/ns#"
   xmlns:rdf="http://www.w3.org/1999/02/22-rdf-syntax-ns#"
   xmlns:svg="http://www.w3.org/2000/svg"
   xmlns="http://www.w3.org/2000/svg"
   xmlns:sodipodi="http://sodipodi.sourceforge.net/DTD/sodipodi-0.dtd"
   xmlns:inkscape="http://www.inkscape.org/namespaces/inkscape"
   viewBox="0 0 41.464378 41.464378"
   version="1.1"
   id="svg42"
   sodipodi:docname="gear.svg"
   width="41.464378"
   height="41.464378"
   inkscape:version="0.92.3 (2405546, 2018-03-11)">
  <metadata
     id="metadata46">
    <rdf:RDF>
      <cc:Work
         rdf:about="">
        <dc:format>image/svg+xml</dc:format>
        <dc:type
           rdf:resource="http://purl.org/dc/dcmitype/StillImage" />
        <dc:title />
      </cc:Work>
    </rdf:RDF>
  </metadata>
  <sodipodi:namedview
     pagecolor="#ffffff"
     bordercolor="#666666"
     borderopacity="1"
     objecttolerance="10"
     gridtolerance="10"
     guidetolerance="10"
     inkscape:pageopacity="0"
     inkscape:pageshadow="2"
     inkscape:window-width="1076"
     inkscape:window-height="992"
     id="namedview44"
     showgrid="false"
     fit-margin-top="0"
     fit-margin-left="0"
     fit-margin-right="0"
     fit-margin-bottom="0"
     inkscape:zoom="6.6146147"
     inkscape:cx="23.006685"
     inkscape:cy="-8.5563683"
     inkscape:window-x="6122"
     inkscape:window-y="29"
     inkscape:window-maximized="0"
     inkscape:current-layer="svg42" />
  <defs
     id="0" />
  <path
     d="M 10.361092,2.7201329 C 9.6101885,3.0246003 9.2547445,3.8940426 9.5644165,4.6577816 L 10.655167,7.3478842 C 9.4575485,8.2500328 8.3937195,9.3105728 7.4967005,10.469211 L 4.8072275,9.3315278 C 4.4277192,9.1709898 4.0462662,9.1591348 3.6956322,9.2978568 3.3449982,9.4365798 3.0402434,9.7065598 2.8824046,10.07969 l -2.22590217,5.262012 c -0.3156783,0.74626 0.044611,1.581259 0.80362787,1.902334 l 2.6894731,1.137683 C 3.9428645,19.832354 3.922695,21.334377 4.1093664,22.822098 L 1.4192637,23.91285 c -0.76373907,0.309671 -1.14012077,1.170256 -0.83565287,1.92116 l 2.13652207,5.269274 c 0.3044674,0.750902 1.1739098,1.106346 1.9376487,0.796674 l 2.6901029,-1.09075 c 0.902148,1.197618 1.962688,2.261447 3.1213265,3.158466 l -1.1376835,2.689474 c -0.321074,0.759016 0.0019,1.609144 0.7481625,1.924823 l 5.262013,2.225901 c 0.746259,0.315678 1.581257,-0.04461 1.902333,-0.803627 l 1.137684,-2.689474 c 1.450635,0.206739 2.952657,0.226909 4.440379,0.04024 l 1.090751,2.690103 c 0.309672,0.763739 1.170256,1.140121 1.92116,0.835653 l 5.269274,-2.136522 c 0.750903,-0.304467 1.106347,-1.17391 0.796675,-1.937649 l -1.09075,-2.690103 c 1.197618,-0.902148 2.261447,-1.962688 3.158466,-3.121326 l 2.689473,1.137683 c 0.759015,0.321074 1.609145,-0.0019 1.924823,-0.748162 l 2.225902,-5.262012 c 0.315678,-0.74626 -0.04461,-1.58126 -0.803627,-1.902334 l -2.689474,-1.137683 c 0.206739,-1.450636 0.226908,-2.952658 0.04024,-4.44038 l 2.690103,-1.090751 c 0.763739,-0.309672 1.140121,-1.170256 0.835653,-1.92116 L 38.744246,10.361094 C 38.439778,9.6101908 37.570336,9.2547478 36.806597,9.5644188 L 34.116494,10.65517 C 33.214343,9.4575478 32.153803,8.3937198 30.995165,7.4967008 L 32.132848,4.8072276 C 32.453922,4.0482119 32.130947,3.1980822 31.384686,2.8824047 L 26.122673,0.65650247 c -0.74626,-0.3156783 -1.58126,0.044612 -1.902333,0.80362793 L 23.082657,4.1496035 C 21.632021,3.9428646 20.129999,3.9226951 18.642277,4.1093664 L 17.551526,1.4192638 C 17.241854,0.65552457 16.38127,0.27914287 15.630366,0.58361077 Z M 18.393259,14.96372 c 3.184193,-1.29109 6.816308,0.245344 8.107397,3.429538 1.291089,3.184194 -0.245345,6.816308 -3.429539,8.107397 -3.184193,1.291089 -6.816308,-0.245344 -8.107397,-3.429539 -1.291089,-3.184193 0.245345,-6.816307 3.429539,-8.107396 z"
     id="2"
     display="block"
     inkscape:connector-curvature="0"
     style="display:block;fill:url(#G);stroke:url(#H);stroke-width:0.958;stroke-linejoin:round" />
  <path
     d="m 16.003876,1.5196795 -0.149631,0.059852 -5.147276,2.0648957 c -0.237518,0.096306 -0.335743,0.3170491 -0.209482,0.6284465 a 0.56107569,0.56107569 0 0 1 0,0.029926 0.56107569,0.56107569 0 0 1 0.02993,0.029926 v 0.059852 a 0.56107569,0.56107569 0 0 1 0.02993,0.059852 l 1.017485,2.5437121 a 0.56107569,0.56107569 0 0 1 0.02993,0 c 0.15802,0.4166344 -6.9e-4,0.9023759 -0.359112,1.167115 C 10.121989,9.009694 9.1585952,9.9737353 8.3128992,11.066081 8.0463516,11.447875 7.5445846,11.570647 7.1158582,11.395268 H 7.0859201 L 4.4225039,10.258079 c -0.1884118,-0.0797 -0.2388559,-0.0775 -0.3591123,-0.02993 -0.1197552,0.04738 -0.1784544,0.09531 -0.2394082,0.239408 a 0.56107569,0.56107569 0 0 1 -0.059852,0.119704 0.56107569,0.56107569 0 0 1 -0.089778,0.119704 l -2.1247478,5.027572 c -0.055247,0.130603 -0.040866,0.213471 0,0.299261 0.040866,0.08578 0.1269483,0.196444 0.2992603,0.269334 l 2.6933422,1.137189 c 0.4319455,0.173667 0.6744082,0.618014 0.5985205,1.077337 h 0.029926 c -0.1922463,1.348943 -0.2016483,2.769627 -0.029926,4.159717 0.00124,0.01 -0.00125,0.01993 0,0.02993 0.049787,0.452008 -0.2335369,0.888235 -0.6583725,1.047411 -0.013782,0.0052 -0.015821,0.02535 -0.029926,0.02993 l -2.6634162,1.047411 c -0.2935316,0.119017 -0.3765685,0.334051 -0.2693342,0.59852 a 0.56107569,0.56107569 0 0 1 0,0.02993 0.56107569,0.56107569 0 0 1 0.029926,0.02993 v 0.02993 a 0.56107569,0.56107569 0 0 1 0.029926,0.05985 v 0.02993 l 2.0648958,5.147276 c 0.096306,0.237519 0.3170488,0.335744 0.6284465,0.209482 a 0.56107569,0.56107569 0 0 1 0.029926,0 0.56107569,0.56107569 0 0 1 0.029926,-0.02993 H 4.392578 A 0.56107569,0.56107569 0 0 1 4.45243,30.907045 L 6.9961422,29.88956 a 0.56107569,0.56107569 0 0 1 0,-0.02993 c 0.4166344,-0.15802 0.9023754,6.9e-4 1.1671149,0.359112 0.8464363,1.123662 1.8104786,2.087055 2.9028239,2.932751 0.381794,0.266547 0.504566,0.768314 0.329187,1.197041 v 0.02993 l -1.137189,2.663416 c -0.136556,0.322816 -0.07469,0.478312 0.209482,0.598521 a 0.56107569,0.56107569 0 0 1 0.119704,0.05985 0.56107569,0.56107569 0 0 1 0.119704,0.08978 l 5.027572,2.124748 c 0.1306,0.05524 0.21347,0.04087 0.299261,0 0.08579,-0.04087 0.196444,-0.12695 0.269334,-0.299261 l 1.137189,-2.693342 c 0.173666,-0.431946 0.618016,-0.674407 1.077337,-0.59852 v -0.02993 c 1.348942,0.192246 2.769627,0.201648 4.159717,0.02993 0.01,-0.0012 0.01993,0.0012 0.02993,0 0.452008,-0.04979 0.888235,0.233537 1.047411,0.658372 0.0029,0.0078 -0.0027,0.02207 0,0.02993 0.0021,0.0061 0.02793,-0.0061 0.02993,0 l 1.047411,2.663416 c 0.119016,0.293532 0.334051,0.376568 0.59852,0.269335 a 0.56107569,0.56107569 0 0 1 0.02993,0 0.56107569,0.56107569 0 0 1 0.02993,-0.02993 h 0.05985 a 0.56107569,0.56107569 0 0 1 0.05985,-0.02993 l 5.147276,-2.064896 c 0.23752,-0.09631 0.335744,-0.317048 0.209482,-0.628447 a 0.56107569,0.56107569 0 0 1 0,-0.02993 l -0.02993,-0.02993 a 0.56107569,0.56107569 0 0 1 -0.02993,-0.119704 L 29.889554,34.46823 a 0.56107569,0.56107569 0 0 1 -0.02993,0 c -0.15802,-0.416634 6.9e-4,-0.902375 0.359112,-1.167115 1.123661,-0.846433 2.087054,-1.810477 2.932751,-2.902824 0.266547,-0.381794 0.768314,-0.504566 1.197041,-0.329187 h 0.02993 l 2.663416,1.137189 c 0.322817,0.136556 0.478313,0.07469 0.598521,-0.209482 a 0.56107569,0.56107569 0 0 1 0.05985,-0.119704 0.56107569,0.56107569 0 0 1 0.02993,-0.02993 l 0.02993,-0.02993 a 0.56107569,0.56107569 0 0 1 0.02993,-0.05985 l 2.124748,-5.027572 c 0.05524,-0.130601 0.04087,-0.21347 0,-0.299261 -0.04087,-0.08579 -0.12695,-0.196444 -0.299261,-0.269334 l -2.693355,-1.13718 c -0.431946,-0.173666 -0.674407,-0.618016 -0.59852,-1.077337 h -0.02993 c 0.192246,-1.348942 0.201648,-2.769627 0.02993,-4.159717 -0.0014,-0.0099 0.0011,-0.02003 0,-0.02993 -0.04979,-0.452008 0.233537,-0.888235 0.658372,-1.047411 h 0.02993 v -0.02993 l 2.663416,-1.047411 c 0.293532,-0.119016 0.376568,-0.334051 0.269335,-0.59852 a 0.56107569,0.56107569 0 0 1 0,-0.02993 l -0.02993,-0.02993 a 0.56107569,0.56107569 0 0 1 0,-0.02993 v -0.02993 a 0.56107569,0.56107569 0 0 1 -0.02993,-0.05985 l -2.064896,-5.147276 c -0.09631,-0.237519 -0.317049,-0.335744 -0.628447,-0.209482 a 0.56107569,0.56107569 0 0 1 -0.02993,0 l -0.14963,0.05985 -2.543712,1.017485 a 0.56107569,0.56107569 0 0 1 0,0.02993 C 34.051599,11.76277 33.565858,11.60406 33.301118,11.245638 32.454684,10.121979 31.490639,9.1585833 30.398294,8.3128872 30.016501,8.0463397 29.893728,7.5445722 30.069107,7.1158462 V 7.0859202 L 31.206296,4.4225039 C 31.342851,4.0996886 31.280986,3.9441908 30.996814,3.8239834 A 0.56107569,0.56107569 0 0 1 30.87711,3.7641314 0.56107569,0.56107569 0 0 1 30.84718,3.7342054 L 30.81725,3.7042794 A 0.56107569,0.56107569 0 0 1 30.7574,3.6743534 L 25.729834,1.5496055 c -0.130602,-0.055247 -0.21347,-0.040866 -0.299261,0 -0.08579,0.040866 -0.196445,0.1269505 -0.269334,0.2992603 L 24.02405,4.542208 c -0.173666,0.4319456 -0.618014,0.6744082 -1.077337,0.5985205 v 0.029926 C 21.59777,4.9784082 20.177086,4.9690062 18.786996,5.1407285 c -0.0099,0.0014 -0.02003,-0.00109 -0.02993,0 C 18.305058,5.1905155 17.868831,4.9071916 17.709655,4.482356 17.704455,4.468574 17.684305,4.466535 17.679725,4.45243 L 16.632322,1.7890137 C 16.513305,1.4954821 16.298271,1.4124452 16.033802,1.5196795 a 0.56107569,0.56107569 0 0 1 -0.02993,0 z m 4.81809,11.9704105 c 2.818032,0.04265 5.491411,1.751066 6.613651,4.518829 1.495835,3.689156 -0.291788,7.931181 -3.980161,9.426698 -3.689156,1.495835 -7.931181,-0.291788 -9.426698,-3.980161 -1.495835,-3.689156 0.291788,-7.931181 3.980161,-9.426698 0.92743,-0.376042 1.880924,-0.552774 2.813047,-0.538668 z"
     id="3"
     display="block"
     inkscape:connector-curvature="0"
     style="display:block;opacity:0.8;fill:#cccccc;stroke:#404040;stroke-width:0.95763278;stroke-linejoin:round;fill-opacity:1;stroke-opacity:1" />
  <path
     d="M 15.874412,8.7515238 C 9.2682725,11.430102 6.0729456,18.983826 8.7515245,25.589964 11.430103,32.196102 18.983826,35.391429 25.589964,32.712851 32.196103,30.034272 35.39143,22.480548 32.712851,15.874411 30.034273,9.2682718 22.48055,6.0729457 15.874412,8.7515238 Z"
     id="4"
     inkscape:connector-curvature="0"
     style="fill:none;stroke:url(#F);stroke-width:0.958;fill-opacity:1" />
  <path
     d="m 15.794393,1.0109371 -5.26698,2.1247478 h -0.02993 C 9.9911884,3.3549225 9.767788,3.937415 9.9887446,4.482356 a 0.4389496,0.4389496 0 0 1 0,0.029926 l 1.0773364,2.6933423 a 0.4389496,0.4389496 0 0 1 -0.14963,0.5087424 C 9.7514997,8.5919079 8.7384448,9.6074114 7.8639968,10.736895 a 0.4389496,0.4389496 0 0 1 -0.5386685,0.14963 L 4.6319861,9.7493364 C 4.3436774,9.627378 4.0989937,9.6224472 3.8539094,9.7194104 3.6023887,9.8189209 3.4246429,9.9994538 3.315241,10.258079 a 0.4389496,0.4389496 0 0 1 -0.029926,0 l -2.2444519,5.26698 h 0.029926 c -0.22359356,0.528573 0.00947,1.050301 0.5685945,1.286819 l 2.6933422,1.137189 a 0.4389496,0.4389496 0 0 1 0.2693343,0.478817 C 4.4010909,19.838033 4.3902999,21.317987 4.572134,22.767157 A 0.4389496,0.4389496 0 0 1 4.2728738,23.245974 L 1.6094576,24.323311 H 1.5795315 C 1.045131,24.553256 0.80060757,25.121323 1.0109371,25.640056 a 0.4389496,0.4389496 0 0 1 0,0.02993 l 2.1247477,5.26698 v 0.02993 c 0.2192378,0.5063 0.8017299,0.729699 1.3466712,0.508743 a 0.4389496,0.4389496 0 0 1 0.029926,0 l 2.6933422,-1.077337 a 0.4389496,0.4389496 0 0 1 0.5087425,0.14963 c 0.8775402,1.164952 1.8930446,2.178006 3.0225283,3.052454 a 0.4389496,0.4389496 0 0 1 0.14963,0.538669 l -1.1371886,2.693342 c -0.2346335,0.554671 -0.021892,1.092278 0.5087426,1.316745 a 0.4389496,0.4389496 0 0 1 0,0.02993 l 5.26698,2.244452 v -0.02993 c 0.52857,0.223594 1.0503,-0.0095 1.286819,-0.568594 l 1.137189,-2.693343 a 0.4389496,0.4389496 0 0 1 0.478817,-0.269334 c 1.410149,0.20097 2.890103,0.21176 4.339273,0.02993 a 0.4389496,0.4389496 0 0 1 0.478817,0.29926 l 1.077337,2.663417 v 0.02993 c 0.229945,0.5344 0.798012,0.778924 1.316745,0.568594 a 0.4389496,0.4389496 0 0 1 0.02993,0 l 5.26698,-2.124748 c 0.0072,-0.003 0.0228,0.0031 0.02993,0 0.506301,-0.219238 0.729699,-0.80173 0.508743,-1.346671 a 0.4389496,0.4389496 0 0 1 0,-0.02993 l -1.077337,-2.693342 a 0.4389496,0.4389496 0 0 1 0.14963,-0.508743 c 1.164952,-0.877538 2.178005,-1.893043 3.052454,-3.022528 a 0.4389496,0.4389496 0 0 1 0.538669,-0.14963 l 2.693342,1.137189 c 0.554671,0.234632 1.092279,0.02189 1.316745,-0.508743 a 0.4389496,0.4389496 0 0 1 0.02993,0 l 2.244452,-5.26698 h -0.02993 c 0.223594,-0.528571 -0.0095,-1.050302 -0.568595,-1.286819 L 37.131657,23.51532 a 0.4389496,0.4389496 0 0 1 -0.269334,-0.478817 c 0.20097,-1.410149 0.21176,-2.890103 0.02993,-4.339273 a 0.4389496,0.4389496 0 0 1 0.29926,-0.478817 l 2.663417,-1.077336 c 0.0076,-0.0031 0.02244,0.0033 0.02993,0 0.5344,-0.229946 0.778924,-0.798013 0.568594,-1.316746 a 0.4389496,0.4389496 0 0 1 0,-0.02993 l -2.124748,-5.26698 v -0.02993 C 38.109452,9.9911875 37.52696,9.7677881 36.982019,9.9887446 a 0.4389496,0.4389496 0 0 1 -0.02993,0 l -2.693342,1.0773364 a 0.4389496,0.4389496 0 0 1 -0.508743,-0.14963 C 32.87247,9.7515006 31.856964,8.7384448 30.72748,7.8639968 A 0.4389496,0.4389496 0 0 1 30.57785,7.3253284 L 31.715039,4.6319861 C 31.949671,4.0773151 31.73693,3.539707 31.206296,3.315241 a 0.4389496,0.4389496 0 0 1 0,-0.029926 l -5.26698,-2.2444519 v 0.029926 c -0.528573,-0.22359333 -1.050303,0.00947 -1.286819,0.5685945 L 23.515308,4.3327259 A 0.4389496,0.4389496 0 0 1 23.036491,4.6020601 C 21.626342,4.4010909 20.146388,4.3902999 18.697218,4.5721341 A 0.4389496,0.4389496 0 0 1 18.218401,4.2728738 L 17.141065,1.6094576 V 1.5795316 C 16.911119,1.045131 16.343052,0.8006076 15.824319,1.0109371 a 0.4389496,0.4389496 0 0 1 -0.02993,0 z m 5.027573,13.0477469 c 2.597945,0.03931 5.069455,1.605993 6.104909,4.159717 1.380707,3.405218 -0.276802,7.32822 -3.680901,8.708474 -3.405218,1.380707 -7.32822,-0.276802 -8.708474,-3.680901 -1.380707,-3.405218 0.276802,-7.32822 3.680901,-8.708474 0.85278,-0.345774 1.740559,-0.491876 2.603565,-0.478816 z"
     id="6"
     display="block"
     inkscape:connector-curvature="0"
     style="display:block;fill:url(#E);stroke-width:0.95763278" />
</svg>
