<?xml version="1.0" encoding="UTF-8" standalone="no"?>
<svg
   xmlns:dc="http://purl.org/dc/elements/1.1/"
   xmlns:cc="http://creativecommons.org/ns#"
   xmlns:rdf="http://www.w3.org/1999/02/22-rdf-syntax-ns#"
   xmlns:svg="http://www.w3.org/2000/svg"
   xmlns="http://www.w3.org/2000/svg"
   xmlns:sodipodi="http://sodipodi.sourceforge.net/DTD/sodipodi-0.dtd"
   xmlns:inkscape="http://www.inkscape.org/namespaces/inkscape"
   height="128.99597"
   width="78.086731"
   version="1.1"
   viewBox="0 0 78.086733 128.99597"
   id="svg2"
   sodipodi:docname="help.svg"
   inkscape:version="0.92.3 (2405546, 2018-03-11)">
  <sodipodi:namedview
     pagecolor="#ffffff"
     bordercolor="#666666"
     borderopacity="1"
     objecttolerance="10"
     gridtolerance="10"
     guidetolerance="10"
     inkscape:pageopacity="0"
     inkscape:pageshadow="2"
     inkscape:window-width="3840"
     inkscape:window-height="2082"
     id="namedview2952"
     showgrid="false"
     inkscape:zoom="7.2926068"
     inkscape:cx="-11.601509"
     inkscape:cy="75.500962"
     inkscape:window-x="1680"
     inkscape:window-y="26"
     inkscape:window-maximized="1"
     inkscape:current-layer="svg2"
     fit-margin-top="0"
     fit-margin-left="0"
     fit-margin-right="0"
     fit-margin-bottom="0" />
  <defs
     id="defs2289" />
  <metadata
     id="metadata2284">
    <rdf:RDF>
      <cc:Work>
        <dc:format>image/svg+xml</dc:format>
        <dc:type
           rdf:resource="http://purl.org/dc/dcmitype/StillImage" />
        <cc:license
           rdf:resource="http://creativecommons.org/publicdomain/zero/1.0/" />
        <dc:publisher>
          <cc:Agent
             rdf:about="http://openclipart.org/">
            <dc:title />
          </cc:Agent>
        </dc:publisher>
        <dc:title></dc:title>
        <dc:date>Aug 7, 2020</dc:date>
        <dc:description />
        <dc:source />
        <dc:creator>
          <cc:Agent>
            <dc:title>Andrew Stone</dc:title>
          </cc:Agent>
        </dc:creator>
        <dc:subject>
          <rdf:Bag>
            <rdf:li>question mark</rdf:li>
            <rdf:li>help</rdf:li>
          </rdf:Bag>
        </dc:subject>
      </cc:Work>
      <cc:License
         rdf:about="http://creativecommons.org/publicdomain/zero/1.0/">
        <cc:permits
           rdf:resource="http://creativecommons.org/ns#Reproduction" />
        <cc:permits
           rdf:resource="http://creativecommons.org/ns#Distribution" />
        <cc:permits
           rdf:resource="http://creativecommons.org/ns#DerivativeWorks" />
      </cc:License>
    </rdf:RDF>
  </metadata>
  <g
     transform="translate(-25.723726,-0.05194491)"
     id="g875">
    <path
       d="m 55.552164,104.22571 c -4.361806,-0.0139 -10.013863,4.1051 -9.977156,8.46678 0.06792,8.0707 10.652515,15.48273 18.722472,15.35372 4.162037,-0.0665 9.416164,-4.06068 9.39796,-8.22321 -0.03488,-7.97526 -10.167981,-15.5718 -18.143276,-15.59729 z m 1.735857,-80.90967 c 1.347024,-4.407564 8.05931,-6.800697 12.555857,-5.789676 5.432793,1.221531 10.306626,7.26212 10.715858,12.815488 1.467455,19.913664 -32.970996,29.56462 -31.27431,51.090943 0,0 0.754161,6.999656 7.404759,13.153694 6.650599,6.154041 18.765501,9.324511 18.765501,9.324511 L 70.793431,87.574742 C 68.237449,78.618741 69.592008,69.325314 78.318685,60.262996 92.079983,45.662594 102.81046,41.145778 102.81046,29.566149 102.81046,13.11972 83.095082,1.1561954 66.8168,1.0529811 45.190309,0.91585592 26.723726,14.458267 26.723726,28.051744 c 0,14.131931 9.32869,22.446772 19.195238,22.533291 8.451267,0.07411 19.961985,-6.777803 19.665996,-13.599783 -0.310774,-7.162739 -9.854767,-8.57188 -8.296939,-13.669212 z"
       style="fill:#c8c8c8;fill-opacity:0.8;stroke:#404040;stroke-width:2;stroke-miterlimit:4;stroke-dasharray:none;stroke-opacity:0.8"
       id="path1462"
       inkscape:connector-curvature="0"
       sodipodi:nodetypes="aaaaaaaaszcscsssssa" />
  </g>
</svg>
