<?xml version="1.0" encoding="UTF-8" standalone="no"?>
<!-- Created with Inkscape (http://www.inkscape.org/) -->

<svg
   xmlns:dc="http://purl.org/dc/elements/1.1/"
   xmlns:cc="http://creativecommons.org/ns#"
   xmlns:rdf="http://www.w3.org/1999/02/22-rdf-syntax-ns#"
   xmlns:svg="http://www.w3.org/2000/svg"
   xmlns="http://www.w3.org/2000/svg"
   xmlns:sodipodi="http://sodipodi.sourceforge.net/DTD/sodipodi-0.dtd"
   xmlns:inkscape="http://www.inkscape.org/namespaces/inkscape"
   height="8in"
   width="8in"
   version="1.1"
   id="svg4207"
   inkscape:version="0.92.3 (2405546, 2018-03-11)"
   sodipodi:docname="justB.svg"
   inkscape:export-filename="/fast/bitcoin/media/wallycashright.png"
   inkscape:export-xdpi="708.93097"
   inkscape:export-ydpi="708.93097">
  <title
     id="title4851">Bitcoin Cash Token</title>
  <metadata
     id="metadata4219">
    <rdf:RDF>
      <cc:Work
         rdf:about="">
        <dc:format>image/svg+xml</dc:format>
        <dc:type
           rdf:resource="http://purl.org/dc/dcmitype/StillImage" />
        <dc:title>Bitcoin Cash Token</dc:title>
        <cc:license
           rdf:resource="http://creativecommons.org/publicdomain/zero/1.0/" />
        <dc:creator>
          <cc:Agent>
            <dc:title>Andrew Stone</dc:title>
          </cc:Agent>
        </dc:creator>
      </cc:Work>
      <cc:License
         rdf:about="http://creativecommons.org/publicdomain/zero/1.0/">
        <cc:permits
           rdf:resource="http://creativecommons.org/ns#Reproduction" />
        <cc:permits
           rdf:resource="http://creativecommons.org/ns#Distribution" />
        <cc:permits
           rdf:resource="http://creativecommons.org/ns#DerivativeWorks" />
      </cc:License>
    </rdf:RDF>
  </metadata>
  <defs
     id="defs4217">
    <marker
       style="overflow:visible"
       inkscape:stockid="InfiniteLineStart"
       id="InfiniteLineStart"
       refX="0"
       refY="0"
       orient="auto"
       inkscape:isstock="true">
      <g
         id="g4583"
         style="fill:#1fc71a;fill-opacity:1;stroke:#081a0e;stroke-opacity:0.481982"
         transform="translate(-13)">
        <circle
           id="circle4585"
           r="0.80000001"
           cy="0"
           cx="3"
           style="fill:#1fc71a;fill-opacity:1;stroke:#081a0e;stroke-opacity:0.481982" />
        <circle
           id="circle4587"
           r="0.80000001"
           cy="0"
           cx="6.5"
           style="fill:#1fc71a;fill-opacity:1;stroke:#081a0e;stroke-opacity:0.481982" />
        <circle
           id="circle4589"
           r="0.80000001"
           cy="0"
           cx="10"
           style="fill:#1fc71a;fill-opacity:1;stroke:#081a0e;stroke-opacity:0.481982" />
      </g>
    </marker>
    <marker
       inkscape:stockid="Arrow2Sstart"
       orient="auto"
       refY="0"
       refX="0"
       id="Arrow2Sstart"
       style="overflow:visible"
       inkscape:isstock="true">
      <path
         id="path4369"
         style="fill:#1fc71a;fill-opacity:1;fill-rule:evenodd;stroke:#081a0e;stroke-width:0.625;stroke-linejoin:round;stroke-opacity:0.481982"
         d="M 8.7185878,4.0337352 -2.2072895,0.01601326 8.7185884,-4.0017078 c -1.7454984,2.3720609 -1.7354408,5.6174519 -6e-7,8.035443 z"
         transform="matrix(0.3,0,0,0.3,-0.69,0)"
         inkscape:connector-curvature="0" />
    </marker>
    <marker
       inkscape:stockid="Arrow1Mstart"
       orient="auto"
       refY="0"
       refX="0"
       id="Arrow1Mstart"
       style="overflow:visible"
       inkscape:isstock="true">
      <path
         id="path4345"
         d="M 0,0 5,-5 -12.5,0 5,5 Z"
         style="fill:#394d1a;fill-opacity:1;fill-rule:evenodd;stroke:#081a0e;stroke-width:1.00000003pt;stroke-opacity:0.481982"
         transform="matrix(0.4,0,0,0.4,4,0)"
         inkscape:connector-curvature="0" />
    </marker>
  </defs>
  <sodipodi:namedview
     pagecolor="#ffffff"
     bordercolor="#666666"
     borderopacity="1"
     objecttolerance="10"
     gridtolerance="10"
     guidetolerance="10"
     inkscape:pageopacity="0"
     inkscape:pageshadow="2"
     inkscape:window-width="3840"
     inkscape:window-height="2082"
     id="namedview4215"
     showgrid="false"
     inkscape:zoom="1.2046697"
     inkscape:cx="717.93216"
     inkscape:cy="238.95173"
     inkscape:window-x="1680"
     inkscape:window-y="26"
     inkscape:window-maximized="1"
     inkscape:current-layer="layer2"
     fit-margin-top="0"
     fit-margin-left="0"
     fit-margin-right="0"
     fit-margin-bottom="0"
     units="in" />
  <g
     inkscape:groupmode="layer"
     id="layer1"
     inkscape:label="reeding"
     style="display:inline"
     transform="translate(97.487727,605.50179)" />
  <g
     inkscape:groupmode="layer"
     id="layer3"
     inkscape:label="coin"
     style="display:inline"
     transform="translate(97.487727,605.50179)" />
  <g
     inkscape:groupmode="layer"
     id="layer2"
     inkscape:label="face"
     style="display:inline"
     transform="translate(97.487727,605.50179)">
    <path
       style="fill:none;stroke:#081a0e;stroke-width:11.122859;stroke-opacity:0.97747749"
       inkscape:connector-curvature="0"
       id="path4213-0"
       d="m 246.66159,-464.78945 c -18.97333,-44.18675 -62.77914,-46.68432 -113.28709,-34.88757 l -20.30983,-63.26699 -38.043894,12.51678 19.775605,61.59913 c -10.001131,3.29077 -20.160482,6.85316 -30.251874,10.39895 l -19.898625,-62.00957 -38.0251491,12.50491 20.2887421,63.25394 c -8.182318,2.87932 -16.221675,5.69462 -24.1075015,8.29402 l -0.067476,-0.19449 -52.4795505,17.24006 13.212635,41.12699 c 0,0 27.9209484,-9.78236 27.6220523,-9.10507 15.4118637,-5.06363 23.3342537,2.3426 27.3015607,9.67728 l 23.139112,72.07365 c 1.065305,-0.34389 2.466883,-0.75537 4.107534,-1.05416 -1.266836,0.41864 -2.626265,0.85619 -4.017319,1.32699 l 32.40131,100.97284 c 0.899468,5.13161 0.561174,13.89644 -10.199326,17.45641 0.626959,0.2764 -27.658377,9.08844 -27.658377,9.08844 l 7.203735,48.47733 49.509917,-16.28545 c 9.217109,-3.0192 18.333429,-5.84268 27.251709,-8.71246 l 20.55587,63.98228 38.00638,-12.49305 -20.32389,-63.31087 c 10.50503,-3.21361 20.63037,-6.45099 30.48618,-9.70262 l 20.2126,63.02498 38.04389,-12.51678 -20.49141,-63.87789 c 62.76935,-24.75132 102.30092,-55.78579 88.34379,-118.41281 -11.22663,-50.43257 -40.98987,-64.79442 -80.13095,-61.67841 18.40844,-18.62405 25.76896,-43.19202 11.8301,-75.50676 z m -9.30851,154.32674 c 15.37062,47.81147 -67.26411,68.97618 -93.04039,77.48119 l -27.20435,-84.78303 c 25.79386,-8.47653 104.23797,-42.57485 120.24474,7.30184 z m -56.08967,-113.79322 c 13.95304,43.50896 -55.13672,60.61933 -76.61325,67.68469 l -24.679681,-76.89215 c 21.476531,-7.06537 86.722471,-36.16745 101.292931,9.20746 z" />
    <path
       style="display:inline;fill:none;stroke:#081a0e;stroke-width:4.87512875;stroke-opacity:0.97747749"
       inkscape:connector-curvature="0"
       id="path4213-0-9"
       d="m 571.37805,-497.27879 c -8.31596,-19.36697 -27.51598,-20.46165 -49.65353,-15.29115 l -8.90174,-27.72981 -16.67459,5.48608 8.66761,26.99878 c -4.38347,1.44234 -8.83629,3.00373 -13.25934,4.55785 l -8.72152,-27.17868 -16.66638,5.48087 8.89254,27.72409 c -3.58632,1.262 -7.10995,2.49594 -10.56629,3.63526 l -0.0295,-0.0852 -23.00169,7.55628 5.79108,18.02589 c 0,0 12.23769,-4.28759 12.10669,-3.99074 6.755,-2.21937 10.22737,1.02676 11.96623,4.24154 l 10.14185,31.58975 c 0.46693,-0.15074 1.08123,-0.33107 1.80033,-0.46204 -0.55526,0.1835 -1.15109,0.37527 -1.76078,0.58162 l 14.20142,44.25621 c 0.39423,2.24918 0.24598,6.0908 -4.47035,7.65112 0.27473,0.12114 -12.12261,3.98345 -12.12261,3.98345 l 3.15738,21.24752 21.70011,-7.13788 c 4.03984,-1.32331 8.03552,-2.56084 11.94438,-3.81866 l 9.0096,28.04332 16.65813,-5.47568 -8.90794,-27.74904 c 4.60434,-1.40853 9.04226,-2.82745 13.36206,-4.25264 l 8.85913,27.62373 16.67458,-5.48608 -8.98134,-27.99756 c 27.51167,-10.84846 44.83828,-24.45081 38.72089,-51.90012 -4.9206,-22.1045 -17.96578,-28.39928 -35.12122,-27.03355 8.06838,-8.16287 11.29448,-18.93098 5.18511,-33.09447 z m -4.07988,67.64113 c 6.7369,20.95568 -29.48175,30.23213 -40.77947,33.95987 l -11.92359,-37.16025 c 11.30538,-3.71526 45.68729,-18.66048 52.70306,3.20038 z m -24.58402,-49.87536 c 6.11559,19.0699 -24.16631,26.56934 -33.57946,29.66608 l -10.81705,-33.7017 c 9.41311,-3.09673 38.0103,-15.85212 44.39651,4.03562 z" />
    <path
       style="display:inline;fill:none;stroke:#081a0e;stroke-width:3.13839531;stroke-opacity:0.97747749"
       inkscape:connector-curvature="0"
       id="path4213-0-9-7"
       d="m 595.37234,-269.0522 c -5.35346,-12.46761 -17.71358,-13.17232 -31.96477,-9.84379 l -5.73056,-17.85123 -10.73438,3.5317 5.57984,17.38063 c -2.82188,0.92852 -5.68841,1.93367 -8.53578,2.93415 l -5.61453,-17.49645 -10.72911,3.52835 5.72465,17.84756 c -2.30872,0.81242 -4.57709,1.60678 -6.80212,2.34022 l -0.0194,-0.0549 -14.80748,4.86441 3.72805,11.60428 c 0,0 7.87809,-2.76016 7.79374,-2.56906 4.34859,-1.42873 6.58393,0.66098 7.70335,2.73052 l 6.52888,20.3361 c 0.30057,-0.097 0.69603,-0.21313 1.15898,-0.29744 -0.35745,0.11811 -0.74105,0.24157 -1.13353,0.37442 l 9.14226,28.49022 c 0.25372,1.44792 0.15837,3.92098 -2.87783,4.92545 0.1769,0.078 -7.80398,2.56438 -7.80398,2.56438 l 2.03258,13.67822 13.96958,-4.59506 c 2.60066,-0.85188 5.17292,-1.64855 7.68926,-2.45828 l 5.79999,18.05306 10.7238,-3.525 -5.73457,-17.86363 c 2.96409,-0.90674 5.82102,-1.82018 8.60192,-2.73766 l 5.70311,17.78295 10.73439,-3.5317 -5.7818,-18.0236 c 17.71081,-6.98377 28.86492,-15.74036 24.92682,-33.41104 -3.16768,-14.22991 -11.5656,-18.28222 -22.60951,-17.40301 5.19407,-5.2549 7.27089,-12.18694 3.33793,-21.30478 z m -2.62645,43.54441 c 4.33693,13.49035 -18.97905,19.46213 -26.25204,21.86188 l -7.67588,-23.92215 c 7.27791,-2.39171 29.41148,-12.0128 33.92792,2.06027 z m -15.8261,-32.10759 c 3.93694,12.27638 -15.55724,17.10419 -21.617,19.09774 l -6.96355,-21.69568 c 6.05976,-1.99355 24.46936,-10.20491 28.58055,2.59794 z" />
    <path
       style="display:inline;fill:none;stroke:#081a0e;stroke-width:2.42791343;stroke-opacity:0.97747749"
       inkscape:connector-curvature="0"
       id="path4213-0-9-2"
       d="m 439.90962,-241.22741 c -4.14153,-9.64514 -13.70354,-10.19032 -24.72848,-7.61531 l -4.43326,-13.81 -8.30427,2.73217 4.31664,13.44595 c -2.18304,0.71831 -4.40064,1.49591 -6.60342,2.2699 l -4.34348,-13.53554 -8.30019,2.72959 4.42867,13.80716 c -1.78607,0.62851 -3.54091,1.24303 -5.26222,1.81043 l -0.0138,-0.0425 -11.45531,3.76319 2.88407,8.97725 c 0,0 6.09462,-2.1353 6.02939,-1.98747 3.3641,-1.10529 5.09343,0.51135 5.95941,2.11237 l 5.05084,15.73235 c 0.23244,-0.0751 0.53849,-0.1649 0.8966,-0.23011 -0.27652,0.0914 -0.57325,0.18688 -0.87689,0.28965 l 7.07258,22.0405 c 0.19623,1.12014 0.12244,3.03334 -2.22632,3.81041 0.1368,0.0603 -6.0373,1.98384 -6.0373,1.98384 l 1.57242,10.58169 10.8071,-3.5548 c 2.01194,-0.65904 4.00187,-1.27535 5.94855,-1.90177 l 4.48695,13.96614 8.29611,-2.727 -4.43632,-13.81959 c 2.29305,-0.70147 4.50323,-1.40812 6.65457,-2.11789 l 4.41203,13.75717 8.30428,-2.73217 -4.47289,-13.94336 c 13.70137,-5.40276 22.33039,-12.177 19.2838,-25.84731 -2.45057,-11.0085 -8.94736,-14.14342 -17.49109,-13.46327 4.01819,-4.06527 5.62486,-9.42801 2.58228,-16.48171 z m -2.03186,33.68666 c 3.35512,10.43635 -14.68253,15.05622 -20.30903,16.9127 l -5.93817,-18.50656 c 5.63031,-1.85026 22.75319,-9.29329 26.2472,1.59386 z M 425.6344,-232.3797 c 3.04569,9.4972 -12.0353,13.23208 -16.72325,14.77431 l -5.38712,-16.78412 c 4.68794,-1.54224 18.9299,-7.89469 22.11037,2.00981 z" />
    <path
       style="display:inline;fill:none;stroke:#081a0e;stroke-width:1.44677186;stroke-opacity:0.97747749"
       inkscape:connector-curvature="0"
       id="path4213-0-9-5"
       d="m 589.71939,-102.39045 c -2.46791,-5.74745 -8.1658,-6.07231 -14.73547,-4.53788 l -2.64175,-8.22926 -4.94843,1.62807 2.57226,8.01233 c -1.30088,0.42804 -2.62235,0.89139 -3.93494,1.35261 l -2.58825,-8.06571 -4.94601,1.62653 2.639,8.22758 c -1.06431,0.3745 -2.10999,0.74071 -3.13572,1.07881 l -0.008,-0.0252 -6.8261,2.24244 1.71857,5.349487 c 0,0 3.63176,-1.272431 3.59287,-1.184332 2.00464,-0.658626 3.03512,0.304721 3.55116,1.25875 l 3.00976,9.374759 c 0.13846,-0.04477 0.32088,-0.0982 0.53427,-0.137085 -0.16472,0.05456 -0.34161,0.111346 -0.52253,0.172615 l 4.2145,13.133749 c 0.1169,0.667465 0.073,1.807539 -1.32664,2.27058 0.0816,0.03608 -3.59759,1.182151 -3.59759,1.182151 l 0.93701,6.305559 6.43985,-2.118304 c 1.19888,-0.392707 2.38466,-0.759956 3.54469,-1.133219 l 2.67372,8.322279 4.94357,-1.624992 -2.64357,-8.234965 c 1.36641,-0.417998 2.68342,-0.839101 3.96539,-1.262051 l 2.62911,8.197783 4.94844,-1.628069 -2.66534,-8.308711 c 8.1645,-3.219461 13.30644,-7.256176 11.49102,-15.402203 -1.46027,-6.559866 -5.33162,-8.427919 -10.42278,-8.022622 2.39442,-2.422465 3.35183,-5.618062 1.53875,-9.821319 z m -1.2108,20.073597 c 1.99931,6.218916 -8.74915,8.97184 -12.10192,10.078118 l -3.53853,-11.027895 c 3.35504,-1.102557 13.55843,-5.537798 15.64045,0.949777 z m -7.29568,-14.801322 c 1.8149,5.659301 -7.17173,7.884866 -9.96523,8.803897 l -3.21012,-10.001518 c 2.79347,-0.919003 11.28013,-4.704374 13.17535,1.197621 z" />
    <path
       style="display:inline;fill:none;stroke:#081a0e;stroke-width:0.58968264;stroke-opacity:0.97747749"
       inkscape:connector-curvature="0"
       id="path4213-0-9-0"
       d="m 428.7208,-86.363134 c -1.00588,-2.342564 -3.32825,-2.474977 -6.00594,-1.849561 l -1.07675,-3.354141 -2.01691,0.663604 1.04842,3.26568 c -0.53022,0.174574 -1.06882,0.363332 -1.60383,0.551307 l -1.05493,-3.287445 -2.01592,0.662933 1.07562,3.353441 c -0.43379,0.152753 -0.85998,0.301896 -1.27807,0.439708 l -0.003,-0.01119 -2.78223,0.913968 0.70048,2.180383 c 0,0 1.48024,-0.51863 1.46438,-0.482708 0.81708,-0.268575 1.23708,0.124217 1.44741,0.513035 l 1.22672,3.821014 c 0.0564,-0.01958 0.13073,-0.04001 0.21779,-0.05595 -0.0672,0.02238 -0.1393,0.04532 -0.21309,0.07022 l 1.71777,5.353125 c 0.0478,0.271932 0.0299,0.736707 -0.54072,0.925437 0.0332,0.01398 -1.46632,0.48184 -1.46632,0.48184 l 0.38192,2.570042 2.62479,-0.863386 c 0.48865,-0.160025 0.97194,-0.309757 1.44476,-0.461893 l 1.08976,3.392049 2.01493,-0.662318 -1.07748,-3.356462 c 0.55692,-0.170378 1.09372,-0.341987 1.61623,-0.514379 l 1.07159,3.341301 2.0169,-0.663605 -1.08637,-3.38651 c 3.32776,-1.312186 5.42353,-2.957489 4.68359,-6.277694 -0.59518,-2.673695 -2.17307,-3.435106 -4.24817,-3.269904 0.97594,-0.98735 1.36616,-2.289827 0.62718,-4.00303 z m -0.49348,8.181696 c 0.81487,2.534735 -3.56603,3.656793 -4.93257,4.107691 l -1.44225,-4.494803 c 1.36746,-0.449387 5.5262,-2.257122 6.37482,0.387112 z m -2.97362,-6.032787 c 0.73972,2.306642 -2.92311,3.213755 -4.06169,3.588333 l -1.30841,-4.076468 c 1.13861,-0.374579 4.59764,-1.917431 5.3701,0.488135 z" />
    <path
       style="display:inline;fill:none;stroke:#081a0e;stroke-width:0.70839238;stroke-opacity:0.97747749"
       inkscape:connector-curvature="0"
       id="path4213-0-9-0-4"
       d="M 21.380598,49.153816 C 20.172218,46.339668 17.382333,46.1806 14.165588,46.93192 l -1.293514,-4.029368 -2.422933,0.797196 1.259475,3.923097 c -0.636966,0.209717 -1.283981,0.436475 -1.9266897,0.66229 L 8.5146187,44.335892 6.0928721,45.13228 7.3850246,49.160808 C 6.8639042,49.34431 6.351922,49.523478 5.8496605,49.689033 l -0.00329,-0.01344 -3.3423212,1.097959 0.8414922,2.619318 c 0,0 1.778235,-0.623036 1.7591783,-0.579882 0.9815781,-0.322641 1.4861241,0.149223 1.7387926,0.616314 l 1.4736688,4.590227 c 0.067766,-0.02352 0.1570558,-0.04806 0.261642,-0.06721 -0.080728,0.02689 -0.1673475,0.05444 -0.255997,0.08436 l 2.0635808,6.430768 c 0.05745,0.326675 0.03581,0.885015 -0.6495751,1.111739 0.039872,0.01679 -1.7615066,0.578841 -1.7615066,0.578841 l 0.4587988,3.087419 3.1531939,-1.037194 c 0.587023,-0.192242 1.167609,-0.372115 1.735607,-0.554879 l 1.309156,4.074907 2.420538,-0.79565 -1.294372,-4.032157 c 0.669038,-0.204676 1.313901,-0.41083 1.941595,-0.617927 l 1.287299,4.013941 2.422943,-0.797196 -1.305069,-4.068252 c 3.997673,-1.576344 6.51534,-3.552865 5.626431,-7.541464 -0.714982,-3.21194 -2.610533,-4.126631 -5.103356,-3.928172 1.172387,-1.186115 1.641181,-2.750796 0.753436,-4.808885 z m -0.592833,9.828766 c 0.978921,3.045004 -4.283907,4.392945 -5.925549,4.934614 L 13.129629,58.51754 c 1.642741,-0.539855 6.638687,-2.711508 7.658136,0.465042 z m -3.572242,-7.247255 c 0.888634,2.770994 -3.511557,3.860719 -4.879344,4.310703 l -1.571818,-4.897107 c 1.367819,-0.449985 5.523206,-2.303432 6.451162,0.586404 z" />
    <path
       style="display:inline;fill:none;stroke:#081a0e;stroke-width:1.44677186;stroke-opacity:0.97747749"
       inkscape:connector-curvature="0"
       id="path4213-0-9-5-8"
       d="m 152.02032,34.842576 c -2.46792,-5.747455 -8.16582,-6.072319 -14.73549,-4.537887 l -2.64174,-8.229258 -4.94844,1.62807 2.57226,8.012327 c -1.30087,0.428042 -2.62233,0.89139 -3.93492,1.352612 l -2.58826,-8.065706 -4.94601,1.62653 2.639,8.22758 c -1.06431,0.374494 -2.10999,0.740708 -3.13572,1.078805 l -0.008,-0.02518 -6.8261,2.242435 1.71858,5.349488 c 0,0 3.63175,-1.272431 3.59286,-1.184333 2.00464,-0.658625 3.03512,0.30472 3.55117,1.258751 l 3.00974,9.374758 c 0.13847,-0.04477 0.32089,-0.0982 0.53429,-0.137085 -0.16473,0.05456 -0.34162,0.111347 -0.52254,0.172616 l 4.21449,13.133749 c 0.11691,0.667465 0.073,1.807542 -1.32663,2.27058 0.0815,0.03609 -3.5976,1.182157 -3.5976,1.182157 l 0.93701,6.305555 6.43986,-2.118306 c 1.19888,-0.392701 2.38467,-0.759952 3.54469,-1.133218 l 2.67371,8.322286 4.94358,-1.624992 -2.64356,-8.234966 c 1.3664,-0.418004 2.68341,-0.839109 3.96538,-1.262055 l 2.62911,8.19779 4.94843,-1.628073 -2.66533,-8.30871 c 8.16451,-3.21947 13.30644,-7.256183 11.49102,-15.40221 -1.46027,-6.559866 -5.33163,-8.427919 -10.42279,-8.022623 2.39443,-2.422464 3.35183,-5.618062 1.53876,-9.82132 z m -1.2108,20.073593 c 1.99929,6.218916 -8.74915,8.97184 -12.10193,10.078118 l -3.53853,-11.027895 c 3.35504,-1.102558 13.55843,-5.537798 15.64046,0.949777 z m -7.29569,-14.801322 c 1.8149,5.6593 -7.17172,7.884866 -9.96523,8.803897 l -3.21013,-10.001518 c 2.79348,-0.919004 11.28015,-4.704375 13.17536,1.197621 z" />
    <path
       style="display:inline;fill:none;stroke:#081a0e;stroke-width:2.42791343;stroke-opacity:0.97747749"
       inkscape:connector-curvature="0"
       id="path4213-0-9-2-9"
       d="M 347.62177,19.278864 C 343.48024,9.6337119 333.91823,9.0885317 322.89328,11.663553 l -4.43325,-13.8099989 -8.30428,2.7321648 4.31665,13.4459401 c -2.18305,0.718327 -4.40065,1.495936 -6.60342,2.269908 l -4.34349,-13.5355205 -8.30018,2.7295641 4.42865,13.8071734 c -1.78606,0.628494 -3.5409,1.243027 -5.26221,1.810421 l -0.0138,-0.04253 -11.45531,3.763186 2.88407,8.977268 c 0,0 6.09461,-2.135313 6.02939,-1.987485 3.3641,-1.105271 5.09343,0.511356 5.95941,2.112372 l 5.05083,15.732354 c 0.23245,-0.07497 0.53849,-0.164782 0.89661,-0.229967 -0.27654,0.09148 -0.57326,0.186883 -0.8769,0.289642 l 7.07259,22.040521 c 0.19624,1.120122 0.12243,3.033328 -2.22633,3.810414 0.13681,0.06043 -6.0373,1.983821 -6.0373,1.983821 l 1.57243,10.581693 10.8071,-3.554792 c 2.01193,-0.659046 4.00187,-1.275362 5.94855,-1.901795 l 4.48695,13.966169 8.2961,-2.727021 -4.43632,-13.819563 c 2.29305,-0.701488 4.50323,-1.408151 6.65458,-2.117913 l 4.41203,13.757175 8.30427,-2.732185 -4.47289,-13.94334 c 13.70138,-5.402761 22.33039,-12.17701 19.2838,-25.847322 -2.45056,-11.008508 -8.94735,-14.143425 -17.49109,-13.463257 4.0182,-4.065279 5.62486,-9.428026 2.58229,-16.481736 z m -2.03187,33.686665 c 3.35512,10.436359 -14.68252,15.05622 -20.30902,16.912685 L 319.3427,51.371675 c 5.63031,-1.850288 22.75319,-9.293319 26.2472,1.593854 z M 333.34655,28.126572 c 3.04569,9.497212 -12.03531,13.232086 -16.72325,14.774324 l -5.38712,-16.784135 c 4.68794,-1.542237 18.9299,-7.894685 22.11037,2.009811 z" />
    <path
       style="display:inline;fill:none;stroke:#081a0e;stroke-width:3.13839531;stroke-opacity:0.97747749"
       inkscape:connector-curvature="0"
       id="path4213-0-9-7-9"
       d="M 545.14039,7.7800949 C 539.78693,-4.6875316 527.4268,-5.3922337 513.17562,-2.0636919 l -5.73057,-17.8512361 -10.73439,3.5317 5.57985,17.38065109 C 499.46862,1.9259377 496.6021,2.9310806 493.75473,3.9315515 l -5.61453,-17.4964465 -10.72909,3.528352 5.72462,17.8475518 c -2.30871,0.8124118 -4.57706,1.6067794 -6.8021,2.3402132 l -0.0194,-0.05484 -14.80748,4.864402 3.72805,11.604297 c 0,0 7.87809,-2.760171 7.79374,-2.569062 4.3486,-1.428737 6.58394,0.660975 7.70334,2.730514 l 6.52888,20.336099 c 0.30057,-0.09708 0.69603,-0.213181 1.15897,-0.297447 -0.35745,0.118062 -0.74104,0.241438 -1.13351,0.374439 l 9.14226,28.490211 c 0.25372,1.447928 0.15836,3.920978 -2.87783,4.925452 0.17688,0.07802 -7.804,2.564385 -7.804,2.564385 l 2.03258,13.678205 13.96959,-4.595045 c 2.60067,-0.851889 5.17292,-1.648546 7.68926,-2.458279 l 5.79999,18.053067 10.7238,-3.52501 -5.73457,-17.863621 c 2.96409,-0.906742 5.82102,-1.820213 8.60192,-2.737673 l 5.70312,17.782954 10.73438,-3.531708 -5.7818,-18.023582 c 17.71082,-6.983768 28.86493,-15.740387 24.92682,-33.411043 -3.16768,-14.229927 -11.56559,-18.282224 -22.60951,-17.403032 5.19406,-5.254899 7.27089,-12.186938 3.33794,-21.3047596 z m -2.62646,43.5444111 c 4.33694,13.490339 -18.97905,19.462107 -26.25204,21.861887 L 508.586,49.264227 c 7.27792,-2.391718 29.41148,-12.012784 33.92793,2.060279 z m -15.8261,-32.107582 c 3.93694,12.27635 -15.55724,17.104186 -21.617,19.097714 l -6.96355,-21.695676 c 6.05977,-1.993528 24.46937,-10.2049079 28.58055,2.597962 z" />
    <path
       style="display:inline;fill:none;stroke:#081a0e;stroke-width:0.70839274;stroke-opacity:0.97747749"
       inkscape:connector-curvature="0"
       id="path4213-0-9-0-4-7"
       d="m 100.28933,-18.324718 c -1.208376,-2.814145 -3.998264,-2.973223 -7.215011,-2.221898 l -1.293515,-4.029368 -2.422934,0.79719 1.259476,3.9231 c -0.636966,0.209725 -1.283982,0.436485 -1.926691,0.662296 l -1.267308,-3.949241 -2.421749,0.796386 1.292154,4.028527 c -0.521121,0.1835 -1.033103,0.362676 -1.535365,0.528229 l -0.0032,-0.01346 -3.342322,1.097951 0.841492,2.619328 c 0,0 1.778236,-0.623036 1.759178,-0.579885 0.981579,-0.322636 1.486127,0.149227 1.738795,0.616309 l 1.47367,4.5902365 c 0.06777,-0.023546 0.157056,-0.048053 0.261642,-0.067274 -0.08073,0.026909 -0.167348,0.054419 -0.255997,0.084332 l 2.063581,6.4307667 c 0.05745,0.3266847 0.03581,0.8850184 -0.649575,1.111742 0.03987,0.016818 -1.761508,0.5788401 -1.761508,0.5788401 l 0.4588,3.0874196 3.153195,-1.03718864 c 0.587023,-0.19224594 1.16761,-0.37211836 1.735608,-0.55488595 l 1.309156,4.07490999 2.42054,-0.7956529 -1.294372,-4.03215528 c 0.669038,-0.20467952 1.313901,-0.41082464 1.941596,-0.61793082 l 1.287299,4.0139434 2.422945,-0.7971906 -1.305065,-4.0682547 c 3.997665,-1.5763494 6.515335,-3.5528678 5.626425,-7.5414635 -0.71499,-3.2119479 -2.61054,-4.1266389 -5.10335,-3.9281819 1.17238,-1.186115 1.64117,-2.7508 0.75342,-4.808887 z m -0.592836,9.8287732 c 0.978926,3.0450013 -4.283903,4.3929453 -5.925546,4.9346168 l -1.732589,-5.3996566 c 1.642743,-0.5398576 6.638691,-2.7115174 7.658135,0.4650398 z m -3.572238,-7.2472622 c 0.888635,2.770994 -3.511559,3.860728 -4.879346,4.310703 l -1.57182,-4.897111 c 1.36782,-0.449975 5.52321,-2.303431 6.451166,0.586408 z" />
    <path
       style="display:inline;fill:none;stroke:#081a0e;stroke-width:0.68687546;stroke-opacity:0.97747749"
       inkscape:connector-curvature="0"
       id="path4213-0-9-0-4-2"
       d="m 6.6358988,-16.79532 c -1.1716715,-2.728666 -3.8768174,-2.882912 -6.99585623,-2.154409 l -1.25422467,-3.906977 -2.3493383,0.772976 1.2212196,3.803937 c -0.617618,0.203355 -1.2449808,0.423227 -1.8681677,0.642178 l -1.2288141,-3.829283 -2.3481885,0.772195 1.252905,3.906162 c -0.5052918,0.177927 -1.0017227,0.35166 -1.4887291,0.512184 l -0.00314,-0.01305 -3.2407998,1.064601 0.815932,2.539767 c 0,0 1.7242225,-0.604112 1.7057438,-0.562271 0.9517634,-0.312837 1.4409853,0.144694 1.6859789,0.597588 l 1.4289073,4.4508093 c 0.065708,-0.02283 0.1522853,-0.046593 0.2536948,-0.06523 -0.078276,0.026092 -0.1622644,0.052766 -0.2482213,0.08177 l 2.0009002,6.2354334 c 0.055702,0.3167618 0.034723,0.8581363 -0.6298438,1.07797318 0.03866,0.0163075 -1.7080022,0.56125796 -1.7080022,0.56125796 L -5.9172872,2.6859361 -2.8598698,1.6802519 C -2.2906771,1.4938454 -1.7277255,1.3194365 -1.17698,1.1422205 L 0.09241062,5.0933559 2.4394273,4.3218708 1.1843709,0.41219139 C 1.8330873,0.21372894 2.4583627,0.01384543 3.0669916,-0.18696993 L 4.3151896,3.7050508 6.6645418,2.9320747 5.3991138,-1.0126076 c 3.8762373,-1.5284681 6.3174372,-3.4449502 5.4555272,-7.3123931 -0.693267,-3.1143853 -2.5312409,-4.0012923 -4.9483403,-3.8088633 1.1367734,-1.150088 1.591322,-2.667246 0.7305416,-4.662819 z m -0.5748282,9.530226 c 0.9491904,2.95251 -4.1537807,4.2595105 -5.74555924,4.7847288 L -1.36445,-7.7160084 c 1.5928443,-0.5234594 6.437042,-2.6291556 7.4255206,0.4509144 z m -3.4637318,-7.027128 c 0.8616423,2.686826 -3.40489662,3.743459 -4.7311376,4.179767 l -1.5240757,-4.748363 c 1.3262725,-0.436308 5.3554428,-2.233466 6.2552133,0.568596 z" />
    <path
       style="display:inline;fill:none;stroke:#081a0e;stroke-width:1.02461588;stroke-opacity:0.97747749"
       inkscape:connector-curvature="0"
       id="path4213-0-9-0-4-0"
       d="m 226.98326,-44.202934 c -1.71336,-4.152166 -5.66913,-4.38688 -10.23017,-3.278327 l -1.83407,-5.945185 -3.43548,1.176225 1.78582,5.78839 c -0.90317,0.30944 -1.82058,0.644016 -2.73186,0.977192 l -1.79692,-5.826958 -3.4338,1.175037 1.83214,5.943943 c -0.73889,0.270748 -1.46484,0.535115 -2.177,0.779382 l -0.005,-0.01986 -4.73907,1.619987 1.19316,3.864722 c 0,0 2.52136,-0.919269 2.49434,-0.8556 1.39178,-0.476038 2.10717,0.220178 2.46542,0.909341 l 2.08953,6.772724 c 0.096,-0.03474 0.22268,-0.0709 0.37097,-0.09926 -0.11454,0.0397 -0.23728,0.08029 -0.36296,0.124425 l 2.92594,9.488356 c 0.0815,0.482013 0.0508,1.305812 -0.92102,1.640335 0.0566,0.02482 -2.49765,0.854057 -2.49765,0.854057 l 0.65053,4.555372 4.47092,-1.530332 c 0.83234,-0.283653 1.65555,-0.549047 2.46092,-0.818715 l 1.85625,6.012379 3.43208,-1.173954 -1.83528,-5.949297 c 0.94862,-0.301998 1.86298,-0.606156 2.75299,-0.911735 l 1.82525,5.922427 3.4355,-1.176225 -1.85046,-6.002561 c 5.66831,-2.325846 9.2381,-5.242124 7.97771,-11.12715 -1.01375,-4.739109 -3.70148,-6.088701 -7.23604,-5.795887 1.66232,-1.750069 2.32704,-4.058702 1.0683,-7.095334 z m -0.84057,14.501991 c 1.38802,4.492787 -6.07417,6.481628 -8.40185,7.280844 l -2.45664,-7.966994 c 2.32926,-0.796539 9.413,-4.000742 10.85849,0.68615 z m -5.06509,-10.693066 c 1.26,4.088498 -4.97903,5.69636 -6.91843,6.360283 l -2.22868,-7.225508 c 1.93942,-0.663921 7.83137,-3.398628 9.14711,0.865225 z" />
  </g>
</svg>
