<?xml version="1.0" encoding="UTF-8" standalone="no"?>
<!--part of the rodentia icon theme by sixsixfive released under CC0 (https://creativecommons.org/publicdomain/zero/1.0/) on openclipart-->

<svg
   xmlns:dc="http://purl.org/dc/elements/1.1/"
   xmlns:cc="http://creativecommons.org/ns#"
   xmlns:rdf="http://www.w3.org/1999/02/22-rdf-syntax-ns#"
   xmlns:svg="http://www.w3.org/2000/svg"
   xmlns="http://www.w3.org/2000/svg"
   xmlns:sodipodi="http://sodipodi.sourceforge.net/DTD/sodipodi-0.dtd"
   xmlns:inkscape="http://www.inkscape.org/namespaces/inkscape"
   viewBox="0 0 30.242687 39.505859"
   version="1.1"
   id="svg42"
   sodipodi:docname="lockclean.svg"
   width="30.242687"
   height="39.505859"
   inkscape:version="0.92.3 (2405546, 2018-03-11)">
  <title
     id="title1115">Lock</title>
  <metadata
     id="metadata46">
    <rdf:RDF>
      <cc:Work
         rdf:about="">
        <dc:format>image/svg+xml</dc:format>
        <dc:type
           rdf:resource="http://purl.org/dc/dcmitype/StillImage" />
        <dc:title>Lock</dc:title>
        <cc:license
           rdf:resource="http://creativecommons.org/publicdomain/zero/1.0/" />
        <dc:creator>
          <cc:Agent>
            <dc:title>Andrew Stone</dc:title>
          </cc:Agent>
        </dc:creator>
        <dc:date>July 23, 2020</dc:date>
      </cc:Work>
      <cc:License
         rdf:about="http://creativecommons.org/publicdomain/zero/1.0/">
        <cc:permits
           rdf:resource="http://creativecommons.org/ns#Reproduction" />
        <cc:permits
           rdf:resource="http://creativecommons.org/ns#Distribution" />
        <cc:permits
           rdf:resource="http://creativecommons.org/ns#DerivativeWorks" />
      </cc:License>
    </rdf:RDF>
  </metadata>
  <sodipodi:namedview
     pagecolor="#ffffff"
     bordercolor="#666666"
     borderopacity="1"
     objecttolerance="10"
     gridtolerance="10"
     guidetolerance="10"
     inkscape:pageopacity="0"
     inkscape:pageshadow="2"
     inkscape:window-width="1680"
     inkscape:window-height="1022"
     id="namedview44"
     showgrid="false"
     fit-margin-top="0"
     fit-margin-left="0"
     fit-margin-right="0"
     fit-margin-bottom="0"
     inkscape:zoom="14.097815"
     inkscape:cx="2.4286957"
     inkscape:cy="21.398465"
     inkscape:window-x="5520"
     inkscape:window-y="0"
     inkscape:window-maximized="1"
     inkscape:current-layer="svg42" />
  <defs
     id="0" />
  <path
     d="M 4.0467047,1.9330234 C 3.2958012,2.2374908 2.9403572,3.1069331 3.2500292,3.8706721 L 4.3407797,6.5607747 C 3.1431612,7.4629233 2.0793322,8.5234633 1.1823132,9.6821015 l -2.689473,-1.1376832 c -0.3795083,-0.160538 -0.7609613,-0.172393 -1.1115953,-0.033671 -0.350634,0.138723 -0.6553888,0.408703 -0.8132276,0.7818332 l -2.2259021,5.2620125 c -0.3156783,0.74626 0.044611,1.581259 0.8036278,1.902334 l 2.6894731,1.137683 c -0.2067389,1.450635 -0.2269084,2.952658 -0.040237,4.440379 l -2.6901027,1.090752 c -0.763739,0.309671 -1.1401207,1.170256 -0.8356528,1.92116 l 2.136522,5.269274 c 0.3044674,0.750902 1.1739098,1.106346 1.9376487,0.796674 l 2.6901029,-1.09075 c 0.902148,1.197618 1.962688,2.261447 3.1213265,3.158466 l -1.1376835,2.689474 c -0.321074,0.759016 0.0019,1.609144 0.7481625,1.924823 l 5.262013,2.225901 c 0.746259,0.315678 1.5812573,-0.04461 1.9023333,-0.803627 l 1.137684,-2.689474 c 1.450635,0.206739 2.952657,0.226909 4.440379,0.04024 l 1.090751,2.690103 c 0.309672,0.763739 1.170256,1.140121 1.92116,0.835653 l 5.269274,-2.136522 c 0.750903,-0.304467 1.106347,-1.17391 0.796675,-1.937649 l -1.09075,-2.690103 c 1.197618,-0.902148 2.261447,-1.962688 3.158466,-3.121326 l 2.689473,1.137683 c 0.759015,0.321074 1.609145,-0.0019 1.924823,-0.748162 l 2.225902,-5.262012 c 0.315678,-0.74626 -0.04461,-1.58126 -0.803627,-1.902334 L 31.000385,22.29555 c 0.206739,-1.450636 0.226908,-2.952658 0.04024,-4.44038 l 2.690103,-1.090751 c 0.763739,-0.309672 1.140121,-1.170256 0.835653,-1.92116 L 32.429859,9.5739845 C 32.125391,8.8230813 31.255949,8.4676383 30.49221,8.7773093 L 27.802107,9.8680605 C 26.899956,8.6704383 25.839416,7.6066103 24.680778,6.7095913 L 25.818461,4.0201181 C 26.139535,3.2611024 25.81656,2.4109727 25.070299,2.0952952 l -5.262013,-2.22590219 c -0.74626,-0.3156783 -1.58126,0.044612 -1.902333,0.80362793 L 16.76827,3.362494 C 15.317634,3.1557551 13.815612,3.1355856 12.32789,3.3222569 L 11.237139,0.63215434 C 10.927467,-0.13158489 10.066883,-0.50796659 9.3159787,-0.20349869 Z M 12.078872,14.176611 c 3.184193,-1.29109 6.816308,0.245344 8.107397,3.429538 1.291089,3.184194 -0.245345,6.816308 -3.429539,8.107397 -3.184193,1.291089 -6.8163083,-0.245344 -8.1073973,-3.429539 -1.291089,-3.184193 0.245345,-6.816307 3.4295393,-8.107396 z"
     id="2"
     display="block"
     inkscape:connector-curvature="0"
     style="display:block;fill:url(#G);stroke:url(#H);stroke-width:0.958;stroke-linejoin:round" />
  <path
     d="M 9.5600247,7.9644143 C 2.9538852,10.642993 -0.24144166,18.196717 2.4371372,24.802855 5.1157157,31.408993 12.669439,34.60432 19.275577,31.925742 25.881716,29.247163 29.077043,21.693439 26.398464,15.087302 23.719886,8.4811623 16.166163,5.2858362 9.5600247,7.9644143 Z"
     id="4"
     inkscape:connector-curvature="0"
     style="fill:none;fill-opacity:1;stroke:url(#F);stroke-width:0.958" />
  <path
     d="m 9.4800057,0.22382764 -5.26698,2.12474776 h -0.02993 C 3.6768011,2.567813 3.4534007,3.1503055 3.6743573,3.6952465 a 0.4389496,0.4389496 0 0 1 0,0.029926 l 1.0773364,2.6933423 a 0.4389496,0.4389496 0 0 1 -0.14963,0.5087424 C 3.4371124,7.8047984 2.4240575,8.8203019 1.5496095,9.9497855 A 0.4389496,0.4389496 0 0 1 1.010941,10.099416 L -1.6824012,8.9622269 C -1.9707099,8.8402685 -2.2153936,8.8353377 -2.4604779,8.9323009 -2.7119986,9.0318114 -2.8897444,9.2123443 -2.9991463,9.4709695 a 0.4389496,0.4389496 0 0 1 -0.029926,0 L -5.2735242,14.73795 h 0.029926 c -0.2235935,0.528573 0.00947,1.050301 0.5685945,1.286819 l 2.6933422,1.137189 a 0.4389496,0.4389496 0 0 1 0.2693343,0.478817 c -0.2009692,1.410149 -0.2117602,2.890103 -0.029926,4.339273 a 0.4389496,0.4389496 0 0 1 -0.2992602,0.478817 l -2.6634162,1.077337 h -0.029926 c -0.5344005,0.229945 -0.7789239,0.798012 -0.5685944,1.316745 a 0.4389496,0.4389496 0 0 1 0,0.02993 l 2.1247477,5.26698 v 0.02993 c 0.2192378,0.5063 0.8017299,0.729699 1.3466712,0.508743 a 0.4389496,0.4389496 0 0 1 0.029926,0 l 2.69334224,-1.077337 a 0.4389496,0.4389496 0 0 1 0.50874246,0.14963 c 0.8775402,1.164952 1.8930446,2.178006 3.0225283,3.052454 a 0.4389496,0.4389496 0 0 1 0.14963,0.538669 l -1.1371886,2.693342 c -0.2346335,0.554671 -0.021892,1.092278 0.5087426,1.316745 a 0.4389496,0.4389496 0 0 1 0,0.02993 l 5.26698,2.244452 v -0.02993 c 0.52857,0.223594 1.0503003,-0.0095 1.2868193,-0.568594 l 1.137189,-2.693343 a 0.4389496,0.4389496 0 0 1 0.478817,-0.269334 c 1.410149,0.20097 2.890103,0.21176 4.339273,0.02993 a 0.4389496,0.4389496 0 0 1 0.478817,0.29926 l 1.077337,2.663417 v 0.02993 c 0.229945,0.5344 0.798012,0.778924 1.316745,0.568594 a 0.4389496,0.4389496 0 0 1 0.02993,0 l 5.26698,-2.124748 c 0.0072,-0.003 0.0228,0.0031 0.02993,0 0.506301,-0.219238 0.729699,-0.80173 0.508743,-1.346671 a 0.4389496,0.4389496 0 0 1 0,-0.02993 l -1.077337,-2.693342 a 0.4389496,0.4389496 0 0 1 0.14963,-0.508743 c 1.164952,-0.877538 2.178005,-1.893043 3.052454,-3.022528 a 0.4389496,0.4389496 0 0 1 0.538669,-0.14963 l 2.693342,1.137189 c 0.554671,0.234632 1.092279,0.02189 1.316745,-0.508743 a 0.4389496,0.4389496 0 0 1 0.02993,0 l 2.244452,-5.26698 h -0.02993 c 0.223594,-0.528571 -0.0095,-1.050302 -0.568595,-1.286819 L 30.81727,22.728211 a 0.4389496,0.4389496 0 0 1 -0.269334,-0.478817 c 0.20097,-1.410149 0.21176,-2.890103 0.02993,-4.339273 a 0.4389496,0.4389496 0 0 1 0.29926,-0.478817 l 2.663417,-1.077336 c 0.0076,-0.0031 0.02244,0.0033 0.02993,0 0.5344,-0.229946 0.778924,-0.798013 0.568594,-1.316746 a 0.4389496,0.4389496 0 0 1 0,-0.02993 L 32.014319,9.7403115 v -0.02993 C 31.795065,9.204078 31.212573,8.9806786 30.667632,9.2016351 a 0.4389496,0.4389496 0 0 1 -0.02993,0 L 27.94436,10.278972 a 0.4389496,0.4389496 0 0 1 -0.508743,-0.14963 C 26.558083,8.9643911 25.542577,7.9513353 24.413093,7.0768873 a 0.4389496,0.4389496 0 0 1 -0.14963,-0.5386684 l 1.137189,-2.6933423 c 0.234632,-0.554671 0.02189,-1.0922791 -0.508743,-1.3167451 a 0.4389496,0.4389496 0 0 1 0,-0.029926 l -5.26698,-2.24445186 v 0.029926 c -0.528573,-0.22359333 -1.050303,0.00947 -1.286819,0.5685945 L 17.200921,3.5456164 A 0.4389496,0.4389496 0 0 1 16.722104,3.8149506 C 15.311955,3.6139814 13.832001,3.6031904 12.382831,3.7850246 A 0.4389496,0.4389496 0 0 1 11.904014,3.4857643 L 10.826678,0.82234814 v -0.029926 c -0.229946,-0.5344006 -0.798013,-0.778924 -1.3167463,-0.5685945 a 0.4389496,0.4389496 0 0 1 -0.02993,0 z M 14.507579,13.271575 c 2.597945,0.03931 5.069455,1.605993 6.104909,4.159717 1.380707,3.405218 -0.276802,7.32822 -3.680901,8.708474 -3.405218,1.380707 -7.3282203,-0.276802 -8.7084743,-3.680901 -1.380707,-3.405218 0.276802,-7.32822 3.6809013,-8.708474 0.85278,-0.345774 1.740559,-0.491876 2.603565,-0.478816 z"
     id="6"
     display="block"
     inkscape:connector-curvature="0"
     style="display:block;fill:url(#E);stroke-width:0.95763278" />
  <path
     style="opacity:1;fill:#cccccc;fill-opacity:1;stroke:#404040;stroke-width:1;stroke-linecap:round;stroke-linejoin:round;stroke-miterlimit:4;stroke-dasharray:none;stroke-dashoffset:67.99999237;stroke-opacity:1"
     d="M 14.738531,0.49999994 C 9.2386307,0.86249954 6.3209997,4.8851399 6.3049367,8.7070311 V 16.328125 H 1.7209522 c 0,0 -2.68456146,14.264044 -0.070312,20.621094 0.3682035,0.895357 2.0488285,2.056641 2.0488285,2.056641 l 11.4218753,-0.07422 11.421875,0.07422 c 0,0 1.680624,-1.161284 2.048828,-2.056641 2.614251,-6.35705 -0.07031,-20.621094 -0.07031,-20.621094 H 23.937749 V 8.7070311 c -0.01606,-3.821892 -2.933693,-7.84453156 -8.433593,-8.20703116 -0.131166,0.00478 -0.254486,0.020327 -0.382813,0.029297 -0.128327,-0.00897 -0.251646,-0.024514 -0.382812,-0.029297 z m 0.0957,3.00781246 c 0.09708,0.0019 0.191348,0.012673 0.287109,0.019531 0.09576,-0.00686 0.19003,-0.017631 0.28711,-0.019531 3.058942,0.12053 5.696553,2.5434487 5.554687,5.1679687 V 16.328125 H 15.121343 9.2795457 V 8.6757811 C 9.1376797,6.051261 11.775291,3.6283423 14.834234,3.5078124 Z"
     id="path1038"
     inkscape:connector-curvature="0" />
</svg>
