<?xml version="1.0" encoding="UTF-8" standalone="no"?>
<svg
   xmlns:dc="http://purl.org/dc/elements/1.1/"
   xmlns:cc="http://creativecommons.org/ns#"
   xmlns:rdf="http://www.w3.org/1999/02/22-rdf-syntax-ns#"
   xmlns:svg="http://www.w3.org/2000/svg"
   xmlns="http://www.w3.org/2000/svg"
   xmlns:sodipodi="http://sodipodi.sourceforge.net/DTD/sodipodi-0.dtd"
   xmlns:inkscape="http://www.inkscape.org/namespaces/inkscape"
   viewBox="0 0 41.464378 41.464378"
   version="1.1"
   id="svg42"
   sodipodi:docname="lock.svg"
   width="41.464378"
   height="41.464378"
   inkscape:version="0.92.3 (2405546, 2018-03-11)">
  <metadata
     id="metadata46">
    <rdf:RDF>
      <cc:Work
         rdf:about="">
        <dc:format>image/svg+xml</dc:format>
        <dc:type
           rdf:resource="http://purl.org/dc/dcmitype/StillImage" />
        <dc:title></dc:title>
      </cc:Work>
    </rdf:RDF>
  </metadata>
  <sodipodi:namedview
     pagecolor="#ffffff"
     bordercolor="#666666"
     borderopacity="1"
     objecttolerance="10"
     gridtolerance="10"
     guidetolerance="10"
     inkscape:pageopacity="0"
     inkscape:pageshadow="2"
     inkscape:window-width="1680"
     inkscape:window-height="1022"
     id="namedview44"
     showgrid="false"
     fit-margin-top="0"
     fit-margin-left="0"
     fit-margin-right="0"
     fit-margin-bottom="0"
     inkscape:zoom="14.097815"
     inkscape:cx="10.871072"
     inkscape:cy="22.569875"
     inkscape:window-x="5520"
     inkscape:window-y="0"
     inkscape:window-maximized="1"
     inkscape:current-layer="svg42" />
  <defs
     id="0" />
  <path
     d="M 10.361092,2.7201329 C 9.6101885,3.0246003 9.2547445,3.8940426 9.5644165,4.6577816 L 10.655167,7.3478842 C 9.4575485,8.2500328 8.3937195,9.3105728 7.4967005,10.469211 L 4.8072275,9.3315278 C 4.4277192,9.1709898 4.0462662,9.1591348 3.6956322,9.2978568 3.3449982,9.4365798 3.0402434,9.7065598 2.8824046,10.07969 l -2.22590217,5.262012 c -0.3156783,0.74626 0.044611,1.581259 0.80362787,1.902334 l 2.6894731,1.137683 C 3.9428645,19.832354 3.922695,21.334377 4.1093664,22.822098 L 1.4192637,23.91285 c -0.76373907,0.309671 -1.14012077,1.170256 -0.83565287,1.92116 l 2.13652207,5.269274 c 0.3044674,0.750902 1.1739098,1.106346 1.9376487,0.796674 l 2.6901029,-1.09075 c 0.902148,1.197618 1.962688,2.261447 3.1213265,3.158466 l -1.1376835,2.689474 c -0.321074,0.759016 0.0019,1.609144 0.7481625,1.924823 l 5.262013,2.225901 c 0.746259,0.315678 1.581257,-0.04461 1.902333,-0.803627 l 1.137684,-2.689474 c 1.450635,0.206739 2.952657,0.226909 4.440379,0.04024 l 1.090751,2.690103 c 0.309672,0.763739 1.170256,1.140121 1.92116,0.835653 l 5.269274,-2.136522 c 0.750903,-0.304467 1.106347,-1.17391 0.796675,-1.937649 l -1.09075,-2.690103 c 1.197618,-0.902148 2.261447,-1.962688 3.158466,-3.121326 l 2.689473,1.137683 c 0.759015,0.321074 1.609145,-0.0019 1.924823,-0.748162 l 2.225902,-5.262012 c 0.315678,-0.74626 -0.04461,-1.58126 -0.803627,-1.902334 l -2.689474,-1.137683 c 0.206739,-1.450636 0.226908,-2.952658 0.04024,-4.44038 l 2.690103,-1.090751 c 0.763739,-0.309672 1.140121,-1.170256 0.835653,-1.92116 L 38.744246,10.361094 C 38.439778,9.6101908 37.570336,9.2547478 36.806597,9.5644188 L 34.116494,10.65517 C 33.214343,9.4575478 32.153803,8.3937198 30.995165,7.4967008 L 32.132848,4.8072276 C 32.453922,4.0482119 32.130947,3.1980822 31.384686,2.8824047 L 26.122673,0.65650247 c -0.74626,-0.3156783 -1.58126,0.044612 -1.902333,0.80362793 L 23.082657,4.1496035 C 21.632021,3.9428646 20.129999,3.9226951 18.642277,4.1093664 L 17.551526,1.4192638 C 17.241854,0.65552457 16.38127,0.27914287 15.630366,0.58361077 Z M 18.393259,14.96372 c 3.184193,-1.29109 6.816308,0.245344 8.107397,3.429538 1.291089,3.184194 -0.245345,6.816308 -3.429539,8.107397 -3.184193,1.291089 -6.816308,-0.245344 -8.107397,-3.429539 -1.291089,-3.184193 0.245345,-6.816307 3.429539,-8.107396 z"
     id="2"
     display="block"
     inkscape:connector-curvature="0"
     style="display:block;fill:url(#G);stroke:url(#H);stroke-width:0.958;stroke-linejoin:round" />
  <path
     d="M 15.874412,8.7515238 C 9.2682725,11.430102 6.0729456,18.983826 8.7515245,25.589964 11.430103,32.196102 18.983826,35.391429 25.589964,32.712851 32.196103,30.034272 35.39143,22.480548 32.712851,15.874411 30.034273,9.2682718 22.48055,6.0729457 15.874412,8.7515238 Z"
     id="4"
     inkscape:connector-curvature="0"
     style="fill:none;stroke:url(#F);stroke-width:2.0;fill-opacity:0.80" />
  <path
     d="m 15.794393,1.0109371 -5.26698,2.1247478 h -0.02993 C 9.9911884,3.3549225 9.767788,3.937415 9.9887446,4.482356 a 0.4389496,0.4389496 0 0 1 0,0.029926 l 1.0773364,2.6933423 a 0.4389496,0.4389496 0 0 1 -0.14963,0.5087424 C 9.7514997,8.5919079 8.7384448,9.6074114 7.8639968,10.736895 a 0.4389496,0.4389496 0 0 1 -0.5386685,0.14963 L 4.6319861,9.7493364 C 4.3436774,9.627378 4.0989937,9.6224472 3.8539094,9.7194104 3.6023887,9.8189209 3.4246429,9.9994538 3.315241,10.258079 a 0.4389496,0.4389496 0 0 1 -0.029926,0 l -2.2444519,5.26698 h 0.029926 c -0.22359356,0.528573 0.00947,1.050301 0.5685945,1.286819 l 2.6933422,1.137189 a 0.4389496,0.4389496 0 0 1 0.2693343,0.478817 C 4.4010909,19.838033 4.3902999,21.317987 4.572134,22.767157 A 0.4389496,0.4389496 0 0 1 4.2728738,23.245974 L 1.6094576,24.323311 H 1.5795315 C 1.045131,24.553256 0.80060757,25.121323 1.0109371,25.640056 a 0.4389496,0.4389496 0 0 1 0,0.02993 l 2.1247477,5.26698 v 0.02993 c 0.2192378,0.5063 0.8017299,0.729699 1.3466712,0.508743 a 0.4389496,0.4389496 0 0 1 0.029926,0 l 2.6933422,-1.077337 a 0.4389496,0.4389496 0 0 1 0.5087425,0.14963 c 0.8775402,1.164952 1.8930446,2.178006 3.0225283,3.052454 a 0.4389496,0.4389496 0 0 1 0.14963,0.538669 l -1.1371886,2.693342 c -0.2346335,0.554671 -0.021892,1.092278 0.5087426,1.316745 a 0.4389496,0.4389496 0 0 1 0,0.02993 l 5.26698,2.244452 v -0.02993 c 0.52857,0.223594 1.0503,-0.0095 1.286819,-0.568594 l 1.137189,-2.693343 a 0.4389496,0.4389496 0 0 1 0.478817,-0.269334 c 1.410149,0.20097 2.890103,0.21176 4.339273,0.02993 a 0.4389496,0.4389496 0 0 1 0.478817,0.29926 l 1.077337,2.663417 v 0.02993 c 0.229945,0.5344 0.798012,0.778924 1.316745,0.568594 a 0.4389496,0.4389496 0 0 1 0.02993,0 l 5.26698,-2.124748 c 0.0072,-0.003 0.0228,0.0031 0.02993,0 0.506301,-0.219238 0.729699,-0.80173 0.508743,-1.346671 a 0.4389496,0.4389496 0 0 1 0,-0.02993 l -1.077337,-2.693342 a 0.4389496,0.4389496 0 0 1 0.14963,-0.508743 c 1.164952,-0.877538 2.178005,-1.893043 3.052454,-3.022528 a 0.4389496,0.4389496 0 0 1 0.538669,-0.14963 l 2.693342,1.137189 c 0.554671,0.234632 1.092279,0.02189 1.316745,-0.508743 a 0.4389496,0.4389496 0 0 1 0.02993,0 l 2.244452,-5.26698 h -0.02993 c 0.223594,-0.528571 -0.0095,-1.050302 -0.568595,-1.286819 L 37.131657,23.51532 a 0.4389496,0.4389496 0 0 1 -0.269334,-0.478817 c 0.20097,-1.410149 0.21176,-2.890103 0.02993,-4.339273 a 0.4389496,0.4389496 0 0 1 0.29926,-0.478817 l 2.663417,-1.077336 c 0.0076,-0.0031 0.02244,0.0033 0.02993,0 0.5344,-0.229946 0.778924,-0.798013 0.568594,-1.316746 a 0.4389496,0.4389496 0 0 1 0,-0.02993 l -2.124748,-5.26698 v -0.02993 C 38.109452,9.9911875 37.52696,9.7677881 36.982019,9.9887446 a 0.4389496,0.4389496 0 0 1 -0.02993,0 l -2.693342,1.0773364 a 0.4389496,0.4389496 0 0 1 -0.508743,-0.14963 C 32.87247,9.7515006 31.856964,8.7384448 30.72748,7.8639968 A 0.4389496,0.4389496 0 0 1 30.57785,7.3253284 L 31.715039,4.6319861 C 31.949671,4.0773151 31.73693,3.539707 31.206296,3.315241 a 0.4389496,0.4389496 0 0 1 0,-0.029926 l -5.26698,-2.2444519 v 0.029926 c -0.528573,-0.22359333 -1.050303,0.00947 -1.286819,0.5685945 L 23.515308,4.3327259 A 0.4389496,0.4389496 0 0 1 23.036491,4.6020601 C 21.626342,4.4010909 20.146388,4.3902999 18.697218,4.5721341 A 0.4389496,0.4389496 0 0 1 18.218401,4.2728738 L 17.141065,1.6094576 V 1.5795316 C 16.911119,1.045131 16.343052,0.8006076 15.824319,1.0109371 a 0.4389496,0.4389496 0 0 1 -0.02993,0 z m 5.027573,13.0477469 c 2.597945,0.03931 5.069455,1.605993 6.104909,4.159717 1.380707,3.405218 -0.276802,7.32822 -3.680901,8.708474 -3.405218,1.380707 -7.32822,-0.276802 -8.708474,-3.680901 -1.380707,-3.405218 0.276802,-7.32822 3.680901,-8.708474 0.85278,-0.345774 1.740559,-0.491876 2.603565,-0.478816 z"
     id="6"
     display="block"
     inkscape:connector-curvature="0"
     style="display:block;fill:url(#E);stroke-width:2.0" />
  <path
     style="opacity:0.80;fill:#cccccc;fill-opacity:0.80;stroke:#404040;stroke-width:2;stroke-linecap:round;stroke-linejoin:round;stroke-miterlimit:4;stroke-dasharray:none;stroke-dashoffset:67.99999237;stroke-opacity:0.80"
     d="m 19.478516,1.2871094 c -5.4999,0.3624996 -8.417531,4.38514 -8.433594,8.2070312 V 17.115234 H 6.4609375 c 0,0 -2.6845615,14.264044 -0.070312,20.621094 0.3682035,0.895357 2.0488281,2.056641 2.0488281,2.056641 l 11.4218724,-0.07422 11.421877,0.07422 c 0,0 1.680624,-1.161284 2.048828,-2.056641 2.614252,-6.35705 -0.07031,-20.621094 -0.07031,-20.621094 H 28.677734 V 9.4941406 c -0.01606,-3.821892 -2.933693,-7.8445316 -8.433593,-8.2070312 -0.131166,0.00478 -0.254488,0.020327 -0.382815,0.029297 -0.128326,-0.00897 -0.251644,-0.024514 -0.38281,-0.029297 z m 0.382809,3.5948073 c 1.948263,-0.1364013 4.74209,2.1357529 4.706869,4.5100409 v 7.6523434 l -4.706868,0.07093 -4.635937,-0.07093 -0.07093,-7.7942093 c 0.05891,-2.9096283 3.063943,-4.4097571 4.706867,-4.368178 z"
     id="path1038"
     inkscape:connector-curvature="0"
     sodipodi:nodetypes="ccccscccscccccccccccccc" />
</svg>
