<?xml version="1.0" encoding="UTF-8" standalone="no"?>
<svg
   xmlns:dc="http://purl.org/dc/elements/1.1/"
   xmlns:cc="http://creativecommons.org/ns#"
   xmlns:rdf="http://www.w3.org/1999/02/22-rdf-syntax-ns#"
   xmlns:svg="http://www.w3.org/2000/svg"
   xmlns="http://www.w3.org/2000/svg"
   xmlns:sodipodi="http://sodipodi.sourceforge.net/DTD/sodipodi-0.dtd"
   xmlns:inkscape="http://www.inkscape.org/namespaces/inkscape"
   width="100mm"
   height="140mm"
   viewBox="0 -140 100 140"
   version="1.1"
   id="svg2548"
   sodipodi:docname="medianotsupported.svg"
   inkscape:version="0.92.5 (2060ec1f9f, 2020-04-08)">
  <metadata
     id="metadata2554">
    <rdf:RDF>
      <cc:Work
         rdf:about="">
        <dc:format>image/svg+xml</dc:format>
        <dc:type
           rdf:resource="http://purl.org/dc/dcmitype/StillImage" />
      </cc:Work>
    </rdf:RDF>
  </metadata>
  <defs
     id="defs2552" />
  <sodipodi:namedview
     pagecolor="#ffffff"
     bordercolor="#666666"
     borderopacity="1"
     objecttolerance="10"
     gridtolerance="10"
     guidetolerance="10"
     inkscape:pageopacity="0"
     inkscape:pageshadow="2"
     inkscape:window-width="3840"
     inkscape:window-height="2110"
     id="namedview2550"
     showgrid="false"
     inkscape:zoom="2.5230243"
     inkscape:cx="118.65112"
     inkscape:cy="261.67229"
     inkscape:window-x="0"
     inkscape:window-y="0"
     inkscape:window-maximized="1"
     inkscape:current-layer="svg2548" />
  <title
     id="title2544">OpenSCAD Model</title>
  <path
     d="M 30,-140 0,-110 H 30 Z M 85.6248,-41.4332 100,-43.5895 V -140 H 30 L 14.962785,-124.93235 0,-110 v 64.6478 l 14.7687,4.4306 3.0156,3.9202 L 28.628,-64.1108 39.2555,-46.0441 50,-68.6075 60.7445,-46.0441 71.372,-64.1108 82.2157,-37.0014 Z M 34.3185,-84.8236 15,-90 l 0.6406,-2.3909 0.6535,-2.4387 15.0541,4.0337 4.2644,1.1427 z m 29.3874,-4.506 19.1112,-5.1209 0.2073,-0.0555 1.2941,4.8296 L 65,-84.5 Z M 100,-35.5 90,-34 80,-21 70,-46 60,-29 50,-50 40,-29 30,-46 20,-21 10,-34 0,-37 V 0 h 100 z"
     id="path2546"
     style="fill:#d3d3d3;stroke:#000000;stroke-width:1.32291663;stroke-miterlimit:4;stroke-dasharray:none"
     inkscape:connector-curvature="0"
     sodipodi:nodetypes="ccccccccccccccccccccccccccccccccccccccccccccccc" />
</svg>
