<?xml version="1.0" encoding="UTF-8" standalone="no"?>
<svg
   xmlns:dc="http://purl.org/dc/elements/1.1/"
   xmlns:cc="http://creativecommons.org/ns#"
   xmlns:rdf="http://www.w3.org/1999/02/22-rdf-syntax-ns#"
   xmlns:svg="http://www.w3.org/2000/svg"
   xmlns="http://www.w3.org/2000/svg"
   xmlns:sodipodi="http://sodipodi.sourceforge.net/DTD/sodipodi-0.dtd"
   xmlns:inkscape="http://www.inkscape.org/namespaces/inkscape"
   width="139.80946"
   height="85.758934"
   viewBox="0 0 139.80946 85.758934"
   version="1.1"
   id="svg25"
   sodipodi:docname="mexc.svg"
   style="fill:none"
   inkscape:version="0.92.5 (2060ec1f9f, 2020-04-08)">
  <metadata
     id="metadata29">
    <rdf:RDF>
      <cc:Work
         rdf:about="">
        <dc:format>image/svg+xml</dc:format>
        <dc:type
           rdf:resource="http://purl.org/dc/dcmitype/StillImage" />
        <dc:title></dc:title>
      </cc:Work>
    </rdf:RDF>
  </metadata>
  <sodipodi:namedview
     pagecolor="#ffffff"
     bordercolor="#666666"
     borderopacity="1"
     objecttolerance="10"
     gridtolerance="10"
     guidetolerance="10"
     inkscape:pageopacity="0"
     inkscape:pageshadow="2"
     inkscape:window-width="2801"
     inkscape:window-height="1422"
     id="namedview27"
     showgrid="false"
     fit-margin-top="0"
     fit-margin-left="0"
     fit-margin-right="0"
     fit-margin-bottom="0"
     inkscape:zoom="1.0258176"
     inkscape:cx="292.4084"
     inkscape:cy="43.26364"
     inkscape:window-x="548"
     inkscape:window-y="262"
     inkscape:window-maximized="0"
     inkscape:current-layer="svg25" />
  <path
     d="m 137.52074,60.585998 -30.186,-52.4092005 c -6.588,-10.914462 -22.812699,-11.01279 -29.204099,0.4917 l -31.6618,54.4740005 c -5.8997,10.0296 1.3766,22.5173 13.2743,22.5173 h 63.618599 c 11.898,0.0983 20.846,-12.881 14.159,-25.0738 z"
     id="path2"
     inkscape:connector-curvature="0"
     style="fill:#003087" />
  <path
     d="m 93.961541,64.715798 -1.8682,-3.2449 c -1.7699,-3.0481 -5.6048,-9.5378 -5.6048,-9.5378 L 60.923141,7.4885675 c -6.588,-9.832867 -22.3206,-10.71784 -28.9086,1.76993 L 2.2209505,60.782598 c -6.19471,10.8162 1.17996,24.8772 14.5526905,24.9755 h 63.2253 26.941799 16.028 c -16.323,0.0984 -21.534,-8.4563 -29.007199,-21.0423 z"
     id="path4"
     inkscape:connector-curvature="0"
     style="fill:#1877f2" />
  <path
     d="m 93.961541,64.519098 -1.8682,-3.2449 c -1.7699,-3.0481 -5.6047,-9.5378 -5.6047,-9.5378 l -16.5192,-29.1053 -23.6973,40.5114 c -5.8997,10.0295 1.3766,22.5173 13.2744,22.5173 h 20.354 26.942199 16.126 c -16.421,-0.0983 -21.534,-8.4563 -29.007199,-21.1407 z"
     id="path6"
     inkscape:connector-curvature="0"
     style="fill:url(#paint0_linear_10907_331)" />
  <defs
     id="defs23">
    <linearGradient
       id="paint0_linear_10907_331"
       x1="37.8559"
       y1="46.7869"
       x2="111.314"
       y2="73.932098"
       gradientUnits="userSpaceOnUse"
       gradientTransform="translate(-0.04125947,-2.0047025)">
      <stop
         stop-color="#003087"
         stop-opacity="0"
         id="stop18" />
      <stop
         offset="1"
         stop-color="#003087"
         id="stop20" />
    </linearGradient>
  </defs>
</svg>
