<?xml version="1.0" encoding="UTF-8" standalone="no"?>
<!-- Created with Inkscape (http://www.inkscape.org/) -->
<svg xmlns:dc="http://purl.org/dc/elements/1.1/" xmlns:cc="http://creativecommons.org/ns#" xmlns:rdf="http://www.w3.org/1999/02/22-rdf-syntax-ns#" xmlns:svg="http://www.w3.org/2000/svg" xmlns="http://www.w3.org/2000/svg" xmlns:sodipodi="http://sodipodi.sourceforge.net/DTD/sodipodi-0.dtd" xmlns:inkscape="http://www.inkscape.org/namespaces/inkscape" width="155mm" height="155mm" viewBox="0 0 155 155" version="1.1" id="svg8" inkscape:version="0.92.5 (2060ec1f9f, 2020-04-08)" sodipodi:docname="niftyart_logo_plain.svg" inkscape:export-filename="/home/stone/niftyarticon.png" inkscape:export-xdpi="31.463224" inkscape:export-ydpi="31.463224">
  <metadata id="metadata823">
    <rdf:RDF>
      <cc:Work rdf:about="">
        <dc:format>image/svg+xml</dc:format>
        <dc:type rdf:resource="http://purl.org/dc/dcmitype/StillImage"/>
        <dc:title/>
      </cc:Work>
    </rdf:RDF>
  </metadata>
  <defs id="defs2"/>
  <sodipodi:namedview id="base" pagecolor="#ffffff" bordercolor="#666666" borderopacity="1.0" inkscape:pageopacity="0.0" inkscape:pageshadow="2" inkscape:zoom="1.6968359" inkscape:cx="292.91682" inkscape:cy="247.43426" inkscape:document-units="mm" inkscape:current-layer="layer1" showgrid="false" inkscape:window-width="3840" inkscape:window-height="2133" inkscape:window-x="7680" inkscape:window-y="0" inkscape:window-maximized="1" fit-margin-top="0" fit-margin-left="0" fit-margin-right="0" fit-margin-bottom="0"/>
  <g inkscape:label="Layer 1" inkscape:groupmode="layer" id="layer1" transform="translate(-25.626845,-8.697014)">
    <g id="g918" transform="matrix(1.8544956,0,0,1.5729855,-89.558203,-14.872924)">
      <polygon transform="matrix(0.158151,0,0,-0.17396838,60.32528,107.29307)" id="polygon872-6" points="531.2,399.4 315.5,9.9 234.6,9.9 412.6,331.3 215.2,331.3 177.9,399.2 " class="st0" style="fill:#fffd9d;fill-opacity:1;stroke:#000000;stroke-linejoin:round;stroke-miterlimit:10"/>
      <polygon transform="matrix(0.158151,0,0,-0.17396838,60.32528,107.29307)" id="polygon874-7" points="139,470.1 493.4,470.1 531.2,399.2 177.9,399.2 275.6,219.5 236.2,148.8 60.5,470.1 " class="st1" style="fill:#ffe144;fill-opacity:1;stroke:#000000;stroke-linejoin:round;stroke-miterlimit:10"/>
      <polygon transform="matrix(0.158151,0,0,-0.17396838,60.32528,107.29307)" id="polygon876-5" points="412.6,331.3 234.6,9.9 19.8,399.4 60.5,470.1 236.2,148.8 337.9,331.3 " class="st2" style="fill:#e9c250;fill-opacity:1;stroke:#000000;stroke-linejoin:round;stroke-miterlimit:10"/>
    </g>
  </g>
</svg>