<?xml version="1.0" encoding="UTF-8" standalone="no"?>
<svg
   xmlns:dc="http://purl.org/dc/elements/1.1/"
   xmlns:cc="http://creativecommons.org/ns#"
   xmlns:rdf="http://www.w3.org/1999/02/22-rdf-syntax-ns#"
   xmlns:svg="http://www.w3.org/2000/svg"
   xmlns="http://www.w3.org/2000/svg"
   xmlns:sodipodi="http://sodipodi.sourceforge.net/DTD/sodipodi-0.dtd"
   xmlns:inkscape="http://www.inkscape.org/namespaces/inkscape"
   version="1.1"
   viewBox="0 0 125.45232 125.45263"
   space="preserve"
   id="Layer_1"
   sodipodi:docname="plus2.svg"
   inkscape:version="0.92.5 (2060ec1f9f, 2020-04-08)"
   width="125.45232"
   height="125.45264">
  <title
     id="title1665">Purple Plus</title>
  <sodipodi:namedview
     pagecolor="#ffffff"
     bordercolor="#666666"
     borderopacity="1"
     objecttolerance="10"
     gridtolerance="10"
     guidetolerance="10"
     inkscape:pageopacity="0"
     inkscape:pageshadow="2"
     inkscape:window-width="3151"
     inkscape:window-height="1777"
     id="namedview4657"
     showgrid="false"
     inkscape:zoom="6.9414825"
     inkscape:cx="42.202985"
     inkscape:cy="35.516753"
     inkscape:window-x="4162"
     inkscape:window-y="215"
     inkscape:window-maximized="0"
     inkscape:current-layer="Layer_1"
     fit-margin-top="0"
     fit-margin-left="0"
     fit-margin-right="0"
     fit-margin-bottom="0" />
  <defs
     id="defs24" />
  <path
     style="opacity:1;fill:#8c69e8;fill-opacity:1;stroke:#61248a;stroke-width:3;stroke-linecap:square;stroke-linejoin:round;stroke-miterlimit:4;stroke-dasharray:none;stroke-dashoffset:0;stroke-opacity:1"
     d="M 62.726105,1.5019171 C 58.071516,1.4288701 53.3212,3.4204882 48.464386,7.6952766 V 48.609339 H 7.1186834 c -7.22424977,8.945499 -7.75426977,18.233636 0,27.947266 H 48.464386 v 41.777345 c 8.945499,7.22425 18.233638,7.75427 27.947266,0 V 76.556605 h 41.345708 c 7.96519,-8.945501 8.54957,-18.233638 0,-27.947266 H 76.411652 V 7.6952766 C 71.938902,3.7126762 67.380694,1.5749641 62.726105,1.5019171 Z"
     id="rect1600"
     inkscape:connector-curvature="0" />
  <path
     inkscape:connector-curvature="0"
     id="path5"
     style="fill:#302974;fill-opacity:1;stroke-width:0.78201437"
     d="m 54.529859,115.87949 c 0,2.605 5.279254,4.26323 8.665546,3.98635 2.989239,-0.0706 9.21044,-2.42953 6.827785,-4.32849"
     sodipodi:nodetypes="ccc" />
  <path
     inkscape:connector-curvature="0"
     id="path18"
     style="fill:#3d3386;fill-opacity:1;stroke-width:0.92989337"
     d="m 55.031859,72.013829 c 2.662,0.0026 1.336,35.668941 0.805,38.957401 -0.355,2.18683 -1.286,1.9646 -1.821,-0.0441 -1.221,-4.58378 -1.267,-9.50393 -1.39,-14.1811 -0.051,-1.90235 -0.788,-24.73566 2.406,-24.733065" />
  <path
     inkscape:connector-curvature="0"
     id="path20"
     style="fill:#9796d9;fill-opacity:1"
     d="m 72.190888,55.318417 c 0,2.655 35.873992,1.289 39.164992,0.886 1.56,-0.192 3.561,-0.983 0.977,-1.775 -4.489,-1.373 -9.612,-1.36 -14.254,-1.5 -2.1,-0.063 -25.894992,-0.848 -25.894992,2.389" />
  <path
     inkscape:connector-curvature="0"
     id="path22"
     style="fill:#9796d9;fill-opacity:1"
     d="m 12.642088,54.477171 c 0.003,-2.251 42.618,-1.799 42.62,0.001 0,1.925 -42.614,5.579 -42.62,-0.001" />
  <path
     inkscape:connector-curvature="0"
     id="path26"
     style="fill:#797cc2;fill-opacity:1;stroke-width:0.93669647"
     d="m 54.962045,14.60826 c -2.248,0 -1.804,37.115788 -0.001,37.115788 1.96,8.77e-4 5.559,-37.115788 0.001,-37.115788" />
  <path
     inkscape:connector-curvature="0"
     id="path28"
     style="fill:#97acd9;fill-opacity:1"
     d="m 69.297178,13.502198 c -2.252,0 -1.262,24.248 -1.252,26.235 0.018,3.709 -0.439,8.161 0.687,11.765 0.868,2.78 2.254,-4.511 2.307,-4.922 0.425,-3.336 3.336,-33.084 -1.742,-33.078" />
  <path
     inkscape:connector-curvature="0"
     id="path30"
     style="fill:#675994;fill-opacity:1;stroke-width:0.93715268"
     d="m 70.736793,73.75515 c -1.948,-0.0044 -1.256,20.29384 -1.256,22.0565 0,5.04821 -0.267,10.19127 0.327,15.22191 0.328,2.78846 1.466,3.04228 2.171,0.18532 0.702,-2.83677 3.572,-37.470756 -1.242,-37.461095" />
  <path
     inkscape:connector-curvature="0"
     id="path32"
     style="fill:#302974;fill-opacity:1"
     d="m 13.956457,67.258244 c -0.003,-2.246 24.25,-1.262 26.234,-1.25 3.711,0.018 8.162,-0.439 11.765,0.685 2.782,0.868 -4.512,2.256 -4.92,2.308 -3.334,0.424 -33.09,3.329 -33.079,-1.743" />
  <path
     inkscape:connector-curvature="0"
     id="path34"
     style="fill:#673f9a;fill-opacity:1"
     d="m 70.492748,68.990982 c -0.002,-1.971 22.218998,-1.261 24.128002,-1.261 5.747,0 11.603,-0.263 17.332,0.33 3.173,0.328 3.465,1.465 0.212,2.172 -3.23,0.703 -41.670002,3.654 -41.670002,-1.241" />
  <metadata
     id="metadata21">
    <rdf:RDF>
      <cc:Work>
        <dc:format>image/svg+xml</dc:format>
        <dc:type
           rdf:resource="http://purl.org/dc/dcmitype/StillImage" />
        <cc:license
           rdf:resource="http://creativecommons.org/publicdomain/zero/1.0/" />
        <dc:publisher>
          <cc:Agent
             rdf:about="http://openclipart.org/">
            <dc:title></dc:title>
          </cc:Agent>
        </dc:publisher>
        <dc:title>Purple Plus</dc:title>
        <dc:date></dc:date>
        <dc:description></dc:description>
        <dc:source></dc:source>
        <dc:creator>
          <cc:Agent>
            <dc:title>Andrew Stone</dc:title>
          </cc:Agent>
        </dc:creator>
        <dc:subject>
          <rdf:Bag />
        </dc:subject>
      </cc:Work>
      <cc:License
         rdf:about="http://creativecommons.org/publicdomain/zero/1.0/">
        <cc:permits
           rdf:resource="http://creativecommons.org/ns#Reproduction" />
        <cc:permits
           rdf:resource="http://creativecommons.org/ns#Distribution" />
        <cc:permits
           rdf:resource="http://creativecommons.org/ns#DerivativeWorks" />
      </cc:License>
    </rdf:RDF>
  </metadata>
  <path
     inkscape:connector-curvature="0"
     id="path5-7"
     style="fill:#302974;fill-opacity:1;stroke-width:0.78201437"
     d="m 9.6762804,54.858488 c -2.605,0 -4.26323,5.279255 -3.98635,8.665547 0.0706,2.989239 2.42953,9.21044 4.3284896,6.827785"
     sodipodi:nodetypes="ccc" />
  <path
     inkscape:connector-curvature="0"
     id="path5-5"
     style="fill:#7986c9;fill-opacity:1;stroke-width:0.78201437"
     d="m 115.92087,70.595589 c 2.605,0 4.26323,-5.27926 3.98635,-8.66555 -0.0706,-2.98924 -2.42953,-9.21044 -4.32849,-6.82779"
     sodipodi:nodetypes="ccc" />
  <path
     inkscape:connector-curvature="0"
     id="path5-3"
     style="fill:#83a9d6;fill-opacity:1;stroke-width:0.78201437"
     d="m 53.993631,10.973328 c 0,-2.6050004 5.27925,-4.2632304 8.66554,-3.9863504 2.98924,0.0706 9.21044,2.42953 6.82779,4.3284904"
     sodipodi:nodetypes="ccc" />
</svg>
