<?xml version="1.0" encoding="UTF-8" standalone="no"?>
<!-- Generator: Adobe Illustrator 19.0.0, SVG Export Plug-In . SVG Version: 6.00 Build 0)  -->

<svg
   xmlns:dc="http://purl.org/dc/elements/1.1/"
   xmlns:cc="http://creativecommons.org/ns#"
   xmlns:rdf="http://www.w3.org/1999/02/22-rdf-syntax-ns#"
   xmlns:svg="http://www.w3.org/2000/svg"
   xmlns="http://www.w3.org/2000/svg"
   xmlns:sodipodi="http://sodipodi.sourceforge.net/DTD/sodipodi-0.dtd"
   xmlns:inkscape="http://www.inkscape.org/namespaces/inkscape"
   version="1.1"
   x="0px"
   y="0px"
   viewBox="0 0 512 512"
   style="enable-background:new 0 0 512 512;"
   xml:space="preserve"
   id="svg71"
   sodipodi:docname="purple_wally_on_coin.svg"
   inkscape:version="0.92.5 (2060ec1f9f, 2020-04-08)"><metadata
   id="metadata77"><rdf:RDF><cc:Work
       rdf:about=""><dc:format>image/svg+xml</dc:format><dc:type
         rdf:resource="http://purl.org/dc/dcmitype/StillImage" /></cc:Work></rdf:RDF></metadata><defs
   id="defs75" /><sodipodi:namedview
   pagecolor="#ffffff"
   bordercolor="#666666"
   borderopacity="1"
   objecttolerance="10"
   gridtolerance="10"
   guidetolerance="10"
   inkscape:pageopacity="0"
   inkscape:pageshadow="2"
   inkscape:window-width="2909"
   inkscape:window-height="1583"
   id="namedview73"
   showgrid="false"
   inkscape:zoom="2.7441406"
   inkscape:cx="181.11317"
   inkscape:cy="256"
   inkscape:window-x="4525"
   inkscape:window-y="224"
   inkscape:window-maximized="0"
   inkscape:current-layer="ombre" />
<style
   type="text/css"
   id="style2">
	.st0{fill:#C4A6FF;}
	.st1{fill:#C4A6FF;stroke:#070707;stroke-width:14;stroke-linecap:round;stroke-linejoin:round;stroke-miterlimit:10;}
	.st2{fill:#FFFFFF;stroke:#070707;stroke-width:8;stroke-miterlimit:10;}
	.st3{fill:#FFCE00;}
	.st4{opacity:0.05;fill:#FF0000;}
	.st5{fill:#FFFFFF;stroke:#000000;stroke-width:7;stroke-linecap:round;stroke-linejoin:round;stroke-miterlimit:10;}
	.st6{fill:#0C0A00;stroke:#070707;stroke-width:14;stroke-linecap:round;stroke-linejoin:round;stroke-miterlimit:10;}
	.st7{opacity:0.3;}
	.st8{opacity:0.05;}
	.st9{fill:none;stroke:#070707;stroke-width:3;stroke-linecap:round;stroke-linejoin:round;stroke-miterlimit:10;}
	.st10{fill:#FFFFFF;}
	.st11{opacity:0.2;}
	.st12{opacity:0.1;}
	.st13{opacity:0.15;}
</style>


<g
   id="ombre"
   inkscape:label="coin">
	<polygon
   id="XMLID_297_"
   class="st0"
   points="303.5,332.28 395.5,328.72 368.33,238.15 365,195.15 153.31,195.15 150.96,233.48 120.5,301.4 "
   style="fill:#c4a6ff" />
	<path
   id="XMLID_296_"
   class="st1"
   d="m 366.16,238.15 c 0,0 53.02,7 53.02,53.55 0,33.57 -30.37,31.97 -30.37,31.97"
   inkscape:connector-curvature="0"
   style="fill:#c4a6ff;stroke:#070707;stroke-width:14;stroke-linecap:round;stroke-linejoin:round;stroke-miterlimit:10" />
	<path
   id="XMLID_295_"
   class="st1"
   d="m 144.8,302.92 c -16.03,-8.23 -35.53,-7.8 -35.53,-7.8 0,0 -32.06,1.73 -32.5,32.93 -0.43,31.2 32.5,41.6 32.5,41.6 0,0 85.73,11 160.23,9.5 74.5,-1.5 99.22,-2 99.22,-2 0,0 63.68,2.99 64.22,-33.78 0.53,-36.77 -68.14,-23.22 -68.14,-23.22"
   inkscape:connector-curvature="0"
   style="fill:#c4a6ff;stroke:#070707;stroke-width:14;stroke-linecap:round;stroke-linejoin:round;stroke-miterlimit:10" />
	<path
   id="XMLID_294_"
   class="st1"
   d="m 123.43,295.61 c 0,0 -19.95,-4.89 -13,-29.56 6.95,-24.67 40.23,-27.9 40.23,-27.9"
   inkscape:connector-curvature="0"
   style="fill:#c4a6ff;stroke:#070707;stroke-width:14;stroke-linecap:round;stroke-linejoin:round;stroke-miterlimit:10" />
	<path
   id="XMLID_293_"
   class="st1"
   d="m 150.66,238.15 c 0,0 3.59,-78.6 33.07,-108.53 l 5.02,-20.2 c 2.03,-11.11 5.73,-21.85 10.97,-31.85 v 0 c 6.33,-12.09 16.8,-18.88 30.31,-16.96 l 14.71,2.26 c 6.81,0.97 13.71,1.06 20.55,0.26 l 23.48,-3.29 c 12.72,-1.48 25.1,4.71 31.56,15.76 l 0.03,0.05 c 6.58,11.26 11.15,23.58 13.49,36.4 l 4.54,17.57 c 29.48,29.93 27.76,108.53 27.76,108.53"
   inkscape:connector-curvature="0"
   style="fill:#c4a6ff;stroke:#070707;stroke-width:14;stroke-linecap:round;stroke-linejoin:round;stroke-miterlimit:10" />
	<path
   id="XMLID_292_"
   class="st2"
   d="m 245.17,91.33 c 4.39,2.02 6.61,7.16 4.74,11.62 -3.35,7.99 -11.23,13.56 -20.5,13.56 -8.99,0 -16.71,-5.21 -20.24,-12.81 -2.16,-4.66 -0.06,-10.2 4.65,-12.26 l 0.38,-0.17 c 1.16,-0.51 2.42,-0.77 3.69,-0.77 h 23.45 c 1.32,-0.01 2.63,0.27 3.83,0.83 z"
   inkscape:connector-curvature="0"
   style="fill:#ffffff;stroke:#070707;stroke-width:8;stroke-miterlimit:10"
   inkscape:label="left_eye" />
	<path
   id="XMLID_291_"
   class="st2"
   d="m 308.07,91.33 c 4.39,2.02 6.61,7.16 4.74,11.62 -3.35,7.99 -11.23,13.56 -20.5,13.56 -8.99,0 -16.71,-5.21 -20.24,-12.81 -2.16,-4.66 -0.06,-10.2 4.65,-12.26 l 0.38,-0.17 c 1.16,-0.51 2.42,-0.77 3.69,-0.77 h 23.45 c 1.32,-0.01 2.63,0.27 3.83,0.83 z"
   inkscape:connector-curvature="0"
   style="fill:#ffffff;stroke:#070707;stroke-width:8;stroke-miterlimit:10"
   inkscape:label="right_eye" />
	<g
   id="XMLID_210_"
   inkscape:label="coin">
		<g
   id="XMLID_219_">
			<path
   id="XMLID_330_"
   class="st3"
   d="m 59.85,446.96 c -6.7,0 -12.14,-5.45 -12.14,-12.14 v -51.27 c 0,-6.7 5.45,-12.14 12.14,-12.14 h 390.29 c 6.7,0 12.14,5.45 12.14,12.14 v 51.27 c 0,6.7 -5.45,12.14 -12.14,12.14 z"
   inkscape:connector-curvature="0"
   style="fill:#ffce00" />
			<path
   id="XMLID_327_"
   d="m 450.15,378.41 c 2.84,0 5.14,2.3 5.14,5.14 v 51.27 c 0,2.84 -2.3,5.14 -5.14,5.14 H 59.85 c -2.84,0 -5.14,-2.3 -5.14,-5.14 v -51.27 c 0,-2.84 2.3,-5.14 5.14,-5.14 h 390.3 m 0,-14 H 59.85 c -10.56,0 -19.14,8.59 -19.14,19.14 v 51.27 c 0,10.56 8.59,19.14 19.14,19.14 h 390.29 c 10.56,0 19.14,-8.59 19.14,-19.14 v -51.27 c 0.01,-10.56 -8.58,-19.14 -19.13,-19.14 z"
   inkscape:connector-curvature="0" />
		</g>
		<rect
   id="XMLID_218_"
   x="81.25"
   y="378.41"
   class="st4"
   width="27.709999"
   height="61.560001"
   style="opacity:0.05;fill:#ff0000" />
		<rect
   id="XMLID_217_"
   x="135.97"
   y="378.41"
   class="st4"
   width="27.709999"
   height="61.560001"
   style="opacity:0.05;fill:#ff0000" />
		<rect
   id="XMLID_215_"
   x="191.2"
   y="378.41"
   class="st4"
   width="27.709999"
   height="61.560001"
   style="opacity:0.05;fill:#ff0000" />
		<rect
   id="XMLID_214_"
   x="247.2"
   y="378.41"
   class="st4"
   width="27.709999"
   height="61.560001"
   style="opacity:0.05;fill:#ff0000" />
		<rect
   id="XMLID_213_"
   x="301.20001"
   y="378.41"
   class="st4"
   width="27.709999"
   height="61.560001"
   style="opacity:0.05;fill:#ff0000" />
		<rect
   id="XMLID_212_"
   x="355.20001"
   y="378.41"
   class="st4"
   width="27.709999"
   height="61.560001"
   style="opacity:0.05;fill:#ff0000" />
		<rect
   id="XMLID_211_"
   x="407.20001"
   y="378.41"
   class="st4"
   width="27.709999"
   height="61.560001"
   style="opacity:0.05;fill:#ff0000" />
	</g>
	<path
   id="XMLID_209_"
   class="st5"
   d="m 193.2,209.15 10.03,94.8 c 1.3,12.3 15.35,12.51 16.88,0.25 l 11.83,-95.04"
   inkscape:connector-curvature="0"
   style="fill:#ffffff;stroke:#000000;stroke-width:7;stroke-linecap:round;stroke-linejoin:round;stroke-miterlimit:10" />
	<path
   id="XMLID_208_"
   class="st5"
   d="m 287.2,209.15 10.03,94.8 c 1.3,12.3 15.35,12.51 16.88,0.25 l 11.83,-95.04"
   inkscape:connector-curvature="0"
   style="fill:#ffffff;stroke:#000000;stroke-width:7;stroke-linecap:round;stroke-linejoin:round;stroke-miterlimit:10" />
	<path
   id="XMLID_207_"
   class="st1"
   d="m 220.21,138.13 c -6.62,2.32 -13.51,5.41 -20.21,9.53 -28.5,17.5 -25.5,36 -25.5,36 0,0 -2.5,33 37.5,32.5 40,-0.5 48,-28.32 48,-28.32"
   inkscape:connector-curvature="0"
   style="fill:#c4a6ff;stroke:#070707;stroke-width:14;stroke-linecap:round;stroke-linejoin:round;stroke-miterlimit:10" />
	<path
   id="XMLID_206_"
   class="st1"
   d="m 298.58,137.55 c 7.09,2.38 14.56,5.64 21.83,10.11 28.5,17.5 25.5,36 25.5,36 0,0 2.5,33 -37.5,32.5 -40,-0.5 -48,-28.32 -48,-28.32"
   inkscape:connector-curvature="0"
   style="fill:#c4a6ff;stroke:#070707;stroke-width:14;stroke-linecap:round;stroke-linejoin:round;stroke-miterlimit:10" />
	<polygon
   id="XMLID_205_"
   class="st6"
   points="260.33,133.7 270.54,137.47 260.33,147.68 250.12,137.47 "
   style="fill:#0c0a00;stroke:#070707;stroke-width:14;stroke-linecap:round;stroke-linejoin:round;stroke-miterlimit:10" />
	<ellipse
   id="XMLID_204_"
   cx="237"
   cy="105.67"
   rx="9.1199999"
   ry="8.2799997" />
	<ellipse
   id="XMLID_203_"
   cx="301.35999"
   cy="105.67"
   rx="9.1199999"
   ry="8.2799997" />
	<circle
   id="XMLID_202_"
   cx="189.08"
   cy="188.99001"
   r="3.0799999" />
	<circle
   id="XMLID_201_"
   cx="200.53999"
   cy="183.89999"
   r="3.0799999" />
	<circle
   id="XMLID_200_"
   cx="197.99001"
   cy="197.91"
   r="3.0799999" />
	<circle
   id="XMLID_199_"
   cx="331.07999"
   cy="184.95"
   r="3.0799999" />
	<circle
   id="XMLID_198_"
   cx="327.13"
   cy="196.86"
   r="3.0799999" />
	<circle
   id="XMLID_197_"
   cx="318.48999"
   cy="185.53999"
   r="3.0799999" />
	<circle
   id="XMLID_196_"
   cx="314.48999"
   cy="197.53999"
   r="3.0799999" />
	<circle
   id="XMLID_195_"
   cx="209.49001"
   cy="192.53999"
   r="3.0799999" />
	<path
   id="XMLID_194_"
   class="st7"
   d="m 363.33,242.82 c 0,0 12.33,3.33 21,31.33 8.67,28 -9.33,42 -9.33,42 h 35.53 l 8.65,-24.22 -8.85,-30.61 z"
   inkscape:connector-curvature="0"
   style="opacity:0.3" />
	<path
   id="XMLID_193_"
   class="st7"
   d="m 381,246.15 c 0,0 14,17.67 15.67,33.33 1.67,15.67 -5.41,33.79 -5.41,33.79 l 22.07,2.88 5.85,-35 -19.09,-31 z"
   inkscape:connector-curvature="0"
   style="opacity:0.3" />
	<path
   id="XMLID_192_"
   class="st7"
   d="m 386.57,323.69 c 0,0 -20.62,26.13 -42.95,27.8 -22.33,1.67 7.71,16.67 7.71,16.67 H 419 l 13.3,-30.95 -22.08,-17.67 z"
   inkscape:connector-curvature="0"
   style="opacity:0.3" />
	<path
   id="XMLID_191_"
   class="st7"
   d="m 412.67,326.15 c 0,0 -4.01,21.04 -28.84,28.36 C 359,361.82 347,365.79 347,365.79 l 32.35,4.7 43.32,-7 10.27,-24.65 z"
   inkscape:connector-curvature="0"
   style="opacity:0.3" />
	<path
   id="XMLID_190_"
   class="st7"
   d="m 250,354.51 c 0,0 29.27,-0.02 37.94,-2.02 l -3.36,15.67 -34.58,-2.34 z"
   inkscape:connector-curvature="0"
   style="opacity:0.3" />
	<path
   id="XMLID_189_"
   class="st7"
   d="m 133.33,354.51 c 0,0 -30.17,3.82 -52.08,-26.27 l 0.77,20.08 20.98,17.5 26.81,2.33 z"
   inkscape:connector-curvature="0"
   style="opacity:0.3" />
	<polygon
   id="XMLID_188_"
   class="st8"
   points="341.36,409.23 345.35,375.15 357,375.15 353.86,409.19 458,400.65 458,440.15 449.13,448.65 51,445.65 51,431.01 "
   style="opacity:0.05" />
	<path
   id="XMLID_187_"
   class="st1"
   d="m 341.33,367.23 c 0,0 1.87,66.73 -25.4,63.57 -27.27,-3.16 -27.27,-63.57 -27.27,-63.57 0,0 -1.31,-33.6 26.35,-32.02 27.66,1.58 26.32,32.02 26.32,32.02 z"
   inkscape:connector-curvature="0"
   style="fill:#c4a6ff;stroke:#070707;stroke-width:14;stroke-linecap:round;stroke-linejoin:round;stroke-miterlimit:10" />
	<path
   id="XMLID_186_"
   class="st9"
   d="m 313.57,427.62 c 0,0 -6.82,-18.43 -5.32,-46.46"
   inkscape:connector-curvature="0"
   style="fill:none;stroke:#070707;stroke-width:3;stroke-linecap:round;stroke-linejoin:round;stroke-miterlimit:10" />
	<path
   id="XMLID_185_"
   class="st9"
   d="m 318.25,427.62 c 0,0 6.09,-14.31 3.5,-46.46"
   inkscape:connector-curvature="0"
   style="fill:none;stroke:#070707;stroke-width:3;stroke-linecap:round;stroke-linejoin:round;stroke-miterlimit:10" />
	<path
   id="XMLID_184_"
   class="st7"
   d="m 332.25,354.68 c 0,0 -13.68,54.29 -19.76,54.59 -6.07,0.3 -14.78,-8.07 -14.78,-8.07 l 8.45,25.36 16.58,3.52 15.26,-37.79 v -27.13 z"
   inkscape:connector-curvature="0"
   style="opacity:0.3" />
	<polygon
   id="XMLID_183_"
   class="st10"
   points="244,378.15 54.71,425.15 54.46,402.05 224.51,378.15 "
   style="fill:#ffffff" />
	<polygon
   id="XMLID_182_"
   class="st10"
   points="199,373.15 54.65,392.12 54.71,396.82 226.67,373.15 "
   style="fill:#ffffff" />
	<path
   id="XMLID_181_"
   class="st1"
   d="m 214.51,344 c -2.64,0.33 -5.3,0.54 -7.97,0.55 -8.25,0.04 -24.44,-0.43 -33.83,-4.38 -13,-5.47 -41.68,6.06 -36,29.31 1.83,7.5 108.05,15.14 109.5,1 2.91,-28.46 -22.99,-27.57 -31.7,-26.48 z"
   inkscape:connector-curvature="0"
   style="fill:#c4a6ff;stroke:#070707;stroke-width:14;stroke-linecap:round;stroke-linejoin:round;stroke-miterlimit:10" />
	<path
   id="XMLID_180_"
   class="st9"
   d="m 240.5,368.15 c 0,0 -5.63,-10 -13.13,-12.5 -4.69,-1.56 -10.37,-1.22 -13.97,-0.74 -2.87,0.38 -5.77,0.57 -8.66,0.49 l -7.41,0.08"
   inkscape:connector-curvature="0"
   style="fill:none;stroke:#070707;stroke-width:3;stroke-linecap:round;stroke-linejoin:round;stroke-miterlimit:10" />
	<path
   id="XMLID_179_"
   class="st7"
   d="m 142.75,358.45 c 0,0 22.28,7.95 48.08,6.95 25.8,-1 49.17,-5.08 49.17,-5.08 v 11.83 l -100.33,-1.67 z"
   inkscape:connector-curvature="0"
   style="opacity:0.3" />
	<path
   id="XMLID_178_"
   class="st10"
   d="m 144.75,256.82 c 1.82,2.57 -2.75,11.06 -9.52,15.84 -6.76,4.79 -11.41,3.03 -13.23,0.46 -1.82,-2.57 0.73,-9.57 7.49,-14.36 6.77,-4.78 13.44,-4.51 15.26,-1.94 z"
   inkscape:connector-curvature="0"
   style="fill:#ffffff" />
	<path
   id="XMLID_177_"
   class="st10"
   d="m 158.28,250.83 c 0.29,1.34 -2.97,3.97 -6.5,4.75 -3.52,0.78 -5.09,-0.71 -5.39,-2.05 -0.3,-1.34 1.91,-3.72 5.43,-4.49 3.52,-0.77 6.16,0.45 6.46,1.79 z"
   inkscape:connector-curvature="0"
   style="fill:#ffffff" />
	<path
   id="XMLID_176_"
   class="st10"
   d="m 89,311.99 c 0,0 7.83,2.17 13.92,-2.08 6.08,-4.25 6.04,-7.67 6.04,-7.67 0,0 -5.96,-0.25 -12.12,3.58 -6.17,3.83 -7.84,6.17 -7.84,6.17 z"
   inkscape:connector-curvature="0"
   style="fill:#ffffff" />
	<path
   id="XMLID_175_"
   class="st7"
   d="m 232.94,327.65 c 40.06,-5.5 90.06,7.57 128.06,-3.97 38,-11.53 5.18,1.97 5.18,1.97 0,0 -38.08,18.06 -80.18,9.5 z"
   inkscape:connector-curvature="0"
   style="opacity:0.3" />
	<path
   id="XMLID_174_"
   class="st7"
   d="m 147.17,296.32 c 0,0 16,13.83 45.99,22.71 0,0 -33.82,0.33 -51.49,-9.6"
   inkscape:connector-curvature="0"
   style="opacity:0.3" />
	<path
   id="XMLID_173_"
   class="st7"
   d="m 351.67,180.82 c 0,0 8,33.33 -13.67,51 l -11.47,77.43 c -0.58,3.93 -2.32,7.64 -5.15,10.43 -2.89,2.84 -7,4.98 -11.91,2.15 -9.81,-5.67 -10.51,-12.52 -10.51,-12.52 l 6.17,3.98 7.34,-2.46 12.43,-93.39 z"
   inkscape:connector-curvature="0"
   style="opacity:0.3" />
	<path
   id="XMLID_172_"
   class="st7"
   d="m 287,224.82 c 0,0 -14.77,-1.66 -22.1,-8.66 0,0 -9.41,8.99 -19.51,11.99 l -12.08,77.33 c 0,0 -3.99,13.67 -13.32,12 -9.33,-1.67 -7.42,-4.27 -7.42,-4.27 l 8.1,-5.54 11.27,-91.51 28.37,-18.25 26.69,18.25 z"
   inkscape:connector-curvature="0"
   style="opacity:0.3" />
	<path
   id="XMLID_171_"
   class="st7"
   d="m 168.84,183.9 c 0,0 -9.84,23.26 23.16,41.59 v -8.33 z"
   inkscape:connector-curvature="0"
   style="opacity:0.3" />
	<path
   id="XMLID_170_"
   class="st11"
   d="m 334.16,168.15 c 0,0 5.48,27.18 -15.67,29.76 -21.15,2.58 -51.49,-9.88 -51.49,-9.88 l 8.36,18.75 24.99,8.87 38.73,-10.96 6.91,-25.54 z"
   inkscape:connector-curvature="0"
   style="opacity:0.2" />
	<path
   id="XMLID_169_"
   class="st12"
   d="m 328,156.82 c 0,0 4.12,23.11 -6.44,28.72 -10.56,5.61 -56.89,-0.59 -56.89,-0.59 l 5.56,17.65 28.75,13.56 31.24,-4.37 14.14,-16.96 -2.5,-26.68 z"
   inkscape:connector-curvature="0"
   style="opacity:0.1" />
	<path
   id="XMLID_168_"
   class="st7"
   d="m 217.2,313.28 c 0,0 8.36,7.21 11.24,-16.96 2.88,-24.17 11.05,-72.5 11.05,-72.5 0,0 26.26,-9.43 27.5,-16.33 1.24,-6.9 -6.59,-11.87 -6.59,-11.87 l -11.29,9.48 -18.43,14.05 z"
   inkscape:connector-curvature="0"
   style="opacity:0.3" />
	<path
   id="XMLID_167_"
   class="st7"
   d="m 344.35,203.15 c 0,0 1.65,15.67 -6.68,19.67 -8.33,4 -3.51,1.33 -3.51,1.33 l -12.77,83.52 c 0,0 -0.13,2.56 -7.38,3.81 l 10.9,-94.05 z"
   inkscape:connector-curvature="0"
   style="opacity:0.3" />
	<path
   id="XMLID_166_"
   class="st13"
   d="m 225,80.45 c 0,-0.94 0.84,-1.65 1.76,-1.5 5.31,0.84 21.55,3.14 33.66,2.04 13.6,-1.24 24.76,-2.47 30.68,-3.31 0.75,-0.11 1.45,0.35 1.67,1.07 l 0.27,0.9 c 0.26,0.87 -0.29,1.77 -1.18,1.93 -5.55,1 -23.48,4.13 -30.76,4.41 -7.55,0.29 -29.32,-3.15 -34.82,-4.04 -0.74,-0.12 -1.28,-0.76 -1.28,-1.5 z"
   inkscape:connector-curvature="0"
   style="opacity:0.15" />
	<path
   id="XMLID_165_"
   class="st13"
   d="m 225,74.21 c 0,-0.58 0.84,-1.02 1.76,-0.93 5.31,0.52 21.55,1.95 33.66,1.27 13.6,-0.77 24.76,-1.53 30.68,-2.05 0.75,-0.07 1.45,0.22 1.67,0.67 l 0.27,0.56 c 0.26,0.54 -0.29,1.1 -1.18,1.2 -5.55,0.62 -23.48,2.56 -30.76,2.73 -7.55,0.18 -29.32,-1.95 -34.82,-2.51 C 225.54,75.07 225,74.67 225,74.21 Z"
   inkscape:connector-curvature="0"
   style="opacity:0.15" />
	<path
   id="XMLID_164_"
   class="st13"
   d="m 179.93,173.28 c 0,0 3.42,19.2 25.17,24.69 21.75,5.49 49.95,-9.2 49.95,-9.2 L 234,211.15 h -45 l -10.5,-21.69 z"
   inkscape:connector-curvature="0"
   style="opacity:0.15" />
</g>
</svg>