<svg xmlns="http://www.w3.org/2000/svg" width="483.78" height="484.089" viewBox="0 0 128 128.082"><g transform="translate(-23.373 3.972)"><path d="M87.445 5l.159 110.636" fill="none" stroke="#fc0000" stroke-width="4.592" stroke-linecap="round" stroke-dasharray=".45918018,.45918018"/><rect ry="0" y="77.804" x="57.664" height="12.1" width="12.527" opacity=".99" fill="none" stroke="#000" stroke-width="1.323" stroke-linejoin="round" stroke-dashoffset="68"/><rect ry="0" y="73.427" x="42.333" height="3.969" width="3.969" opacity=".99" stroke="#000" stroke-width="1.323" stroke-linejoin="round" stroke-dashoffset="68" transform="matrix(1.35276 0 0 1.30664 3.976 -14.681)"/><g transform="matrix(.7454 0 0 .71999 74.515 26.072)" stroke="#000" stroke-width="1.323" stroke-linejoin="round" stroke-dashoffset="68"><rect ry="0" y="70.781" x="39.688" height="9.26" width="9.26" opacity=".99" fill="none"/><rect ry="0" y="73.427" x="42.333" height="3.969" width="3.969" opacity=".99"/></g><g transform="matrix(1.35276 0 0 1.30664 3.976 -61.257)" stroke="#000" stroke-width="1.323" stroke-linejoin="round" stroke-dashoffset="68"><rect ry="0" y="70.781" x="39.688" height="9.26" width="9.26" opacity=".99" fill="none"/><rect ry="0" y="73.427" x="42.333" height="3.969" width="3.969" opacity=".99"/></g><g transform="matrix(1.35276 0 0 1.30664 50.795 -61.589)" stroke="#000" stroke-width="1.323" stroke-linejoin="round" stroke-dashoffset="68"><rect ry="0" y="70.781" x="39.688" height="9.26" width="9.26" opacity=".99" fill="none"/><rect ry="0" y="73.427" x="42.333" height="3.969" width="3.969" opacity=".99"/></g><g fill="none" stroke="#000" stroke-width="4"><path d="M40.761 28.967v-15.55h15.55" stroke-width="3.67344"/><path d="M71.863-2.135H25.21v46.653" stroke-width="3.67344"/></g><g fill="none" stroke="#000" stroke-width="4"><path d="M56.312 106.722H40.76V91.17" stroke-width="3.67344"/><path d="M25.21 75.62v46.652h46.653" stroke-width="3.67344"/></g><g fill="none" stroke="#000" stroke-width="4"><path d="M118.435 13.497h15.55v15.55" stroke-width="3.67344"/><path d="M149.537 44.599V-2.054h-46.653" stroke-width="3.67344"/></g><g fill="none" stroke="#000" stroke-width="4"><path d="M133.986 91.172v15.55h-15.551" stroke-width="3.67344"/><path d="M102.884 122.274h46.653V75.62" stroke-width="3.67344"/></g></g></svg>