<?xml version="1.0" encoding="UTF-8" standalone="no"?>
<!-- Creator: CorelDRAW X6 -->

<svg
   xmlns:dc="http://purl.org/dc/elements/1.1/"
   xmlns:cc="http://creativecommons.org/ns#"
   xmlns:rdf="http://www.w3.org/1999/02/22-rdf-syntax-ns#"
   xmlns:svg="http://www.w3.org/2000/svg"
   xmlns="http://www.w3.org/2000/svg"
   xmlns:xlink="http://www.w3.org/1999/xlink"
   xmlns:sodipodi="http://sodipodi.sourceforge.net/DTD/sodipodi-0.dtd"
   xmlns:inkscape="http://www.inkscape.org/namespaces/inkscape"
   xml:space="preserve"
   width="912.35077"
   height="1588.9414"
   version="1.1"
   style="clip-rule:evenodd;fill-rule:evenodd;image-rendering:optimizeQuality;shape-rendering:geometricPrecision;text-rendering:geometricPrecision"
   viewBox="0 0 24139.726 42041.517"
   id="svg72"
   sodipodi:docname="swirl_crop.svg"
   inkscape:version="0.92.5 (2060ec1f9f, 2020-04-08)"
   inkscape:export-filename="/fast/bitcoin/wally/android/media/swirl_background-mdpi.png"
   inkscape:export-xdpi="52.623714"
   inkscape:export-ydpi="52.623714"><metadata
   id="metadata76"><rdf:RDF><cc:Work
       rdf:about=""><dc:format>image/svg+xml</dc:format><dc:type
         rdf:resource="http://purl.org/dc/dcmitype/StillImage" /><dc:title></dc:title></cc:Work></rdf:RDF></metadata><sodipodi:namedview
   pagecolor="#ffffff"
   bordercolor="#666666"
   borderopacity="1"
   objecttolerance="10"
   gridtolerance="10"
   guidetolerance="10"
   inkscape:pageopacity="0"
   inkscape:pageshadow="2"
   inkscape:window-width="2874"
   inkscape:window-height="1782"
   id="namedview74"
   showgrid="false"
   inkscape:zoom="0.7168295"
   inkscape:cx="-228.04204"
   inkscape:cy="848.0837"
   inkscape:window-x="598"
   inkscape:window-y="175"
   inkscape:window-maximized="0"
   inkscape:current-layer="g912"
   fit-margin-top="0"
   fit-margin-left="0"
   fit-margin-right="0"
   fit-margin-bottom="0"
   inkscape:snap-global="true"
   inkscape:snap-nodes="false"
   units="px" />
 <defs
   id="defs46"><linearGradient
   inkscape:collect="always"
   id="linearGradient2228"><stop
     style="stop-color:#f4edde;stop-opacity:1;"
     offset="0"
     id="stop2224" /><stop
     style="stop-color:#f4edde;stop-opacity:0;"
     offset="1"
     id="stop2226" /></linearGradient><linearGradient
   inkscape:collect="always"
   id="linearGradient1278"><stop
     style="stop-color:#d9c391;stop-opacity:1;"
     offset="0"
     id="stop1274" /><stop
     style="stop-color:#d9c391;stop-opacity:0;"
     offset="1"
     id="stop1276" /></linearGradient><linearGradient
   y2="-38.02"
   x2="2282.25"
   y1="4387.2598"
   x1="2004.35"
   gradientUnits="userSpaceOnUse"
   id="linearGradient1092">
   <stop
   id="stop1086"
   style="stop-color:#9B6C42"
   offset="0" />
   <stop
   id="stop1088"
   style="stop-color:#CCB28C"
   offset="0.459326" />
   <stop
   id="stop1090"
   style="stop-color:#FEF8D6"
   offset="1" />
  </linearGradient><linearGradient
   y2="2024.91"
   x2="2446.8999"
   y1="2024.91"
   x1="184.88"
   gradientUnits="userSpaceOnUse"
   id="id3">
   <stop
   id="stop1077"
   style="stop-color:#CAAB75"
   offset="0" />
   <stop
   id="stop1079"
   style="stop-color:#8F592B"
   offset="1" />
  </linearGradient>
  <style
   type="text/css"
   id="style2">
   <![CDATA[
    .str0 {stroke:#FEFEFE;stroke-width:7.05}
    .fil6 {fill:#FEFEFE}
    .fil10 {fill:#F6E1C2}
    .fil0 {fill:#FCFCFC}
    .fil7 {fill:url(#id0)}
    .fil2 {fill:url(#id1)}
    .fil8 {fill:url(#id2)}
    .fil9 {fill:url(#id3)}
    .fil3 {fill:url(#id4)}
    .fil5 {fill:url(#id5)}
    .fil4 {fill:url(#id6)}
    .fil1 {fill:url(#id7)}
   ]]>
  </style>
  <linearGradient
   id="id0"
   gradientUnits="userSpaceOnUse"
   x1="910.20001"
   y1="2761.03"
   x2="2400.3201"
   y2="2761.03">
   <stop
   offset="0"
   style="stop-color:#764B28"
   id="stop4" />
   <stop
   offset="1"
   style="stop-color:#C9AA7C"
   id="stop6" />
  </linearGradient>
  <linearGradient
   id="id1"
   gradientUnits="userSpaceOnUse"
   x1="1665.34"
   y1="2969.6599"
   x2="2943.8799"
   y2="2969.6599">
   <stop
   offset="0"
   style="stop-color:#7D522F"
   id="stop9" />
   <stop
   offset="1"
   style="stop-color:#DBBB80"
   id="stop11" />
  </linearGradient>
  <linearGradient
   id="id2"
   gradientUnits="userSpaceOnUse"
   x1="547.03003"
   y1="2533.01"
   x2="1447.54"
   y2="2533.01">
   <stop
   offset="0"
   style="stop-color:#845529"
   id="stop14" />
   <stop
   offset="1"
   style="stop-color:#E8CFA6"
   id="stop16" />
  </linearGradient>
  <linearGradient
   id="id3-6"
   gradientUnits="userSpaceOnUse"
   x1="184.88"
   y1="2024.91"
   x2="2446.8999"
   y2="2024.91">
   <stop
   offset="0"
   style="stop-color:#CAAB75"
   id="stop19" />
   <stop
   offset="1"
   style="stop-color:#8F592B"
   id="stop21" />
  </linearGradient>
  <linearGradient
   id="id4"
   gradientUnits="userSpaceOnUse"
   x1="1386.01"
   y1="1541.72"
   x2="2925.76"
   y2="1541.72">
   <stop
   offset="0"
   style="stop-color:#F5EABC"
   id="stop24" />
   <stop
   offset="1"
   style="stop-color:#A3723A"
   id="stop26" />
  </linearGradient>
  <linearGradient
   id="id5"
   gradientUnits="userSpaceOnUse"
   x1="4169.8198"
   y1="3321.52"
   x2="3007.9099"
   y2="883.92999">
   <stop
   offset="0"
   style="stop-color:#D9C391"
   id="stop29" />
   <stop
   offset="1"
   style="stop-color:#C09664"
   id="stop31" />
  </linearGradient>
  <linearGradient
   id="id6"
   gradientUnits="userSpaceOnUse"
   x1="5667.3501"
   y1="2102.9299"
   x2="201.19"
   y2="908.40002">
   <stop
   offset="0"
   style="stop-color:#764F2E"
   id="stop34" />
   <stop
   offset="1"
   style="stop-color:#FFF6CE"
   id="stop36" />
  </linearGradient>
  <linearGradient
   id="id7"
   gradientUnits="userSpaceOnUse"
   x1="2004.35"
   y1="4387.2598"
   x2="2282.25"
   y2="-38.02">
   <stop
   offset="0"
   style="stop-color:#9B6C42"
   id="stop39" />
   <stop
   offset="0.478431"
   style="stop-color:#CCB28C"
   id="stop41" />
   <stop
   offset="1"
   style="stop-color:#FEF8D6"
   id="stop43" />
  </linearGradient>
 <linearGradient
   id="id7-9"
   gradientUnits="userSpaceOnUse"
   x1="2004.35"
   y1="4387.2598"
   x2="2282.25"
   y2="-38.02"><stop
     offset="0"
     style="stop-color:#9B6C42"
     id="stop39-1" /><stop
     offset="0.478431"
     style="stop-color:#CCB28C"
     id="stop41-2" /><stop
     offset="1"
     style="stop-color:#FEF8D6"
     id="stop43-7" /></linearGradient><linearGradient
   gradientTransform="matrix(-26.45882,0,0,-26.45882,-24688.678,41535.941)"
   inkscape:collect="always"
   xlink:href="#id7-9"
   id="linearGradient992-2-3"
   x1="-1026.6367"
   y1="1498.9142"
   x2="-1060.6312"
   y2="1485.1689"
   gradientUnits="userSpaceOnUse" /><linearGradient
   id="id6-6"
   gradientUnits="userSpaceOnUse"
   x1="5667.3501"
   y1="2102.9299"
   x2="201.19"
   y2="908.40002"><stop
     offset="0"
     style="stop-color:#764F2E"
     id="stop34-0" /><stop
     offset="1"
     style="stop-color:#FFF6CE"
     id="stop36-6" /></linearGradient><linearGradient
   gradientTransform="matrix(0,26.45882,-26.45882,0,4213.1547,61454.482)"
   inkscape:collect="always"
   xlink:href="#id7-9"
   id="linearGradient992-2-3-1"
   x1="-2263.9995"
   y1="65.327805"
   x2="-2204.6008"
   y2="21.024227"
   gradientUnits="userSpaceOnUse" /><linearGradient
   gradientTransform="matrix(26.45882,0,0,26.45882,30672.817,53501.404)"
   inkscape:collect="always"
   xlink:href="#id7-9"
   id="linearGradient992-2-3-1-0"
   x1="-1075.7339"
   y1="-1956.0663"
   x2="-1002.5247"
   y2="-1938.5032"
   gradientUnits="userSpaceOnUse" /><linearGradient
   gradientTransform="matrix(0,-26.45882,26.45882,0,33570.871,23780.119)"
   inkscape:collect="always"
   xlink:href="#id7-9"
   id="linearGradient992-2-3-1-0-5"
   x1="815.19971"
   y1="-1189.3718"
   x2="837.78101"
   y2="-1106.41"
   gradientUnits="userSpaceOnUse" /><linearGradient
   gradientTransform="matrix(-26.45882,0,0,-26.45882,15361.211,14358.365)"
   inkscape:collect="always"
   xlink:href="#id7-9"
   id="linearGradient992-2-3-1-0-5-8"
   x1="505.0726"
   y1="455.67215"
   x2="483.59579"
   y2="517.52539"
   gradientUnits="userSpaceOnUse" /><linearGradient
   gradientTransform="matrix(0,26.45882,-26.45882,0,16155.498,21319.129)"
   inkscape:collect="always"
   xlink:href="#id5"
   id="linearGradient992-2-3-1-0-5-8-6"
   x1="-709.547"
   y1="533.98785"
   x2="-754.58691"
   y2="529.69244"
   gradientUnits="userSpaceOnUse" /><linearGradient
   inkscape:collect="always"
   xlink:href="#linearGradient1278"
   id="linearGradient1280"
   x1="3080.4299"
   y1="1783.6136"
   x2="2063.4617"
   y2="3280.5491"
   gradientUnits="userSpaceOnUse"
   gradientTransform="translate(-3.2471481,6.4942962)" /><linearGradient
   inkscape:collect="always"
   xlink:href="#id7"
   id="linearGradient1282"
   x1="3080.4299"
   y1="1783.6136"
   x2="2063.4617"
   y2="3280.5491"
   gradientUnits="userSpaceOnUse"
   gradientTransform="translate(-3.2471481,6.4942962)" /><linearGradient
   inkscape:collect="always"
   xlink:href="#id6"
   id="linearGradient1284"
   x1="2679.1179"
   y1="1519.0665"
   x2="1164.3035"
   y2="2837.4087"
   gradientUnits="userSpaceOnUse"
   gradientTransform="translate(0,-6.4942962)" /><linearGradient
   inkscape:collect="always"
   xlink:href="#id5"
   id="linearGradient2216"
   gradientUnits="userSpaceOnUse"
   gradientTransform="matrix(0,26.45882,-26.45882,0,16155.498,21319.129)"
   x1="-709.547"
   y1="533.98785"
   x2="-754.58691"
   y2="529.69244" /><linearGradient
   inkscape:collect="always"
   xlink:href="#id5"
   id="linearGradient2218"
   gradientUnits="userSpaceOnUse"
   gradientTransform="matrix(0,26.45882,-26.45882,0,16155.498,21319.129)"
   x1="-709.547"
   y1="533.98785"
   x2="-754.58691"
   y2="529.69244" /><radialGradient
   inkscape:collect="always"
   xlink:href="#linearGradient2228"
   id="radialGradient2230"
   cx="-313.74219"
   cy="21793.197"
   fx="-313.74219"
   fy="21793.197"
   r="26815.768"
   gradientTransform="matrix(1,0,0,1.0041294,11220.913,-1787.8937)"
   gradientUnits="userSpaceOnUse" /><clipPath
   clipPathUnits="userSpaceOnUse"
   id="clipPath922"><rect
     style="opacity:0.978;fill:#f4edde;fill-opacity:0;stroke:#ede1cb;stroke-width:0;stroke-linecap:square;stroke-linejoin:round;stroke-miterlimit:4;stroke-dasharray:none;stroke-dashoffset:0;stroke-opacity:1"
     id="rect924"
     width="24139.727"
     height="42041.516"
     x="-812.03967"
     y="218.77831" /></clipPath></defs>
 
<g
   id="g912"
   clip-path="url(#clipPath922)"
   transform="translate(812.03967,-218.77831)"><g
     style="display:inline;opacity:1"
     inkscape:label="object"
     transform="matrix(2.3715439,0,0,2.3715439,-1201.4525,33627.119)"
     id="Слой_x0020_1">
  <metadata
   id="CorelCorpID_0Corel-Layer" />
  
  
  
  
  
  
  
  
  
  
  
 <g
   style="display:inline"
   inkscape:label="spiral"
   transform="matrix(-6.2894941,0,0,6.2894941,21504.755,-18527.408)"
   id="g1298"><path
     style="clip-rule:evenodd;fill:url(#linearGradient1284);fill-opacity:1;fill-rule:evenodd;stroke:#9b6c42;stroke-width:0;stroke-linecap:butt;stroke-linejoin:miter;stroke-miterlimit:4;stroke-dasharray:none;stroke-opacity:1;image-rendering:optimizeQuality;shape-rendering:geometricPrecision;text-rendering:geometricPrecision"
     d="m 610.68453,2004.1982 c 166.213,415.1839 511.16967,826.7067 924.27397,1010.8092 397.2802,177.0504 871.2083,133.7786 1203.73,-173.2955 83.1499,-76.7865 145.3096,-187.527 183.5084,-294.4867 61.8358,-173.1449 46.953,-389.3176 -96.5638,-518.6188 -32.6265,-29.3948 -74.3563,-54.5877 -117.6356,-63.2569 -124.8325,-25.005 -201.9829,2.4637 -194.0029,90.5207 5.384,59.411 32.7088,53.9493 36.1206,54.0862 3.7003,0.1485 8.8641,-39.6371 19.2509,-46.951 83.4292,-58.7469 151.1635,-4.4213 187.412,55.3784 22.8802,37.7458 36.1664,84.0546 38.4516,127.9103 10.0519,192.9114 -132.2815,356.2923 -298.438,434.9998 -102.6425,48.6213 -222.8321,71.2471 -335.9243,66.7475 -452.2625,-17.9942 -827.4689,-362.9884 -968.885,-774.3033 -126.2101,-367.0874 -21.0862,-640.027 -43.1132,-1051.13659 0,0 -157.89933,1109.70239 -538.18467,1081.59669 z"
     id="path848-3-6-7-5-3-5"
     inkscape:connector-curvature="0"
     sodipodi:nodetypes="cccssssssssssscc" /><path
     style="clip-rule:evenodd;fill:url(#linearGradient1282);fill-opacity:1;fill-rule:evenodd;stroke:url(#linearGradient1280);stroke-width:0;stroke-linecap:butt;stroke-linejoin:miter;stroke-miterlimit:4;stroke-dasharray:none;stroke-opacity:1;image-rendering:optimizeQuality;shape-rendering:geometricPrecision;text-rendering:geometricPrecision"
     d="m 1106.3741,3408.8477 c 411.1097,176.049 888.6195,216.2301 1310.9084,54.3014 406.1131,-155.726 756.3091,-516.6226 774.3033,-968.8851 4.4996,-113.0921 -8.0647,-231.9694 -56.686,-334.6119 -78.7075,-166.1565 -256.5754,-327.3134 -449.4868,-317.2615 -43.8557,2.2852 -80.9035,9.8118 -147.4167,52.7983 -58.7304,37.9566 -112.8611,142.9511 -49.2411,204.3529 15.2171,14.6866 60.3286,12.1179 61.1595,10.6979 1.2274,-2.0978 -24.9054,-33.5643 -23.7658,-70.7896 3.3289,-104.8994 137.4791,-82.485 170.4414,-74.8021 42.8692,10.5115 93.0516,41.2858 125.6782,70.6806 143.5167,129.3012 158.3995,345.4739 96.5637,518.6189 -38.1987,106.9596 -107.1867,207.9454 -190.3367,284.7319 -332.5217,307.0741 -841.7804,328.4373 -1232.6203,137.5901 -348.814,-170.3261 -418.5675,-352.2012 -724.84146,-627.3242 -36.29998,-49.4104 624.11646,810.8738 335.34036,1059.9024 z"
     id="path848-3-6-7-5-3-5-9"
     inkscape:connector-curvature="0"
     sodipodi:nodetypes="cccsssssccsssscc" /><path
     style="clip-rule:evenodd;fill:url(#linearGradient992-2-3);fill-opacity:1;fill-rule:evenodd;stroke:url(#linearGradient992-2-3);stroke-width:0;stroke-linecap:butt;stroke-linejoin:miter;stroke-miterlimit:4;stroke-dasharray:none;stroke-opacity:1;image-rendering:optimizeQuality;shape-rendering:geometricPrecision;text-rendering:geometricPrecision"
     d="m 2445.8441,4036.8103 c 415.1839,-166.213 781.2467,-475.4511 965.3491,-888.5553 177.0505,-397.2803 169.484,-900.0987 -137.5901,-1232.6204 -76.7865,-83.1498 -177.7723,-152.1379 -284.7319,-190.3367 -173.145,-61.8358 -389.3177,-46.9529 -518.6189,96.5638 -29.3947,32.6265 -56.6471,85.4967 -67.1587,128.3658 -16.6534,67.9163 7.0551,172.0732 95.0412,180.7981 21.3638,-3.2186 51.1375,-18.4727 51.5476,-20.7315 0.3523,-1.9404 -33.0179,6.5659 -60.8068,-31.8561 -48.9161,-67.6333 11.3545,-151.4729 71.1541,-187.7212 37.7459,-22.8804 84.0546,-36.1665 127.9103,-38.4517 192.9114,-10.0519 356.2923,132.2816 434.9998,298.4381 48.6213,102.6424 71.2472,222.832 66.7475,335.9242 -17.9942,452.2625 -362.9884,827.4689 -774.3033,968.8851 -367.0875,126.21 -545.0157,46.928 -956.1254,68.9551 -60.6064,-9.2705 1014.6913,132.0574 986.5855,512.3427 z"
     id="path848-3-6-7-5-3-5-9-2"
     inkscape:connector-curvature="0"
     sodipodi:nodetypes="cccsssssscsssscc" /><path
     style="clip-rule:evenodd;fill:url(#linearGradient992-2-3-1);fill-opacity:1;fill-rule:evenodd;stroke:url(#linearGradient992-2-3-1);stroke-width:0;stroke-linecap:butt;stroke-linejoin:miter;stroke-miterlimit:4;stroke-dasharray:none;stroke-opacity:1;image-rendering:optimizeQuality;shape-rendering:geometricPrecision;text-rendering:geometricPrecision"
     d="m 3843.6588,3545.028 c 176.049,-411.1096 216.2301,-888.6194 54.3014,-1310.9083 -155.726,-406.1132 -516.6226,-756.3092 -968.8852,-774.3033 -113.092,-4.4996 -233.2816,18.1262 -335.9242,66.7475 -166.1564,78.7074 -308.4899,242.0884 -298.4379,434.9997 2.2852,43.8557 1.9148,97.9682 24.795,135.7141 36.2483,59.7999 146.4601,121.4154 214.8451,65.3692 12.8306,-17.3824 17.4553,-50.991 15.5522,-52.3734 -1.9421,-1.4107 -36.2534,23.8526 -78.1185,10.6491 -66.5429,-30.2404 -81.5571,-106.2371 -64.9037,-174.1533 10.5114,-42.8692 33.8619,-85.009 63.2568,-117.6357 129.3011,-143.5166 345.4739,-158.3994 518.6189,-96.5637 106.9595,38.1988 207.9454,107.1867 284.7319,190.3367 307.0739,332.5218 328.4372,841.7805 137.5901,1232.6204 -170.3261,348.814 -352.2012,418.5674 -627.3242,724.8413 -49.4104,36.3 810.8738,-624.1164 1059.9023,-335.3403 z"
     id="path848-3-6-7-5-3-5-9-2-2"
     inkscape:connector-curvature="0"
     sodipodi:nodetypes="cccsssssccsssscc" /><path
     style="clip-rule:evenodd;fill:url(#linearGradient992-2-3-1-0);fill-opacity:1;fill-rule:evenodd;stroke:url(#linearGradient992-2-3-1-0);stroke-width:0;stroke-linecap:butt;stroke-linejoin:miter;stroke-miterlimit:4;stroke-dasharray:none;stroke-opacity:1;image-rendering:optimizeQuality;shape-rendering:geometricPrecision;text-rendering:geometricPrecision"
     d="m 4466.4343,2213.9922 c -166.2129,-415.1838 -475.451,-781.2465 -888.5552,-965.3489 -397.2803,-177.0505 -900.0987,-169.484 -1232.6203,137.5901 -83.1499,76.7865 -152.1379,177.7721 -190.3367,284.7319 -61.8358,173.1448 -46.9529,389.3176 96.5638,518.6187 32.6265,29.3948 79.6438,73.2301 122.5129,83.7417 67.9163,16.6535 180.4007,-23.0194 189.1256,-111.0055 -3.2186,-21.3638 -10.5748,-52.1444 -12.9819,-52.1351 -2.0786,0.01 2.6985,38.3158 -45.1736,53.3518 -67.9151,21.3313 -115.6685,-15.8972 -152.3631,-52.5688 -21.994,-21.9802 -51.588,-95.8066 -40.4769,-170.287 27.7925,-186.3009 102.042,-325.077 268.1984,-403.7845 102.6425,-48.6213 222.8321,-71.2472 335.9242,-66.7475 452.2625,17.9943 827.4689,362.9885 968.8851,774.3032 126.21,367.0875 46.928,545.0158 68.955,956.1254 -9.2704,60.6064 132.0574,-1014.6913 512.3427,-986.5855 z"
     id="path848-3-6-7-5-3-5-9-2-2-7"
     inkscape:connector-curvature="0"
     sodipodi:nodetypes="cccssssssssssscc" /><path
     style="clip-rule:evenodd;fill:url(#linearGradient992-2-3-1-0-5);fill-opacity:1;fill-rule:evenodd;stroke:url(#linearGradient992-2-3-1-0-5);stroke-width:0;stroke-linecap:butt;stroke-linejoin:miter;stroke-miterlimit:4;stroke-dasharray:none;stroke-opacity:1;image-rendering:optimizeQuality;shape-rendering:geometricPrecision;text-rendering:geometricPrecision"
     d="m 3990.4231,836.98046 c -411.1095,-176.049 -888.6193,-216.23 -1310.9081,-54.3013 -406.1132,155.726 -756.3092,516.62264 -774.3033,968.88514 -4.4996,113.0921 3.4941,223.5269 52.1154,326.1695 78.7074,166.1564 256.7205,318.2445 449.6318,308.1926 43.8557,-2.2852 90.1643,-15.5715 127.9103,-38.4517 59.7998,-36.2482 129.2191,-132.8034 73.173,-201.1884 -17.3824,-12.8306 -56.1889,-37.783 -57.9182,-36.2284 -1.7862,1.6057 16.8744,23.5995 1.2281,75.0715 -20.9911,69.0552 -86.415,90.5054 -155.2856,73.9948 -85.9702,-20.6099 -124.7288,-51.8812 -152.7529,-85.6927 -120.1051,-144.9086 -127.1841,-308.4059 -65.3484,-481.5508 38.1988,-106.9597 107.1867,-207.9455 190.3367,-284.7319 332.5218,-307.074 841.7805,-328.4372 1232.6203,-137.5902 348.814,170.3261 418.5674,352.2012 724.8412,627.3242 36.3,49.4103 -624.1164,-810.8738 -335.3403,-1059.90234 z"
     id="path848-3-6-7-5-3-5-9-2-2-7-2"
     inkscape:connector-curvature="0"
     sodipodi:nodetypes="cccssssssssssscc" /><path
     style="clip-rule:evenodd;fill:url(#linearGradient992-2-3-1-0-5-8);fill-opacity:1;fill-rule:evenodd;stroke:url(#linearGradient992-2-3-1-0-5-8);stroke-width:0;stroke-linecap:butt;stroke-linejoin:miter;stroke-miterlimit:4;stroke-dasharray:none;stroke-opacity:1;image-rendering:optimizeQuality;shape-rendering:geometricPrecision;text-rendering:geometricPrecision"
     d="m 2636.6574,184.98061 c -415.1838,166.2129 -781.2464,475.4511 -965.3488,888.55519 -177.0505,397.2803 -169.484,900.0988 137.5901,1232.6204 76.7865,83.1499 177.7721,152.1378 284.7318,190.3367 173.1449,61.8357 398.0969,52.8056 527.3981,-90.711 29.3947,-32.6267 61.5243,-103.0553 72.0361,-145.9245 16.6534,-67.9162 -20.0931,-162.8419 -108.0792,-171.5668 -21.3638,3.2186 -33.7716,19.6016 -34.9987,21.8914 -1.023,1.909 20.5497,23.0933 27.8636,33.4801 58.7467,83.4291 4.4211,151.1634 -55.3785,187.4119 -37.7458,22.8803 -84.0544,36.1666 -127.9104,38.4517 -192.9111,10.0519 -356.2922,-132.2817 -434.9997,-298.438 -48.6212,-102.6426 -55.6396,-203.3227 -51.1398,-316.4148 17.9943,-452.2625 366.8904,-827.4689 778.2051,-968.8851 367.0875,-126.21 525.5062,-66.43749 936.6158,-88.46449 60.6063,9.2704 -1014.6913,-132.0574 -986.5855,-512.3427 z"
     id="path848-3-6-7-5-3-5-9-2-2-7-2-3"
     inkscape:connector-curvature="0"
     sodipodi:nodetypes="cccssssssssssscc" /><path
     style="clip-rule:evenodd;fill:url(#linearGradient2216);fill-opacity:1;fill-rule:evenodd;stroke:url(#linearGradient2218);stroke-width:0;stroke-linecap:butt;stroke-linejoin:miter;stroke-miterlimit:4;stroke-dasharray:none;stroke-opacity:1;image-rendering:optimizeQuality;shape-rendering:geometricPrecision;text-rendering:geometricPrecision"
     d="m 1252.2959,672.1961 c -176.049,411.1095 -221.1073,893.4967 -59.1787,1315.7855 155.726,406.1132 521.5001,751.4318 973.7625,769.4259 113.0922,4.4996 233.2816,-18.1262 335.9242,-66.7474 166.1564,-78.7075 308.4898,-242.0885 298.438,-434.9998 -2.2854,-43.8557 -7.7678,-98.9435 -30.6479,-136.6896 -36.2483,-59.7997 -122.1383,-125.0258 -190.8194,-69.3429 -23.3477,18.929 -30.7078,60.9952 -29.6319,60.4336 10.702,-5.586 22.224,-17.1757 59.487,-8.1922 81.5138,19.6515 85.3652,107.4975 68.7118,175.4137 -10.5112,42.8692 -23.1315,78.1808 -52.5266,110.8075 -129.301,143.5165 -345.4739,158.3993 -518.6188,96.5637 -106.9596,-38.1989 -207.9455,-107.1868 -284.7319,-190.3368 -307.074,-332.5218 -328.4372,-841.7805 -137.5902,-1232.6203 170.3262,-348.814 352.2012,-418.5674 627.3242,-724.8412 49.4103,-36.3 -810.8738,624.1164 -1059.9023,335.3403 z"
     id="path848-3-6-7-5-3-5-9-2-2-7-2-3-9"
     inkscape:connector-curvature="0"
     sodipodi:nodetypes="cccsssssscsssscc" /></g></g><rect
     y="-6831.2031"
     x="-15908.597"
     height="53853"
     width="53631.535"
     id="rect2222"
     style="opacity:0.978;fill:url(#radialGradient2230);fill-opacity:1;stroke:#ede1cb;stroke-width:0;stroke-linecap:square;stroke-linejoin:round;stroke-miterlimit:4;stroke-dasharray:none;stroke-dashoffset:0;stroke-opacity:1" /></g></svg>