<?xml version="1.0" encoding="UTF-8"?>
<!DOCTYPE svg PUBLIC "-//W3C//DTD SVG 1.1//EN" "http://www.w3.org/Graphics/SVG/1.1/DTD/svg11.dtd">
<!-- Creator: CorelDRAW X6 -->
<svg xmlns="http://www.w3.org/2000/svg" xml:space="preserve" width="43.3492mm" height="43.3492mm" version="1.1" style="shape-rendering:geometricPrecision; text-rendering:geometricPrecision; image-rendering:optimizeQuality; fill-rule:evenodd; clip-rule:evenodd"
viewBox="0 0 4335 4335"
 xmlns:xlink="http://www.w3.org/1999/xlink">
 <defs>
  <style type="text/css">
   <![CDATA[
    .str0 {stroke:#FEFEFE;stroke-width:7.05}
    .fil6 {fill:#FEFEFE}
    .fil10 {fill:#F6E1C2}
    .fil0 {fill:#FCFCFC}
    .fil7 {fill:url(#id0)}
    .fil2 {fill:url(#id1)}
    .fil8 {fill:url(#id2)}
    .fil9 {fill:url(#id3)}
    .fil3 {fill:url(#id4)}
    .fil5 {fill:url(#id5)}
    .fil4 {fill:url(#id6)}
    .fil1 {fill:url(#id7)}
   ]]>
  </style>
  <linearGradient id="id0" gradientUnits="userSpaceOnUse" x1="910.2" y1="2761.03" x2="2400.32" y2="2761.03">
   <stop offset="0" style="stop-color:#764B28"/>
   <stop offset="1" style="stop-color:#C9AA7C"/>
  </linearGradient>
  <linearGradient id="id1" gradientUnits="userSpaceOnUse" x1="1665.34" y1="2969.66" x2="2943.88" y2="2969.66">
   <stop offset="0" style="stop-color:#7D522F"/>
   <stop offset="1" style="stop-color:#DBBB80"/>
  </linearGradient>
  <linearGradient id="id2" gradientUnits="userSpaceOnUse" x1="547.03" y1="2533.01" x2="1447.54" y2="2533.01">
   <stop offset="0" style="stop-color:#845529"/>
   <stop offset="1" style="stop-color:#E8CFA6"/>
  </linearGradient>
  <linearGradient id="id3" gradientUnits="userSpaceOnUse" x1="184.88" y1="2024.91" x2="2446.9" y2="2024.91">
   <stop offset="0" style="stop-color:#CAAB75"/>
   <stop offset="1" style="stop-color:#8F592B"/>
  </linearGradient>
  <linearGradient id="id4" gradientUnits="userSpaceOnUse" x1="1386.01" y1="1541.72" x2="2925.76" y2="1541.72">
   <stop offset="0" style="stop-color:#F5EABC"/>
   <stop offset="1" style="stop-color:#A3723A"/>
  </linearGradient>
  <linearGradient id="id5" gradientUnits="userSpaceOnUse" x1="4169.82" y1="3321.52" x2="3007.91" y2="883.93">
   <stop offset="0" style="stop-color:#D9C391"/>
   <stop offset="1" style="stop-color:#C09664"/>
  </linearGradient>
  <linearGradient id="id6" gradientUnits="userSpaceOnUse" x1="5667.35" y1="2102.93" x2="201.19" y2="908.4">
   <stop offset="0" style="stop-color:#764F2E"/>
   <stop offset="1" style="stop-color:#FFF6CE"/>
  </linearGradient>
  <linearGradient id="id7" gradientUnits="userSpaceOnUse" x1="2004.35" y1="4387.26" x2="2282.25" y2="-38.02">
   <stop offset="0" style="stop-color:#9B6C42"/>
   <stop offset="0.478431" style="stop-color:#CCB28C"/>
   <stop offset="1" style="stop-color:#FEF8D6"/>
  </linearGradient>
 </defs>
 <g id="Слой_x0020_1">
  <metadata id="CorelCorpID_0Corel-Layer"/>
  <rect class="fil0" x="-16" y="-8" width="4335" height="4335"/>
  <path class="fil1" d="M183 2052c67,-1071 999,-1883 2082,-1815 1083,68 1906,990 1839,2061 -68,1070 -1000,1883 -2082,1815 -1083,-68 -1906,-991 -1839,-2061z"/>
  <path class="fil2" d="M1665 3263l385 -1201 670 1128c27,311 165,406 224,452 -311,235 -1068,20 -1279,-379z"/>
  <path class="fil3" d="M1464 584c561,-245 1324,267 1462,955l-328 1205 -262 -979c85,-414 -321,-743 -950,-646 275,-62 349,-326 78,-535z"/>
  <path class="fil4" d="M2458 279c125,13 568,74 857,403 448,752 228,1880 -427,2050l38 -1193c-8,-97 -181,-714 -820,-952 240,-50 311,-132 352,-308z"/>
  <path class="fil5" d="M2888 2732c467,-300 796,-751 521,-1865 87,52 167,194 255,251 116,-1 165,161 247,242 515,1304 -626,1978 -1159,1807l136 -435z"/>
  <path class="fil6" d="M2021 2670c29,257 194,374 405,395l3 12c-241,-10 -397,-186 -411,-406l3 -1z"/>
  <path class="fil7" d="M1213 2091c178,-465 1075,-749 837,-29l-385 1201c99,187 294,310 532,404 33,54 53,146 99,161l104 232c-724,120 -1362,-118 -1457,-1015 -33,-310 13,-669 270,-954z"/>
  <path class="fil8" d="M702 2668c183,-685 441,-932 746,-875 -387,424 -525,941 -451,1537 -102,-218 -210,-419 -447,-197 -1,0 -2,-1 -3,-2 81,-94 132,-243 155,-463z"/>
  <path class="fil9" d="M575 1608c180,-171 372,-298 570,-396 593,-295 1302,38 1191,553l-386 -129c-121,-34 -343,20 -510,162l-310 63c-265,227 -379,599 -428,807 -22,161 -63,318 -152,465 -88,-57 -176,-138 -263,-476 -102,-403 4,-749 288,-1049z"/>
  <path class="fil10 str0" d="M2754 3161c-1,2 -1,4 -2,6l0 0 0 0c-20,63 -79,108 -148,108 -69,0 -128,-45 -148,-108l-1 0 -212 -732 0 0c-6,-61 -62,-108 -129,-108 -67,0 -123,47 -130,107l0 0 -212 729c-1,1 -1,2 -1,3l-1 0 0 0c-17,58 -71,100 -135,100 -62,0 -116,-41 -134,-97l0 0 0 -1c-1,-3 -2,-6 -3,-10l-292 -1028 0 0 -249 -881c35,-29 80,-46 128,-46 89,0 164,56 193,134l0 0 0 0c2,5 4,11 6,16 144,443 269,898 383,1359 104,-430 211,-853 333,-1238l0 0c15,-57 67,-99 129,-99 63,0 116,44 130,103l0 0 339 1266 366 -1344c20,-117 138,-199 219,-199 82,0 97,18 134,47l0 0 0 0c1,1 2,2 3,2l-115 378 0 0 0 2 -2 6 0 1c-139,513 -289,1020 -449,1524z"/>
 </g>
</svg>
