<?xml version="1.0" encoding="UTF-8" standalone="no"?>
<!-- Creator: CorelDRAW X6 -->

<svg
   xmlns:dc="http://purl.org/dc/elements/1.1/"
   xmlns:cc="http://creativecommons.org/ns#"
   xmlns:rdf="http://www.w3.org/1999/02/22-rdf-syntax-ns#"
   xmlns:svg="http://www.w3.org/2000/svg"
   xmlns="http://www.w3.org/2000/svg"
   xmlns:sodipodi="http://sodipodi.sourceforge.net/DTD/sodipodi-0.dtd"
   xmlns:inkscape="http://www.inkscape.org/namespaces/inkscape"
   xml:space="preserve"
   width="43.3492mm"
   height="43.3492mm"
   version="1.1"
   style="shape-rendering:geometricPrecision; text-rendering:geometricPrecision; image-rendering:optimizeQuality; fill-rule:evenodd; clip-rule:evenodd"
   viewBox="0 0 4335 4335"
   id="svg1370"
   sodipodi:docname="w_edit.svg"
   inkscape:version="0.92.5 (2060ec1f9f, 2020-04-08)"><metadata
   id="metadata1374"><rdf:RDF><cc:Work
       rdf:about=""><dc:format>image/svg+xml</dc:format><dc:type
         rdf:resource="http://purl.org/dc/dcmitype/StillImage" /><dc:title></dc:title></cc:Work></rdf:RDF></metadata><sodipodi:namedview
   pagecolor="#ffffff"
   bordercolor="#666666"
   borderopacity="1"
   objecttolerance="10"
   gridtolerance="10"
   guidetolerance="10"
   inkscape:pageopacity="0"
   inkscape:pageshadow="2"
   inkscape:window-width="1896"
   inkscape:window-height="1607"
   id="namedview1372"
   showgrid="false"
   inkscape:zoom="1.4404341"
   inkscape:cx="-43.389698"
   inkscape:cy="81.91975"
   inkscape:window-x="4995"
   inkscape:window-y="341"
   inkscape:window-maximized="0"
   inkscape:current-layer="svg1370" />
 <defs
   id="defs1344">
  <style
   type="text/css"
   id="style1300">
   <![CDATA[
    .str0 {stroke:#FEFEFE;stroke-width:7.05}
    .fil6 {fill:#FEFEFE}
    .fil10 {fill:#F6E1C2}
    .fil0 {fill:#FCFCFC}
    .fil7 {fill:url(#id0)}
    .fil2 {fill:url(#id1)}
    .fil8 {fill:url(#id2)}
    .fil9 {fill:url(#id3)}
    .fil3 {fill:url(#id4)}
    .fil5 {fill:url(#id5)}
    .fil4 {fill:url(#id6)}
    .fil1 {fill:url(#id7)}
   ]]>
  </style>
  <linearGradient
   id="id0"
   gradientUnits="userSpaceOnUse"
   x1="910.2"
   y1="2761.03"
   x2="2400.32"
   y2="2761.03">
   <stop
   offset="0"
   style="stop-color:#764B28"
   id="stop1302" />
   <stop
   offset="1"
   style="stop-color:#C9AA7C"
   id="stop1304" />
  </linearGradient>
  <linearGradient
   id="id1"
   gradientUnits="userSpaceOnUse"
   x1="1665.34"
   y1="2969.66"
   x2="2943.88"
   y2="2969.66">
   <stop
   offset="0"
   style="stop-color:#7D522F"
   id="stop1307" />
   <stop
   offset="1"
   style="stop-color:#DBBB80"
   id="stop1309" />
  </linearGradient>
  <linearGradient
   id="id2"
   gradientUnits="userSpaceOnUse"
   x1="547.03"
   y1="2533.01"
   x2="1447.54"
   y2="2533.01">
   <stop
   offset="0"
   style="stop-color:#845529"
   id="stop1312" />
   <stop
   offset="1"
   style="stop-color:#E8CFA6"
   id="stop1314" />
  </linearGradient>
  <linearGradient
   id="id3"
   gradientUnits="userSpaceOnUse"
   x1="184.88"
   y1="2024.91"
   x2="2446.9"
   y2="2024.91">
   <stop
   offset="0"
   style="stop-color:#CAAB75"
   id="stop1317" />
   <stop
   offset="1"
   style="stop-color:#8F592B"
   id="stop1319" />
  </linearGradient>
  <linearGradient
   id="id4"
   gradientUnits="userSpaceOnUse"
   x1="1386.01"
   y1="1541.72"
   x2="2925.76"
   y2="1541.72">
   <stop
   offset="0"
   style="stop-color:#F5EABC"
   id="stop1322" />
   <stop
   offset="1"
   style="stop-color:#A3723A"
   id="stop1324" />
  </linearGradient>
  <linearGradient
   id="id5"
   gradientUnits="userSpaceOnUse"
   x1="4169.82"
   y1="3321.52"
   x2="3007.91"
   y2="883.93">
   <stop
   offset="0"
   style="stop-color:#D9C391"
   id="stop1327" />
   <stop
   offset="1"
   style="stop-color:#C09664"
   id="stop1329" />
  </linearGradient>
  <linearGradient
   id="id6"
   gradientUnits="userSpaceOnUse"
   x1="5667.35"
   y1="2102.93"
   x2="201.19"
   y2="908.4">
   <stop
   offset="0"
   style="stop-color:#764F2E"
   id="stop1332" />
   <stop
   offset="1"
   style="stop-color:#FFF6CE"
   id="stop1334" />
  </linearGradient>
  <linearGradient
   id="id7"
   gradientUnits="userSpaceOnUse"
   x1="2004.35"
   y1="4387.26"
   x2="2282.25"
   y2="-38.02">
   <stop
   offset="0"
   style="stop-color:#9B6C42"
   id="stop1337" />
   <stop
   offset="0.478431"
   style="stop-color:#CCB28C"
   id="stop1339" />
   <stop
   offset="1"
   style="stop-color:#FEF8D6"
   id="stop1341" />
  </linearGradient>
 
  
  
  
  
  
  
  
  
  
  
  
  
 </defs>
 <path
   style="fill:#f6e1c2;stroke:#fefefe;stroke-width:7.05000019"
   inkscape:connector-curvature="0"
   id="path1367"
   d="m 2754,3161 c -1,2 -1,4 -2,6 v 0 0 c -20,63 -79,108 -148,108 -69,0 -128,-45 -148,-108 h -1 l -212,-732 v 0 c -6,-61 -62,-108 -129,-108 -67,0 -123,47 -130,107 v 0 l -212,729 c -1,1 -1,2 -1,3 h -1 v 0 c -17,58 -71,100 -135,100 -62,0 -116,-41 -134,-97 v 0 -1 c -1,-3 -2,-6 -3,-10 L 1206,2130 v 0 L 957,1249 c 35,-29 80,-46 128,-46 89,0 164,56 193,134 v 0 0 c 2,5 4,11 6,16 144,443 269,898 383,1359 104,-430 211,-853 333,-1238 v 0 c 15,-57 67,-99 129,-99 63,0 116,44 130,103 v 0 l 339,1266 366,-1344 c 20,-117 138,-199 219,-199 82,0 97,18 134,47 v 0 0 c 1,1 2,2 3,2 l -115,378 v 0 2 l -2,6 v 1 c -139,513 -289,1020 -449,1524 z"
   class="fil10 str0" />
</svg>